0
SECTION
2
HEADER
9
$ANGDIR
70
1
9
$AUNITS
70
0
9
$PROJECTNAME
1
MainSystem v4
9
$TDCREATE
40
2460219.85304262
9
$INSUNITS
70
4
0
ENDSEC
0
SECTION
2
ENTITIES
0
POLYLINE
66
1
8
outline
10
0.0
20
0.0
30
0.0
70
1
0
VERTEX
8
0
10
-37.277040625000005
20
28.78328125
30
0
0
VERTEX
8
0
10
-37.252878125
20
28.22984375
30
0
0
VERTEX
8
0
10
-37.18056875
20
27.680615625
30
0
0
VERTEX
8
0
10
-37.060668750000005
20
27.139781250000002
30
0
0
VERTEX
8
0
10
-36.894087500000005
20
26.611453125
30
0
0
VERTEX
8
0
10
-36.68209375
20
26.099656250000002
30
0
0
VERTEX
8
0
10
-36.426303125000004
20
25.60828125
30
0
0
VERTEX
8
0
10
-36.12865625
20
25.141071875
30
0
0
VERTEX
8
0
10
-35.791421875000005
20
24.70158125
30
0
0
VERTEX
8
0
10
-35.41716875
20
24.293153125
30
0
0
VERTEX
8
0
10
-35.008740625
20
23.9189
30
0
0
VERTEX
8
0
10
-34.569250000000004
20
23.581665625
30
0
0
VERTEX
8
0
10
-34.102040625
20
23.28401875
30
0
0
VERTEX
8
0
10
-33.610665625
20
23.028228125000002
30
0
0
VERTEX
8
0
10
-33.09886875
20
22.816234375
30
0
0
VERTEX
8
0
10
-32.570540625
20
22.649653125
30
0
0
VERTEX
8
0
10
-32.029706250000004
20
22.529753125000003
30
0
0
VERTEX
8
0
10
-31.480478125
20
22.45744375
30
0
0
VERTEX
8
0
10
-30.927040625
20
22.43328125
30
0
0
VERTEX
8
0
10
24.962975
20
22.43328125
30
0
0
VERTEX
8
0
10
25.513796875
20
22.45733125
30
0
0
VERTEX
8
0
10
26.060428125
20
22.529296875
30
0
0
VERTEX
8
0
10
26.598706250000003
20
22.648628125000002
30
0
0
VERTEX
8
0
10
27.124537500000002
20
22.814421875
30
0
0
VERTEX
8
0
10
27.633915625
20
23.025415625
30
0
0
VERTEX
8
0
10
28.122968750000002
20
23.28
30
0
0
VERTEX
8
0
10
28.58796875
20
23.5762375
30
0
0
VERTEX
8
0
10
29.025381250000002
20
23.911878125
30
0
0
VERTEX
8
0
10
29.431878125
20
24.2843625
30
0
0
VERTEX
8
0
10
29.8043625
20
24.690859375000002
30
0
0
VERTEX
8
0
10
30.140003125
20
25.128271875000003
30
0
0
VERTEX
8
0
10
30.436240625
20
25.593275000000002
30
0
0
VERTEX
8
0
10
30.690825
20
26.082325
30
0
0
VERTEX
8
0
10
30.90181875
20
26.591703125000002
30
0
0
VERTEX
8
0
10
31.067612500000003
20
27.117534375
30
0
0
VERTEX
8
0
10
31.18694375
20
27.6558125
30
0
0
VERTEX
8
0
10
31.258909375
20
28.20244375
30
0
0
VERTEX
8
0
10
31.282959375
20
28.753265625
30
0
0
VERTEX
8
0
10
31.282959375
20
57.60370625
30
0
0
VERTEX
8
0
10
31.2537375
20
58.273025000000004
30
0
0
VERTEX
8
0
10
31.166290625000002
20
58.937250000000006
30
0
0
VERTEX
8
0
10
31.021284375
20
59.591325000000005
30
0
0
VERTEX
8
0
10
30.819825
20
60.230275000000006
30
0
0
VERTEX
8
0
10
30.56344375
20
60.849234375
30
0
0
VERTEX
8
0
10
30.254090625
20
61.44349375
30
0
0
VERTEX
8
0
10
29.894125000000003
20
62.008528125000005
30
0
0
VERTEX
8
0
10
29.48628125
20
62.540040625
30
0
0
VERTEX
8
0
10
29.033662500000002
20
63.033984375
30
0
0
VERTEX
8
0
10
28.539718750000002
20
63.486603125
30
0
0
VERTEX
8
0
10
28.00820625
20
63.894446875
30
0
0
VERTEX
8
0
10
27.443171875
20
64.2544125
30
0
0
VERTEX
8
0
10
26.8489125
20
64.563765625
30
0
0
VERTEX
8
0
10
26.229953125
20
64.820146875
30
0
0
VERTEX
8
0
10
25.591003125
20
65.02160625
30
0
0
VERTEX
8
0
10
24.936928125
20
65.1666125
30
0
0
VERTEX
8
0
10
24.272703125
20
65.254059375
30
0
0
VERTEX
8
0
10
23.603384375
20
65.28328125
30
0
0
VERTEX
8
0
10
-29.850709375
20
65.28328125
30
0
0
VERTEX
8
0
10
-30.49795625
20
65.255021875
30
0
0
VERTEX
8
0
10
-31.140278125000002
20
65.17045937500001
30
0
0
VERTEX
8
0
10
-31.772784375
20
65.030234375
30
0
0
VERTEX
8
0
10
-32.390665625000004
20
64.83541875
30
0
0
VERTEX
8
0
10
-32.9892125
20
64.587490625
30
0
0
VERTEX
8
0
10
-33.563875
20
64.288340625
30
0
0
VERTEX
8
0
10
-34.110278125
20
63.94024375
30
0
0
VERTEX
8
0
10
-34.6242625
20
63.54585
30
0
0
VERTEX
8
0
10
-35.10191875
20
63.108159375
30
0
0
VERTEX
8
0
10
-35.539609375000005
20
62.630503125000004
30
0
0
VERTEX
8
0
10
-35.934003125000004
20
62.116518750000004
30
0
0
VERTEX
8
0
10
-36.2821
20
61.570115625
30
0
0
VERTEX
8
0
10
-36.581250000000004
20
60.995453125000004
30
0
0
VERTEX
8
0
10
-36.829178125
20
60.39690625
30
0
0
VERTEX
8
0
10
-37.02399375
20
59.779025000000004
30
0
0
VERTEX
8
0
10
-37.16421875
20
59.146518750000006
30
0
0
VERTEX
8
0
10
-37.24878125
20
58.504196875000005
30
0
0
VERTEX
8
0
10
-37.277040625000005
20
57.856950000000005
30
0
0
VERTEX
8
0
10
-37.277040625000005
20
28.78328125
30
0
0
SEQEND
0
POLYLINE
66
1
8
1_copper
10
0.0
20
0.0
30
0.0
70
1
0
VERTEX
8
0
10
-9.895840625
20
48.80869375
30
0
0
VERTEX
8
0
10
-9.895840625
20
49.39786875
30
0
0
VERTEX
8
0
10
-10.312453125000001
20
49.81448125
30
0
0
VERTEX
8
0
10
-10.901628125
20
49.81448125
30
0
0
VERTEX
8
0
10
-11.318240625000001
20
49.39786875
30
0
0
VERTEX
8
0
10
-11.318240625000001
20
48.80869375
30
0
0
VERTEX
8
0
10
-10.901628125
20
48.392081250000004
30
0
0
VERTEX
8
0
10
-10.312453125000001
20
48.392081250000004
30
0
0
SEQEND
0
POLYLINE
66
1
8
1_copper
10
0.0
20
0.0
30
0.0
70
1
0
VERTEX
8
0
10
10.424159375
20
48.80869375
30
0
0
VERTEX
8
0
10
10.424159375
20
49.39786875
30
0
0
VERTEX
8
0
10
10.007546875000001
20
49.81448125
30
0
0
VERTEX
8
0
10
9.418371875
20
49.81448125
30
0
0
VERTEX
8
0
10
9.001759375
20
49.39786875
30
0
0
VERTEX
8
0
10
9.001759375
20
48.80869375
30
0
0
VERTEX
8
0
10
9.418371875
20
48.392081250000004
30
0
0
VERTEX
8
0
10
10.007546875000001
20
48.392081250000004
30
0
0
SEQEND
0
POLYLINE
66
1
8
1_copper
10
0.0
20
0.0
30
0.0
70
1
0
VERTEX
8
0
10
7.884159375
20
48.80869375
30
0
0
VERTEX
8
0
10
7.884159375
20
49.39786875
30
0
0
VERTEX
8
0
10
7.467546875
20
49.81448125
30
0
0
VERTEX
8
0
10
6.878371875
20
49.81448125
30
0
0
VERTEX
8
0
10
6.461759375000001
20
49.39786875
30
0
0
VERTEX
8
0
10
6.461759375000001
20
48.80869375
30
0
0
VERTEX
8
0
10
6.878371875
20
48.392081250000004
30
0
0
VERTEX
8
0
10
7.467546875
20
48.392081250000004
30
0
0
SEQEND
0
POLYLINE
66
1
8
1_copper
10
0.0
20
0.0
30
0.0
70
1
0
VERTEX
8
0
10
5.344159375
20
48.80869375
30
0
0
VERTEX
8
0
10
5.344159375
20
49.39786875
30
0
0
VERTEX
8
0
10
4.927546875
20
49.81448125
30
0
0
VERTEX
8
0
10
4.338371875
20
49.81448125
30
0
0
VERTEX
8
0
10
3.921759375
20
49.39786875
30
0
0
VERTEX
8
0
10
3.921759375
20
48.80869375
30
0
0
VERTEX
8
0
10
4.338371875
20
48.392081250000004
30
0
0
VERTEX
8
0
10
4.927546875
20
48.392081250000004
30
0
0
SEQEND
0
POLYLINE
66
1
8
1_copper
10
0.0
20
0.0
30
0.0
70
1
0
VERTEX
8
0
10
2.8041593750000002
20
48.80869375
30
0
0
VERTEX
8
0
10
2.8041593750000002
20
49.39786875
30
0
0
VERTEX
8
0
10
2.387546875
20
49.81448125
30
0
0
VERTEX
8
0
10
1.7983718750000002
20
49.81448125
30
0
0
VERTEX
8
0
10
1.3817593750000001
20
49.39786875
30
0
0
VERTEX
8
0
10
1.3817593750000001
20
48.80869375
30
0
0
VERTEX
8
0
10
1.7983718750000002
20
48.392081250000004
30
0
0
VERTEX
8
0
10
2.387546875
20
48.392081250000004
30
0
0
SEQEND
0
POLYLINE
66
1
8
1_copper
10
0.0
20
0.0
30
0.0
70
1
0
VERTEX
8
0
10
0.26415937500000003
20
48.80869375
30
0
0
VERTEX
8
0
10
0.26415937500000003
20
49.39786875
30
0
0
VERTEX
8
0
10
-0.152453125
20
49.81448125
30
0
0
VERTEX
8
0
10
-0.7416281250000001
20
49.81448125
30
0
0
VERTEX
8
0
10
-1.1582406250000001
20
49.39786875
30
0
0
VERTEX
8
0
10
-1.1582406250000001
20
48.80869375
30
0
0
VERTEX
8
0
10
-0.7416281250000001
20
48.392081250000004
30
0
0
VERTEX
8
0
10
-0.152453125
20
48.392081250000004
30
0
0
SEQEND
0
POLYLINE
66
1
8
1_copper
10
0.0
20
0.0
30
0.0
70
1
0
VERTEX
8
0
10
-7.355840625
20
48.80869375
30
0
0
VERTEX
8
0
10
-7.355840625
20
49.39786875
30
0
0
VERTEX
8
0
10
-7.772453125
20
49.81448125
30
0
0
VERTEX
8
0
10
-8.361628125000001
20
49.81448125
30
0
0
VERTEX
8
0
10
-8.778240625
20
49.39786875
30
0
0
VERTEX
8
0
10
-8.778240625
20
48.80869375
30
0
0
VERTEX
8
0
10
-8.361628125000001
20
48.392081250000004
30
0
0
VERTEX
8
0
10
-7.772453125
20
48.392081250000004
30
0
0
SEQEND
0
POLYLINE
66
1
8
1_copper
10
0.0
20
0.0
30
0.0
70
1
0
VERTEX
8
0
10
-17.515840625
20
48.80869375
30
0
0
VERTEX
8
0
10
-17.515840625
20
49.39786875
30
0
0
VERTEX
8
0
10
-17.932453125000002
20
49.81448125
30
0
0
VERTEX
8
0
10
-18.521628125
20
49.81448125
30
0
0
VERTEX
8
0
10
-18.938240625000002
20
49.39786875
30
0
0
VERTEX
8
0
10
-18.938240625000002
20
48.80869375
30
0
0
VERTEX
8
0
10
-18.521628125
20
48.392081250000004
30
0
0
VERTEX
8
0
10
-17.932453125000002
20
48.392081250000004
30
0
0
SEQEND
0
POLYLINE
66
1
8
1_copper
10
0.0
20
0.0
30
0.0
70
1
0
VERTEX
8
0
10
-2.2758406250000003
20
48.80869375
30
0
0
VERTEX
8
0
10
-2.2758406250000003
20
49.39786875
30
0
0
VERTEX
8
0
10
-2.692453125
20
49.81448125
30
0
0
VERTEX
8
0
10
-3.281628125
20
49.81448125
30
0
0
VERTEX
8
0
10
-3.6982406250000004
20
49.39786875
30
0
0
VERTEX
8
0
10
-3.6982406250000004
20
48.80869375
30
0
0
VERTEX
8
0
10
-3.281628125
20
48.392081250000004
30
0
0
VERTEX
8
0
10
-2.692453125
20
48.392081250000004
30
0
0
SEQEND
0
POLYLINE
66
1
8
1_copper
10
0.0
20
0.0
30
0.0
70
1
0
VERTEX
8
0
10
-4.815840625
20
48.80869375
30
0
0
VERTEX
8
0
10
-4.815840625
20
49.39786875
30
0
0
VERTEX
8
0
10
-5.232453125
20
49.81448125
30
0
0
VERTEX
8
0
10
-5.821628125
20
49.81448125
30
0
0
VERTEX
8
0
10
-6.238240625
20
49.39786875
30
0
0
VERTEX
8
0
10
-6.238240625
20
48.80869375
30
0
0
VERTEX
8
0
10
-5.821628125
20
48.392081250000004
30
0
0
VERTEX
8
0
10
-5.232453125
20
48.392081250000004
30
0
0
SEQEND
0
POLYLINE
66
1
8
1_copper
10
0.0
20
0.0
30
0.0
70
1
0
VERTEX
8
0
10
12.964159375000001
20
48.80869375
30
0
0
VERTEX
8
0
10
12.964159375000001
20
49.39786875
30
0
0
VERTEX
8
0
10
12.547546875
20
49.81448125
30
0
0
VERTEX
8
0
10
11.958371875000001
20
49.81448125
30
0
0
VERTEX
8
0
10
11.541759375
20
49.39786875
30
0
0
VERTEX
8
0
10
11.541759375
20
48.80869375
30
0
0
VERTEX
8
0
10
11.958371875000001
20
48.392081250000004
30
0
0
VERTEX
8
0
10
12.547546875
20
48.392081250000004
30
0
0
SEQEND
0
POLYLINE
66
1
8
1_copper
10
0.0
20
0.0
30
0.0
70
1
0
VERTEX
8
0
10
15.504159375
20
48.80869375
30
0
0
VERTEX
8
0
10
15.504159375
20
49.39786875
30
0
0
VERTEX
8
0
10
15.087546875000001
20
49.81448125
30
0
0
VERTEX
8
0
10
14.498371875
20
49.81448125
30
0
0
VERTEX
8
0
10
14.081759375
20
49.39786875
30
0
0
VERTEX
8
0
10
14.081759375
20
48.80869375
30
0
0
VERTEX
8
0
10
14.498371875
20
48.392081250000004
30
0
0
VERTEX
8
0
10
15.087546875000001
20
48.392081250000004
30
0
0
SEQEND
0
POLYLINE
66
1
8
1_copper
10
0.0
20
0.0
30
0.0
70
1
0
VERTEX
8
0
10
18.044159375
20
48.80869375
30
0
0
VERTEX
8
0
10
18.044159375
20
49.39786875
30
0
0
VERTEX
8
0
10
17.627546875
20
49.81448125
30
0
0
VERTEX
8
0
10
17.038371875
20
49.81448125
30
0
0
VERTEX
8
0
10
16.621759375
20
49.39786875
30
0
0
VERTEX
8
0
10
16.621759375
20
48.80869375
30
0
0
VERTEX
8
0
10
17.038371875
20
48.392081250000004
30
0
0
VERTEX
8
0
10
17.627546875
20
48.392081250000004
30
0
0
SEQEND
0
POLYLINE
66
1
8
1_copper
10
0.0
20
0.0
30
0.0
70
1
0
VERTEX
8
0
10
20.584159375000002
20
48.80869375
30
0
0
VERTEX
8
0
10
20.584159375000002
20
49.39786875
30
0
0
VERTEX
8
0
10
20.167546875
20
49.81448125
30
0
0
VERTEX
8
0
10
19.578371875000002
20
49.81448125
30
0
0
VERTEX
8
0
10
19.161759375000003
20
49.39786875
30
0
0
VERTEX
8
0
10
19.161759375000003
20
48.80869375
30
0
0
VERTEX
8
0
10
19.578371875000002
20
48.392081250000004
30
0
0
VERTEX
8
0
10
20.167546875
20
48.392081250000004
30
0
0
SEQEND
0
POLYLINE
66
1
8
1_copper
10
0.0
20
0.0
30
0.0
70
1
0
VERTEX
8
0
10
23.124159375
20
48.80869375
30
0
0
VERTEX
8
0
10
23.124159375
20
49.39786875
30
0
0
VERTEX
8
0
10
22.707546875000002
20
49.81448125
30
0
0
VERTEX
8
0
10
22.118371875
20
49.81448125
30
0
0
VERTEX
8
0
10
21.701759375
20
49.39786875
30
0
0
VERTEX
8
0
10
21.701759375
20
48.80869375
30
0
0
VERTEX
8
0
10
22.118371875
20
48.392081250000004
30
0
0
VERTEX
8
0
10
22.707546875000002
20
48.392081250000004
30
0
0
SEQEND
0
POLYLINE
66
1
8
1_copper
10
0.0
20
0.0
30
0.0
70
1
0
VERTEX
8
0
10
-9.895840625
20
46.268693750000004
30
0
0
VERTEX
8
0
10
-9.895840625
20
46.85786875
30
0
0
VERTEX
8
0
10
-10.312453125000001
20
47.27448125
30
0
0
VERTEX
8
0
10
-10.901628125
20
47.27448125
30
0
0
VERTEX
8
0
10
-11.318240625000001
20
46.85786875
30
0
0
VERTEX
8
0
10
-11.318240625000001
20
46.268693750000004
30
0
0
VERTEX
8
0
10
-10.901628125
20
45.852081250000005
30
0
0
VERTEX
8
0
10
-10.312453125000001
20
45.852081250000005
30
0
0
SEQEND
0
POLYLINE
66
1
8
1_copper
10
0.0
20
0.0
30
0.0
70
1
0
VERTEX
8
0
10
-7.355840625
20
46.268693750000004
30
0
0
VERTEX
8
0
10
-7.355840625
20
46.85786875
30
0
0
VERTEX
8
0
10
-7.772453125
20
47.27448125
30
0
0
VERTEX
8
0
10
-8.361628125000001
20
47.27448125
30
0
0
VERTEX
8
0
10
-8.778240625
20
46.85786875
30
0
0
VERTEX
8
0
10
-8.778240625
20
46.268693750000004
30
0
0
VERTEX
8
0
10
-8.361628125000001
20
45.852081250000005
30
0
0
VERTEX
8
0
10
-7.772453125
20
45.852081250000005
30
0
0
SEQEND
0
POLYLINE
66
1
8
1_copper
10
0.0
20
0.0
30
0.0
70
1
0
VERTEX
8
0
10
-4.815840625
20
46.268693750000004
30
0
0
VERTEX
8
0
10
-4.815840625
20
46.85786875
30
0
0
VERTEX
8
0
10
-5.232453125
20
47.27448125
30
0
0
VERTEX
8
0
10
-5.821628125
20
47.27448125
30
0
0
VERTEX
8
0
10
-6.238240625
20
46.85786875
30
0
0
VERTEX
8
0
10
-6.238240625
20
46.268693750000004
30
0
0
VERTEX
8
0
10
-5.821628125
20
45.852081250000005
30
0
0
VERTEX
8
0
10
-5.232453125
20
45.852081250000005
30
0
0
SEQEND
0
POLYLINE
66
1
8
1_copper
10
0.0
20
0.0
30
0.0
70
1
0
VERTEX
8
0
10
-2.2758406250000003
20
46.268693750000004
30
0
0
VERTEX
8
0
10
-2.2758406250000003
20
46.85786875
30
0
0
VERTEX
8
0
10
-2.692453125
20
47.27448125
30
0
0
VERTEX
8
0
10
-3.281628125
20
47.27448125
30
0
0
VERTEX
8
0
10
-3.6982406250000004
20
46.85786875
30
0
0
VERTEX
8
0
10
-3.6982406250000004
20
46.268693750000004
30
0
0
VERTEX
8
0
10
-3.281628125
20
45.852081250000005
30
0
0
VERTEX
8
0
10
-2.692453125
20
45.852081250000005
30
0
0
SEQEND
0
POLYLINE
66
1
8
1_copper
10
0.0
20
0.0
30
0.0
70
1
0
VERTEX
8
0
10
23.124159375
20
46.268693750000004
30
0
0
VERTEX
8
0
10
23.124159375
20
46.85786875
30
0
0
VERTEX
8
0
10
22.707546875000002
20
47.27448125
30
0
0
VERTEX
8
0
10
22.118371875
20
47.27448125
30
0
0
VERTEX
8
0
10
21.701759375
20
46.85786875
30
0
0
VERTEX
8
0
10
21.701759375
20
46.268693750000004
30
0
0
VERTEX
8
0
10
22.118371875
20
45.852081250000005
30
0
0
VERTEX
8
0
10
22.707546875000002
20
45.852081250000005
30
0
0
SEQEND
0
POLYLINE
66
1
8
1_copper
10
0.0
20
0.0
30
0.0
70
1
0
VERTEX
8
0
10
2.8041593750000002
20
46.268693750000004
30
0
0
VERTEX
8
0
10
2.8041593750000002
20
46.85786875
30
0
0
VERTEX
8
0
10
2.387546875
20
47.27448125
30
0
0
VERTEX
8
0
10
1.7983718750000002
20
47.27448125
30
0
0
VERTEX
8
0
10
1.3817593750000001
20
46.85786875
30
0
0
VERTEX
8
0
10
1.3817593750000001
20
46.268693750000004
30
0
0
VERTEX
8
0
10
1.7983718750000002
20
45.852081250000005
30
0
0
VERTEX
8
0
10
2.387546875
20
45.852081250000005
30
0
0
SEQEND
0
POLYLINE
66
1
8
1_copper
10
0.0
20
0.0
30
0.0
70
1
0
VERTEX
8
0
10
5.344159375
20
46.268693750000004
30
0
0
VERTEX
8
0
10
5.344159375
20
46.85786875
30
0
0
VERTEX
8
0
10
4.927546875
20
47.27448125
30
0
0
VERTEX
8
0
10
4.338371875
20
47.27448125
30
0
0
VERTEX
8
0
10
3.921759375
20
46.85786875
30
0
0
VERTEX
8
0
10
3.921759375
20
46.268693750000004
30
0
0
VERTEX
8
0
10
4.338371875
20
45.852081250000005
30
0
0
VERTEX
8
0
10
4.927546875
20
45.852081250000005
30
0
0
SEQEND
0
POLYLINE
66
1
8
1_copper
10
0.0
20
0.0
30
0.0
70
1
0
VERTEX
8
0
10
7.884159375
20
46.268693750000004
30
0
0
VERTEX
8
0
10
7.884159375
20
46.85786875
30
0
0
VERTEX
8
0
10
7.467546875
20
47.27448125
30
0
0
VERTEX
8
0
10
6.878371875
20
47.27448125
30
0
0
VERTEX
8
0
10
6.461759375000001
20
46.85786875
30
0
0
VERTEX
8
0
10
6.461759375000001
20
46.268693750000004
30
0
0
VERTEX
8
0
10
6.878371875
20
45.852081250000005
30
0
0
VERTEX
8
0
10
7.467546875
20
45.852081250000005
30
0
0
SEQEND
0
POLYLINE
66
1
8
1_copper
10
0.0
20
0.0
30
0.0
70
1
0
VERTEX
8
0
10
10.424159375
20
46.268693750000004
30
0
0
VERTEX
8
0
10
10.424159375
20
46.85786875
30
0
0
VERTEX
8
0
10
10.007546875000001
20
47.27448125
30
0
0
VERTEX
8
0
10
9.418371875
20
47.27448125
30
0
0
VERTEX
8
0
10
9.001759375
20
46.85786875
30
0
0
VERTEX
8
0
10
9.001759375
20
46.268693750000004
30
0
0
VERTEX
8
0
10
9.418371875
20
45.852081250000005
30
0
0
VERTEX
8
0
10
10.007546875000001
20
45.852081250000005
30
0
0
SEQEND
0
POLYLINE
66
1
8
1_copper
10
0.0
20
0.0
30
0.0
70
1
0
VERTEX
8
0
10
0.26415937500000003
20
46.268693750000004
30
0
0
VERTEX
8
0
10
0.26415937500000003
20
46.85786875
30
0
0
VERTEX
8
0
10
-0.152453125
20
47.27448125
30
0
0
VERTEX
8
0
10
-0.7416281250000001
20
47.27448125
30
0
0
VERTEX
8
0
10
-1.1582406250000001
20
46.85786875
30
0
0
VERTEX
8
0
10
-1.1582406250000001
20
46.268693750000004
30
0
0
VERTEX
8
0
10
-0.7416281250000001
20
45.852081250000005
30
0
0
VERTEX
8
0
10
-0.152453125
20
45.852081250000005
30
0
0
SEQEND
0
POLYLINE
66
1
8
1_copper
10
0.0
20
0.0
30
0.0
70
1
0
VERTEX
8
0
10
12.964159375000001
20
46.268693750000004
30
0
0
VERTEX
8
0
10
12.964159375000001
20
46.85786875
30
0
0
VERTEX
8
0
10
12.547546875
20
47.27448125
30
0
0
VERTEX
8
0
10
11.958371875000001
20
47.27448125
30
0
0
VERTEX
8
0
10
11.541759375
20
46.85786875
30
0
0
VERTEX
8
0
10
11.541759375
20
46.268693750000004
30
0
0
VERTEX
8
0
10
11.958371875000001
20
45.852081250000005
30
0
0
VERTEX
8
0
10
12.547546875
20
45.852081250000005
30
0
0
SEQEND
0
POLYLINE
66
1
8
1_copper
10
0.0
20
0.0
30
0.0
70
1
0
VERTEX
8
0
10
-22.595840625
20
46.268693750000004
30
0
0
VERTEX
8
0
10
-22.595840625
20
46.85786875
30
0
0
VERTEX
8
0
10
-23.012453125
20
47.27448125
30
0
0
VERTEX
8
0
10
-23.601628125
20
47.27448125
30
0
0
VERTEX
8
0
10
-24.018240625
20
46.85786875
30
0
0
VERTEX
8
0
10
-24.018240625
20
46.268693750000004
30
0
0
VERTEX
8
0
10
-23.601628125
20
45.852081250000005
30
0
0
VERTEX
8
0
10
-23.012453125
20
45.852081250000005
30
0
0
SEQEND
0
POLYLINE
66
1
8
1_copper
10
0.0
20
0.0
30
0.0
70
1
0
VERTEX
8
0
10
15.504159375
20
46.268693750000004
30
0
0
VERTEX
8
0
10
15.504159375
20
46.85786875
30
0
0
VERTEX
8
0
10
15.087546875000001
20
47.27448125
30
0
0
VERTEX
8
0
10
14.498371875
20
47.27448125
30
0
0
VERTEX
8
0
10
14.081759375
20
46.85786875
30
0
0
VERTEX
8
0
10
14.081759375
20
46.268693750000004
30
0
0
VERTEX
8
0
10
14.498371875
20
45.852081250000005
30
0
0
VERTEX
8
0
10
15.087546875000001
20
45.852081250000005
30
0
0
SEQEND
0
POLYLINE
66
1
8
1_copper
10
0.0
20
0.0
30
0.0
70
1
0
VERTEX
8
0
10
-20.055840625000002
20
46.268693750000004
30
0
0
VERTEX
8
0
10
-20.055840625000002
20
46.85786875
30
0
0
VERTEX
8
0
10
-20.472453125
20
47.27448125
30
0
0
VERTEX
8
0
10
-21.061628125000002
20
47.27448125
30
0
0
VERTEX
8
0
10
-21.478240625
20
46.85786875
30
0
0
VERTEX
8
0
10
-21.478240625
20
46.268693750000004
30
0
0
VERTEX
8
0
10
-21.061628125000002
20
45.852081250000005
30
0
0
VERTEX
8
0
10
-20.472453125
20
45.852081250000005
30
0
0
SEQEND
0
POLYLINE
66
1
8
1_copper
10
0.0
20
0.0
30
0.0
70
1
0
VERTEX
8
0
10
18.044159375
20
46.268693750000004
30
0
0
VERTEX
8
0
10
18.044159375
20
46.85786875
30
0
0
VERTEX
8
0
10
17.627546875
20
47.27448125
30
0
0
VERTEX
8
0
10
17.038371875
20
47.27448125
30
0
0
VERTEX
8
0
10
16.621759375
20
46.85786875
30
0
0
VERTEX
8
0
10
16.621759375
20
46.268693750000004
30
0
0
VERTEX
8
0
10
17.038371875
20
45.852081250000005
30
0
0
VERTEX
8
0
10
17.627546875
20
45.852081250000005
30
0
0
SEQEND
0
POLYLINE
66
1
8
1_copper
10
0.0
20
0.0
30
0.0
70
1
0
VERTEX
8
0
10
-17.515840625
20
46.268693750000004
30
0
0
VERTEX
8
0
10
-17.515840625
20
46.85786875
30
0
0
VERTEX
8
0
10
-17.932453125000002
20
47.27448125
30
0
0
VERTEX
8
0
10
-18.521628125
20
47.27448125
30
0
0
VERTEX
8
0
10
-18.938240625000002
20
46.85786875
30
0
0
VERTEX
8
0
10
-18.938240625000002
20
46.268693750000004
30
0
0
VERTEX
8
0
10
-18.521628125
20
45.852081250000005
30
0
0
VERTEX
8
0
10
-17.932453125000002
20
45.852081250000005
30
0
0
SEQEND
0
POLYLINE
66
1
8
1_copper
10
0.0
20
0.0
30
0.0
70
1
0
VERTEX
8
0
10
20.584159375000002
20
46.268693750000004
30
0
0
VERTEX
8
0
10
20.584159375000002
20
46.85786875
30
0
0
VERTEX
8
0
10
20.167546875
20
47.27448125
30
0
0
VERTEX
8
0
10
19.578371875000002
20
47.27448125
30
0
0
VERTEX
8
0
10
19.161759375000003
20
46.85786875
30
0
0
VERTEX
8
0
10
19.161759375000003
20
46.268693750000004
30
0
0
VERTEX
8
0
10
19.578371875000002
20
45.852081250000005
30
0
0
VERTEX
8
0
10
20.167546875
20
45.852081250000005
30
0
0
SEQEND
0
POLYLINE
66
1
8
1_copper
10
0.0
20
0.0
30
0.0
70
1
0
VERTEX
8
0
10
-12.435840625
20
46.268693750000004
30
0
0
VERTEX
8
0
10
-12.435840625
20
46.85786875
30
0
0
VERTEX
8
0
10
-12.852453125
20
47.27448125
30
0
0
VERTEX
8
0
10
-13.441628125000001
20
47.27448125
30
0
0
VERTEX
8
0
10
-13.858240625
20
46.85786875
30
0
0
VERTEX
8
0
10
-13.858240625
20
46.268693750000004
30
0
0
VERTEX
8
0
10
-13.441628125000001
20
45.852081250000005
30
0
0
VERTEX
8
0
10
-12.852453125
20
45.852081250000005
30
0
0
SEQEND
0
POLYLINE
66
1
8
1_copper
10
0.0
20
0.0
30
0.0
70
1
0
VERTEX
8
0
10
15.438303125000001
20
31.20361875
30
0
0
VERTEX
8
0
10
15.511734375000001
20
31.218225
30
0
0
VERTEX
8
0
10
15.583378125000001
20
31.239959375
30
0
0
VERTEX
8
0
10
15.652550000000002
20
31.268609375
30
0
0
VERTEX
8
0
10
15.718578125
20
31.303903125
30
0
0
VERTEX
8
0
10
15.780828125000001
20
31.3455
30
0
0
VERTEX
8
0
10
15.838703125
20
31.392996875
30
0
0
VERTEX
8
0
10
15.89164375
20
31.445937500000003
30
0
0
VERTEX
8
0
10
15.939140625
20
31.503812500000002
30
0
0
VERTEX
8
0
10
15.9807375
20
31.5660625
30
0
0
VERTEX
8
0
10
16.01603125
20
31.632090625
30
0
0
VERTEX
8
0
10
16.04468125
20
31.701262500000002
30
0
0
VERTEX
8
0
10
16.066415625
20
31.772906250000002
30
0
0
VERTEX
8
0
10
16.081021875
20
31.8463375
30
0
0
VERTEX
8
0
10
16.088359375
20
31.920846875000002
30
0
0
VERTEX
8
0
10
16.088359375
20
33.519715625
30
0
0
VERTEX
8
0
10
16.081021875
20
33.594225
30
0
0
VERTEX
8
0
10
16.066415625
20
33.66765625
30
0
0
VERTEX
8
0
10
16.04468125
20
33.7393
30
0
0
VERTEX
8
0
10
16.01603125
20
33.808471875
30
0
0
VERTEX
8
0
10
15.9807375
20
33.874500000000005
30
0
0
VERTEX
8
0
10
15.939140625
20
33.93675
30
0
0
VERTEX
8
0
10
15.89164375
20
33.994625
30
0
0
VERTEX
8
0
10
15.838703125
20
34.047565625000004
30
0
0
VERTEX
8
0
10
15.780828125000001
20
34.095062500000004
30
0
0
VERTEX
8
0
10
15.718578125
20
34.136659375
30
0
0
VERTEX
8
0
10
15.652550000000002
20
34.171953125
30
0
0
VERTEX
8
0
10
15.583378125000001
20
34.200603125
30
0
0
VERTEX
8
0
10
15.511734375000001
20
34.2223375
30
0
0
VERTEX
8
0
10
15.438303125000001
20
34.23694375
30
0
0
VERTEX
8
0
10
15.363793750000001
20
34.24428125
30
0
0
VERTEX
8
0
10
15.288925
20
34.24428125
30
0
0
VERTEX
8
0
10
15.214415625
20
34.23694375
30
0
0
VERTEX
8
0
10
15.140984375
20
34.2223375
30
0
0
VERTEX
8
0
10
15.069340625
20
34.200603125
30
0
0
VERTEX
8
0
10
15.00016875
20
34.171953125
30
0
0
VERTEX
8
0
10
14.934140625000001
20
34.136659375
30
0
0
VERTEX
8
0
10
14.871890625
20
34.095062500000004
30
0
0
VERTEX
8
0
10
14.814015625000001
20
34.047565625000004
30
0
0
VERTEX
8
0
10
14.761075
20
33.994625
30
0
0
VERTEX
8
0
10
14.713578125000002
20
33.93675
30
0
0
VERTEX
8
0
10
14.67198125
20
33.874500000000005
30
0
0
VERTEX
8
0
10
14.6366875
20
33.808471875
30
0
0
VERTEX
8
0
10
14.6080375
20
33.7393
30
0
0
VERTEX
8
0
10
14.586303125
20
33.66765625
30
0
0
VERTEX
8
0
10
14.571696875
20
33.594225
30
0
0
VERTEX
8
0
10
14.564359375
20
33.519715625
30
0
0
VERTEX
8
0
10
14.564359375
20
31.920846875000002
30
0
0
VERTEX
8
0
10
14.571696875
20
31.8463375
30
0
0
VERTEX
8
0
10
14.586303125
20
31.772906250000002
30
0
0
VERTEX
8
0
10
14.6080375
20
31.701262500000002
30
0
0
VERTEX
8
0
10
14.6366875
20
31.632090625
30
0
0
VERTEX
8
0
10
14.67198125
20
31.5660625
30
0
0
VERTEX
8
0
10
14.713578125000002
20
31.503812500000002
30
0
0
VERTEX
8
0
10
14.761075
20
31.445937500000003
30
0
0
VERTEX
8
0
10
14.814015625000001
20
31.392996875
30
0
0
VERTEX
8
0
10
14.871890625
20
31.3455
30
0
0
VERTEX
8
0
10
14.934140625000001
20
31.303903125
30
0
0
VERTEX
8
0
10
15.00016875
20
31.268609375
30
0
0
VERTEX
8
0
10
15.069340625
20
31.239959375
30
0
0
VERTEX
8
0
10
15.140984375
20
31.218225
30
0
0
VERTEX
8
0
10
15.214415625
20
31.20361875
30
0
0
VERTEX
8
0
10
15.288925
20
31.196281250000002
30
0
0
VERTEX
8
0
10
15.363793750000001
20
31.196281250000002
30
0
0
SEQEND
0
POLYLINE
66
1
8
1_copper
10
0.0
20
0.0
30
0.0
70
1
0
VERTEX
8
0
10
-11.780021875000001
20
31.278840625
30
0
0
VERTEX
8
0
10
-11.716384375
20
31.291500000000003
30
0
0
VERTEX
8
0
10
-11.654290625
20
31.310334375
30
0
0
VERTEX
8
0
10
-11.59434375
20
31.335165625000002
30
0
0
VERTEX
8
0
10
-11.537118750000001
20
31.365753125
30
0
0
VERTEX
8
0
10
-11.483165625
20
31.401803125
30
0
0
VERTEX
8
0
10
-11.433009375000001
20
31.442965625000003
30
0
0
VERTEX
8
0
10
-11.387125000000001
20
31.488850000000003
30
0
0
VERTEX
8
0
10
-11.3459625
20
31.53900625
30
0
0
VERTEX
8
0
10
-11.309912500000001
20
31.592959375000003
30
0
0
VERTEX
8
0
10
-11.279325
20
31.650184375000002
30
0
0
VERTEX
8
0
10
-11.25449375
20
31.71013125
30
0
0
VERTEX
8
0
10
-11.235659375000001
20
31.772225000000002
30
0
0
VERTEX
8
0
10
-11.223
20
31.8358625
30
0
0
VERTEX
8
0
10
-11.216640625
20
31.900437500000002
30
0
0
VERTEX
8
0
10
-11.216640625
20
33.286125
30
0
0
VERTEX
8
0
10
-11.223
20
33.3507
30
0
0
VERTEX
8
0
10
-11.235659375000001
20
33.4143375
30
0
0
VERTEX
8
0
10
-11.25449375
20
33.476431250000005
30
0
0
VERTEX
8
0
10
-11.279325
20
33.536378125
30
0
0
VERTEX
8
0
10
-11.309912500000001
20
33.593603125
30
0
0
VERTEX
8
0
10
-11.3459625
20
33.64755625
30
0
0
VERTEX
8
0
10
-11.387125000000001
20
33.6977125
30
0
0
VERTEX
8
0
10
-11.433009375000001
20
33.743596875
30
0
0
VERTEX
8
0
10
-11.483165625
20
33.784759375
30
0
0
VERTEX
8
0
10
-11.537118750000001
20
33.820809375
30
0
0
VERTEX
8
0
10
-11.59434375
20
33.851396875
30
0
0
VERTEX
8
0
10
-11.654290625
20
33.876228125000004
30
0
0
VERTEX
8
0
10
-11.716384375
20
33.8950625
30
0
0
VERTEX
8
0
10
-11.780021875000001
20
33.907721875
30
0
0
VERTEX
8
0
10
-11.844596875
20
33.91408125
30
0
0
VERTEX
8
0
10
-11.909484375
20
33.91408125
30
0
0
VERTEX
8
0
10
-11.974059375000001
20
33.907721875
30
0
0
VERTEX
8
0
10
-12.037696875
20
33.8950625
30
0
0
VERTEX
8
0
10
-12.099790625
20
33.876228125000004
30
0
0
VERTEX
8
0
10
-12.1597375
20
33.851396875
30
0
0
VERTEX
8
0
10
-12.216962500000001
20
33.820809375
30
0
0
VERTEX
8
0
10
-12.270915625
20
33.784759375
30
0
0
VERTEX
8
0
10
-12.321071875000001
20
33.743596875
30
0
0
VERTEX
8
0
10
-12.366956250000001
20
33.6977125
30
0
0
VERTEX
8
0
10
-12.40811875
20
33.64755625
30
0
0
VERTEX
8
0
10
-12.444168750000001
20
33.593603125
30
0
0
VERTEX
8
0
10
-12.47475625
20
33.536378125
30
0
0
VERTEX
8
0
10
-12.4995875
20
33.476431250000005
30
0
0
VERTEX
8
0
10
-12.518421875000001
20
33.4143375
30
0
0
VERTEX
8
0
10
-12.53108125
20
33.3507
30
0
0
VERTEX
8
0
10
-12.537440625
20
33.286125
30
0
0
VERTEX
8
0
10
-12.537440625
20
31.900437500000002
30
0
0
VERTEX
8
0
10
-12.53108125
20
31.8358625
30
0
0
VERTEX
8
0
10
-12.518421875000001
20
31.772225000000002
30
0
0
VERTEX
8
0
10
-12.4995875
20
31.71013125
30
0
0
VERTEX
8
0
10
-12.47475625
20
31.650184375000002
30
0
0
VERTEX
8
0
10
-12.444168750000001
20
31.592959375000003
30
0
0
VERTEX
8
0
10
-12.40811875
20
31.53900625
30
0
0
VERTEX
8
0
10
-12.366956250000001
20
31.488850000000003
30
0
0
VERTEX
8
0
10
-12.321071875000001
20
31.442965625000003
30
0
0
VERTEX
8
0
10
-12.270915625
20
31.401803125
30
0
0
VERTEX
8
0
10
-12.216962500000001
20
31.365753125
30
0
0
VERTEX
8
0
10
-12.1597375
20
31.335165625000002
30
0
0
VERTEX
8
0
10
-12.099790625
20
31.310334375
30
0
0
VERTEX
8
0
10
-12.037696875
20
31.291500000000003
30
0
0
VERTEX
8
0
10
-11.974059375000001
20
31.278840625
30
0
0
VERTEX
8
0
10
-11.909484375
20
31.272481250000002
30
0
0
VERTEX
8
0
10
-11.844596875
20
31.272481250000002
30
0
0
SEQEND
0
POLYLINE
66
1
8
1_copper
10
0.0
20
0.0
30
0.0
70
1
0
VERTEX
8
0
10
-16.860021875
20
31.278840625
30
0
0
VERTEX
8
0
10
-16.796384375000002
20
31.291500000000003
30
0
0
VERTEX
8
0
10
-16.734290625
20
31.310334375
30
0
0
VERTEX
8
0
10
-16.674343750000002
20
31.335165625000002
30
0
0
VERTEX
8
0
10
-16.61711875
20
31.365753125
30
0
0
VERTEX
8
0
10
-16.563165625
20
31.401803125
30
0
0
VERTEX
8
0
10
-16.513009375
20
31.442965625000003
30
0
0
VERTEX
8
0
10
-16.467125
20
31.488850000000003
30
0
0
VERTEX
8
0
10
-16.4259625
20
31.53900625
30
0
0
VERTEX
8
0
10
-16.3899125
20
31.592959375000003
30
0
0
VERTEX
8
0
10
-16.359325000000002
20
31.650184375000002
30
0
0
VERTEX
8
0
10
-16.33449375
20
31.71013125
30
0
0
VERTEX
8
0
10
-16.315659375
20
31.772225000000002
30
0
0
VERTEX
8
0
10
-16.303
20
31.8358625
30
0
0
VERTEX
8
0
10
-16.296640625000002
20
31.900437500000002
30
0
0
VERTEX
8
0
10
-16.296640625000002
20
33.286125
30
0
0
VERTEX
8
0
10
-16.303
20
33.3507
30
0
0
VERTEX
8
0
10
-16.315659375
20
33.4143375
30
0
0
VERTEX
8
0
10
-16.33449375
20
33.476431250000005
30
0
0
VERTEX
8
0
10
-16.359325000000002
20
33.536378125
30
0
0
VERTEX
8
0
10
-16.3899125
20
33.593603125
30
0
0
VERTEX
8
0
10
-16.4259625
20
33.64755625
30
0
0
VERTEX
8
0
10
-16.467125
20
33.6977125
30
0
0
VERTEX
8
0
10
-16.513009375
20
33.743596875
30
0
0
VERTEX
8
0
10
-16.563165625
20
33.784759375
30
0
0
VERTEX
8
0
10
-16.61711875
20
33.820809375
30
0
0
VERTEX
8
0
10
-16.674343750000002
20
33.851396875
30
0
0
VERTEX
8
0
10
-16.734290625
20
33.876228125000004
30
0
0
VERTEX
8
0
10
-16.796384375000002
20
33.8950625
30
0
0
VERTEX
8
0
10
-16.860021875
20
33.907721875
30
0
0
VERTEX
8
0
10
-16.924596875000002
20
33.91408125
30
0
0
VERTEX
8
0
10
-16.989484375
20
33.91408125
30
0
0
VERTEX
8
0
10
-17.054059375
20
33.907721875
30
0
0
VERTEX
8
0
10
-17.117696875
20
33.8950625
30
0
0
VERTEX
8
0
10
-17.179790625000003
20
33.876228125000004
30
0
0
VERTEX
8
0
10
-17.2397375
20
33.851396875
30
0
0
VERTEX
8
0
10
-17.2969625
20
33.820809375
30
0
0
VERTEX
8
0
10
-17.350915625000003
20
33.784759375
30
0
0
VERTEX
8
0
10
-17.401071875
20
33.743596875
30
0
0
VERTEX
8
0
10
-17.44695625
20
33.6977125
30
0
0
VERTEX
8
0
10
-17.48811875
20
33.64755625
30
0
0
VERTEX
8
0
10
-17.52416875
20
33.593603125
30
0
0
VERTEX
8
0
10
-17.55475625
20
33.536378125
30
0
0
VERTEX
8
0
10
-17.579587500000002
20
33.476431250000005
30
0
0
VERTEX
8
0
10
-17.598421875
20
33.4143375
30
0
0
VERTEX
8
0
10
-17.61108125
20
33.3507
30
0
0
VERTEX
8
0
10
-17.617440625
20
33.286125
30
0
0
VERTEX
8
0
10
-17.617440625
20
31.900437500000002
30
0
0
VERTEX
8
0
10
-17.61108125
20
31.8358625
30
0
0
VERTEX
8
0
10
-17.598421875
20
31.772225000000002
30
0
0
VERTEX
8
0
10
-17.579587500000002
20
31.71013125
30
0
0
VERTEX
8
0
10
-17.55475625
20
31.650184375000002
30
0
0
VERTEX
8
0
10
-17.52416875
20
31.592959375000003
30
0
0
VERTEX
8
0
10
-17.48811875
20
31.53900625
30
0
0
VERTEX
8
0
10
-17.44695625
20
31.488850000000003
30
0
0
VERTEX
8
0
10
-17.401071875
20
31.442965625000003
30
0
0
VERTEX
8
0
10
-17.350915625000003
20
31.401803125
30
0
0
VERTEX
8
0
10
-17.2969625
20
31.365753125
30
0
0
VERTEX
8
0
10
-17.2397375
20
31.335165625000002
30
0
0
VERTEX
8
0
10
-17.179790625000003
20
31.310334375
30
0
0
VERTEX
8
0
10
-17.117696875
20
31.291500000000003
30
0
0
VERTEX
8
0
10
-17.054059375
20
31.278840625
30
0
0
VERTEX
8
0
10
-16.989484375
20
31.272481250000002
30
0
0
VERTEX
8
0
10
-16.924596875000002
20
31.272481250000002
30
0
0
SEQEND
0
POLYLINE
66
1
8
1_copper
10
0.0
20
0.0
30
0.0
70
1
0
VERTEX
8
0
10
-14.320021875
20
31.278840625
30
0
0
VERTEX
8
0
10
-14.256384375000001
20
31.291500000000003
30
0
0
VERTEX
8
0
10
-14.194290625
20
31.310334375
30
0
0
VERTEX
8
0
10
-14.134343750000001
20
31.335165625000002
30
0
0
VERTEX
8
0
10
-14.07711875
20
31.365753125
30
0
0
VERTEX
8
0
10
-14.023165625
20
31.401803125
30
0
0
VERTEX
8
0
10
-13.973009375
20
31.442965625000003
30
0
0
VERTEX
8
0
10
-13.927125
20
31.488850000000003
30
0
0
VERTEX
8
0
10
-13.885962500000002
20
31.53900625
30
0
0
VERTEX
8
0
10
-13.8499125
20
31.592959375000003
30
0
0
VERTEX
8
0
10
-13.819325000000001
20
31.650184375000002
30
0
0
VERTEX
8
0
10
-13.79449375
20
31.71013125
30
0
0
VERTEX
8
0
10
-13.775659375
20
31.772225000000002
30
0
0
VERTEX
8
0
10
-13.763
20
31.8358625
30
0
0
VERTEX
8
0
10
-13.756640625000001
20
31.900437500000002
30
0
0
VERTEX
8
0
10
-13.756640625000001
20
33.286125
30
0
0
VERTEX
8
0
10
-13.763
20
33.3507
30
0
0
VERTEX
8
0
10
-13.775659375
20
33.4143375
30
0
0
VERTEX
8
0
10
-13.79449375
20
33.476431250000005
30
0
0
VERTEX
8
0
10
-13.819325000000001
20
33.536378125
30
0
0
VERTEX
8
0
10
-13.8499125
20
33.593603125
30
0
0
VERTEX
8
0
10
-13.885962500000002
20
33.64755625
30
0
0
VERTEX
8
0
10
-13.927125
20
33.6977125
30
0
0
VERTEX
8
0
10
-13.973009375
20
33.743596875
30
0
0
VERTEX
8
0
10
-14.023165625
20
33.784759375
30
0
0
VERTEX
8
0
10
-14.07711875
20
33.820809375
30
0
0
VERTEX
8
0
10
-14.134343750000001
20
33.851396875
30
0
0
VERTEX
8
0
10
-14.194290625
20
33.876228125000004
30
0
0
VERTEX
8
0
10
-14.256384375000001
20
33.8950625
30
0
0
VERTEX
8
0
10
-14.320021875
20
33.907721875
30
0
0
VERTEX
8
0
10
-14.384596875000002
20
33.91408125
30
0
0
VERTEX
8
0
10
-14.449484375
20
33.91408125
30
0
0
VERTEX
8
0
10
-14.514059375
20
33.907721875
30
0
0
VERTEX
8
0
10
-14.577696875
20
33.8950625
30
0
0
VERTEX
8
0
10
-14.639790625
20
33.876228125000004
30
0
0
VERTEX
8
0
10
-14.699737500000001
20
33.851396875
30
0
0
VERTEX
8
0
10
-14.7569625
20
33.820809375
30
0
0
VERTEX
8
0
10
-14.810915625000002
20
33.784759375
30
0
0
VERTEX
8
0
10
-14.861071875
20
33.743596875
30
0
0
VERTEX
8
0
10
-14.90695625
20
33.6977125
30
0
0
VERTEX
8
0
10
-14.94811875
20
33.64755625
30
0
0
VERTEX
8
0
10
-14.98416875
20
33.593603125
30
0
0
VERTEX
8
0
10
-15.014756250000001
20
33.536378125
30
0
0
VERTEX
8
0
10
-15.039587500000001
20
33.476431250000005
30
0
0
VERTEX
8
0
10
-15.058421875
20
33.4143375
30
0
0
VERTEX
8
0
10
-15.07108125
20
33.3507
30
0
0
VERTEX
8
0
10
-15.077440625000001
20
33.286125
30
0
0
VERTEX
8
0
10
-15.077440625000001
20
31.900437500000002
30
0
0
VERTEX
8
0
10
-15.07108125
20
31.8358625
30
0
0
VERTEX
8
0
10
-15.058421875
20
31.772225000000002
30
0
0
VERTEX
8
0
10
-15.039587500000001
20
31.71013125
30
0
0
VERTEX
8
0
10
-15.014756250000001
20
31.650184375000002
30
0
0
VERTEX
8
0
10
-14.98416875
20
31.592959375000003
30
0
0
VERTEX
8
0
10
-14.94811875
20
31.53900625
30
0
0
VERTEX
8
0
10
-14.90695625
20
31.488850000000003
30
0
0
VERTEX
8
0
10
-14.861071875
20
31.442965625000003
30
0
0
VERTEX
8
0
10
-14.810915625000002
20
31.401803125
30
0
0
VERTEX
8
0
10
-14.7569625
20
31.365753125
30
0
0
VERTEX
8
0
10
-14.699737500000001
20
31.335165625000002
30
0
0
VERTEX
8
0
10
-14.639790625
20
31.310334375
30
0
0
VERTEX
8
0
10
-14.577696875
20
31.291500000000003
30
0
0
VERTEX
8
0
10
-14.514059375
20
31.278840625
30
0
0
VERTEX
8
0
10
-14.449484375
20
31.272481250000002
30
0
0
VERTEX
8
0
10
-14.384596875000002
20
31.272481250000002
30
0
0
SEQEND
0
POLYLINE
66
1
8
1_copper
10
0.0
20
0.0
30
0.0
70
1
0
VERTEX
8
0
10
-19.400021875
20
31.278840625
30
0
0
VERTEX
8
0
10
-19.336384375
20
31.291500000000003
30
0
0
VERTEX
8
0
10
-19.274290625000003
20
31.310334375
30
0
0
VERTEX
8
0
10
-19.21434375
20
31.335165625000002
30
0
0
VERTEX
8
0
10
-19.157118750000002
20
31.365753125
30
0
0
VERTEX
8
0
10
-19.103165625000003
20
31.401803125
30
0
0
VERTEX
8
0
10
-19.053009375000002
20
31.442965625000003
30
0
0
VERTEX
8
0
10
-19.007125000000002
20
31.488850000000003
30
0
0
VERTEX
8
0
10
-18.9659625
20
31.53900625
30
0
0
VERTEX
8
0
10
-18.9299125
20
31.592959375000003
30
0
0
VERTEX
8
0
10
-18.899325
20
31.650184375000002
30
0
0
VERTEX
8
0
10
-18.87449375
20
31.71013125
30
0
0
VERTEX
8
0
10
-18.855659375000002
20
31.772225000000002
30
0
0
VERTEX
8
0
10
-18.843
20
31.8358625
30
0
0
VERTEX
8
0
10
-18.836640625
20
31.900437500000002
30
0
0
VERTEX
8
0
10
-18.836640625
20
33.286125
30
0
0
VERTEX
8
0
10
-18.843
20
33.3507
30
0
0
VERTEX
8
0
10
-18.855659375000002
20
33.4143375
30
0
0
VERTEX
8
0
10
-18.87449375
20
33.476431250000005
30
0
0
VERTEX
8
0
10
-18.899325
20
33.536378125
30
0
0
VERTEX
8
0
10
-18.9299125
20
33.593603125
30
0
0
VERTEX
8
0
10
-18.9659625
20
33.64755625
30
0
0
VERTEX
8
0
10
-19.007125000000002
20
33.6977125
30
0
0
VERTEX
8
0
10
-19.053009375000002
20
33.743596875
30
0
0
VERTEX
8
0
10
-19.103165625000003
20
33.784759375
30
0
0
VERTEX
8
0
10
-19.157118750000002
20
33.820809375
30
0
0
VERTEX
8
0
10
-19.21434375
20
33.851396875
30
0
0
VERTEX
8
0
10
-19.274290625000003
20
33.876228125000004
30
0
0
VERTEX
8
0
10
-19.336384375
20
33.8950625
30
0
0
VERTEX
8
0
10
-19.400021875
20
33.907721875
30
0
0
VERTEX
8
0
10
-19.464596875
20
33.91408125
30
0
0
VERTEX
8
0
10
-19.529484375000003
20
33.91408125
30
0
0
VERTEX
8
0
10
-19.594059375
20
33.907721875
30
0
0
VERTEX
8
0
10
-19.657696875
20
33.8950625
30
0
0
VERTEX
8
0
10
-19.719790625
20
33.876228125000004
30
0
0
VERTEX
8
0
10
-19.7797375
20
33.851396875
30
0
0
VERTEX
8
0
10
-19.836962500000002
20
33.820809375
30
0
0
VERTEX
8
0
10
-19.890915625
20
33.784759375
30
0
0
VERTEX
8
0
10
-19.941071875000002
20
33.743596875
30
0
0
VERTEX
8
0
10
-19.986956250000002
20
33.6977125
30
0
0
VERTEX
8
0
10
-20.02811875
20
33.64755625
30
0
0
VERTEX
8
0
10
-20.06416875
20
33.593603125
30
0
0
VERTEX
8
0
10
-20.09475625
20
33.536378125
30
0
0
VERTEX
8
0
10
-20.1195875
20
33.476431250000005
30
0
0
VERTEX
8
0
10
-20.138421875000002
20
33.4143375
30
0
0
VERTEX
8
0
10
-20.15108125
20
33.3507
30
0
0
VERTEX
8
0
10
-20.157440625
20
33.286125
30
0
0
VERTEX
8
0
10
-20.157440625
20
31.900437500000002
30
0
0
VERTEX
8
0
10
-20.15108125
20
31.8358625
30
0
0
VERTEX
8
0
10
-20.138421875000002
20
31.772225000000002
30
0
0
VERTEX
8
0
10
-20.1195875
20
31.71013125
30
0
0
VERTEX
8
0
10
-20.09475625
20
31.650184375000002
30
0
0
VERTEX
8
0
10
-20.06416875
20
31.592959375000003
30
0
0
VERTEX
8
0
10
-20.02811875
20
31.53900625
30
0
0
VERTEX
8
0
10
-19.986956250000002
20
31.488850000000003
30
0
0
VERTEX
8
0
10
-19.941071875000002
20
31.442965625000003
30
0
0
VERTEX
8
0
10
-19.890915625
20
31.401803125
30
0
0
VERTEX
8
0
10
-19.836962500000002
20
31.365753125
30
0
0
VERTEX
8
0
10
-19.7797375
20
31.335165625000002
30
0
0
VERTEX
8
0
10
-19.719790625
20
31.310334375
30
0
0
VERTEX
8
0
10
-19.657696875
20
31.291500000000003
30
0
0
VERTEX
8
0
10
-19.594059375
20
31.278840625
30
0
0
VERTEX
8
0
10
-19.529484375000003
20
31.272481250000002
30
0
0
VERTEX
8
0
10
-19.464596875
20
31.272481250000002
30
0
0
SEQEND
0
POLYLINE
66
1
8
16_copper
10
0.0
20
0.0
30
0.0
70
1
0
VERTEX
8
0
10
-9.895840625
20
48.80869375
30
0
0
VERTEX
8
0
10
-9.895840625
20
49.39786875
30
0
0
VERTEX
8
0
10
-10.312453125000001
20
49.81448125
30
0
0
VERTEX
8
0
10
-10.901628125
20
49.81448125
30
0
0
VERTEX
8
0
10
-11.318240625000001
20
49.39786875
30
0
0
VERTEX
8
0
10
-11.318240625000001
20
48.80869375
30
0
0
VERTEX
8
0
10
-10.901628125
20
48.392081250000004
30
0
0
VERTEX
8
0
10
-10.312453125000001
20
48.392081250000004
30
0
0
SEQEND
0
POLYLINE
66
1
8
16_copper
10
0.0
20
0.0
30
0.0
70
1
0
VERTEX
8
0
10
10.424159375
20
48.80869375
30
0
0
VERTEX
8
0
10
10.424159375
20
49.39786875
30
0
0
VERTEX
8
0
10
10.007546875000001
20
49.81448125
30
0
0
VERTEX
8
0
10
9.418371875
20
49.81448125
30
0
0
VERTEX
8
0
10
9.001759375
20
49.39786875
30
0
0
VERTEX
8
0
10
9.001759375
20
48.80869375
30
0
0
VERTEX
8
0
10
9.418371875
20
48.392081250000004
30
0
0
VERTEX
8
0
10
10.007546875000001
20
48.392081250000004
30
0
0
SEQEND
0
POLYLINE
66
1
8
16_copper
10
0.0
20
0.0
30
0.0
70
1
0
VERTEX
8
0
10
7.884159375
20
48.80869375
30
0
0
VERTEX
8
0
10
7.884159375
20
49.39786875
30
0
0
VERTEX
8
0
10
7.467546875
20
49.81448125
30
0
0
VERTEX
8
0
10
6.878371875
20
49.81448125
30
0
0
VERTEX
8
0
10
6.461759375000001
20
49.39786875
30
0
0
VERTEX
8
0
10
6.461759375000001
20
48.80869375
30
0
0
VERTEX
8
0
10
6.878371875
20
48.392081250000004
30
0
0
VERTEX
8
0
10
7.467546875
20
48.392081250000004
30
0
0
SEQEND
0
POLYLINE
66
1
8
16_copper
10
0.0
20
0.0
30
0.0
70
1
0
VERTEX
8
0
10
5.344159375
20
48.80869375
30
0
0
VERTEX
8
0
10
5.344159375
20
49.39786875
30
0
0
VERTEX
8
0
10
4.927546875
20
49.81448125
30
0
0
VERTEX
8
0
10
4.338371875
20
49.81448125
30
0
0
VERTEX
8
0
10
3.921759375
20
49.39786875
30
0
0
VERTEX
8
0
10
3.921759375
20
48.80869375
30
0
0
VERTEX
8
0
10
4.338371875
20
48.392081250000004
30
0
0
VERTEX
8
0
10
4.927546875
20
48.392081250000004
30
0
0
SEQEND
0
POLYLINE
66
1
8
16_copper
10
0.0
20
0.0
30
0.0
70
1
0
VERTEX
8
0
10
2.8041593750000002
20
48.80869375
30
0
0
VERTEX
8
0
10
2.8041593750000002
20
49.39786875
30
0
0
VERTEX
8
0
10
2.387546875
20
49.81448125
30
0
0
VERTEX
8
0
10
1.7983718750000002
20
49.81448125
30
0
0
VERTEX
8
0
10
1.3817593750000001
20
49.39786875
30
0
0
VERTEX
8
0
10
1.3817593750000001
20
48.80869375
30
0
0
VERTEX
8
0
10
1.7983718750000002
20
48.392081250000004
30
0
0
VERTEX
8
0
10
2.387546875
20
48.392081250000004
30
0
0
SEQEND
0
POLYLINE
66
1
8
16_copper
10
0.0
20
0.0
30
0.0
70
1
0
VERTEX
8
0
10
0.26415937500000003
20
48.80869375
30
0
0
VERTEX
8
0
10
0.26415937500000003
20
49.39786875
30
0
0
VERTEX
8
0
10
-0.152453125
20
49.81448125
30
0
0
VERTEX
8
0
10
-0.7416281250000001
20
49.81448125
30
0
0
VERTEX
8
0
10
-1.1582406250000001
20
49.39786875
30
0
0
VERTEX
8
0
10
-1.1582406250000001
20
48.80869375
30
0
0
VERTEX
8
0
10
-0.7416281250000001
20
48.392081250000004
30
0
0
VERTEX
8
0
10
-0.152453125
20
48.392081250000004
30
0
0
SEQEND
0
POLYLINE
66
1
8
16_copper
10
0.0
20
0.0
30
0.0
70
1
0
VERTEX
8
0
10
-7.355840625
20
48.80869375
30
0
0
VERTEX
8
0
10
-7.355840625
20
49.39786875
30
0
0
VERTEX
8
0
10
-7.772453125
20
49.81448125
30
0
0
VERTEX
8
0
10
-8.361628125000001
20
49.81448125
30
0
0
VERTEX
8
0
10
-8.778240625
20
49.39786875
30
0
0
VERTEX
8
0
10
-8.778240625
20
48.80869375
30
0
0
VERTEX
8
0
10
-8.361628125000001
20
48.392081250000004
30
0
0
VERTEX
8
0
10
-7.772453125
20
48.392081250000004
30
0
0
SEQEND
0
POLYLINE
66
1
8
16_copper
10
0.0
20
0.0
30
0.0
70
1
0
VERTEX
8
0
10
-17.515840625
20
48.80869375
30
0
0
VERTEX
8
0
10
-17.515840625
20
49.39786875
30
0
0
VERTEX
8
0
10
-17.932453125000002
20
49.81448125
30
0
0
VERTEX
8
0
10
-18.521628125
20
49.81448125
30
0
0
VERTEX
8
0
10
-18.938240625000002
20
49.39786875
30
0
0
VERTEX
8
0
10
-18.938240625000002
20
48.80869375
30
0
0
VERTEX
8
0
10
-18.521628125
20
48.392081250000004
30
0
0
VERTEX
8
0
10
-17.932453125000002
20
48.392081250000004
30
0
0
SEQEND
0
POLYLINE
66
1
8
16_copper
10
0.0
20
0.0
30
0.0
70
1
0
VERTEX
8
0
10
-2.2758406250000003
20
48.80869375
30
0
0
VERTEX
8
0
10
-2.2758406250000003
20
49.39786875
30
0
0
VERTEX
8
0
10
-2.692453125
20
49.81448125
30
0
0
VERTEX
8
0
10
-3.281628125
20
49.81448125
30
0
0
VERTEX
8
0
10
-3.6982406250000004
20
49.39786875
30
0
0
VERTEX
8
0
10
-3.6982406250000004
20
48.80869375
30
0
0
VERTEX
8
0
10
-3.281628125
20
48.392081250000004
30
0
0
VERTEX
8
0
10
-2.692453125
20
48.392081250000004
30
0
0
SEQEND
0
POLYLINE
66
1
8
16_copper
10
0.0
20
0.0
30
0.0
70
1
0
VERTEX
8
0
10
-4.815840625
20
48.80869375
30
0
0
VERTEX
8
0
10
-4.815840625
20
49.39786875
30
0
0
VERTEX
8
0
10
-5.232453125
20
49.81448125
30
0
0
VERTEX
8
0
10
-5.821628125
20
49.81448125
30
0
0
VERTEX
8
0
10
-6.238240625
20
49.39786875
30
0
0
VERTEX
8
0
10
-6.238240625
20
48.80869375
30
0
0
VERTEX
8
0
10
-5.821628125
20
48.392081250000004
30
0
0
VERTEX
8
0
10
-5.232453125
20
48.392081250000004
30
0
0
SEQEND
0
POLYLINE
66
1
8
16_copper
10
0.0
20
0.0
30
0.0
70
1
0
VERTEX
8
0
10
12.964159375000001
20
48.80869375
30
0
0
VERTEX
8
0
10
12.964159375000001
20
49.39786875
30
0
0
VERTEX
8
0
10
12.547546875
20
49.81448125
30
0
0
VERTEX
8
0
10
11.958371875000001
20
49.81448125
30
0
0
VERTEX
8
0
10
11.541759375
20
49.39786875
30
0
0
VERTEX
8
0
10
11.541759375
20
48.80869375
30
0
0
VERTEX
8
0
10
11.958371875000001
20
48.392081250000004
30
0
0
VERTEX
8
0
10
12.547546875
20
48.392081250000004
30
0
0
SEQEND
0
POLYLINE
66
1
8
16_copper
10
0.0
20
0.0
30
0.0
70
1
0
VERTEX
8
0
10
15.504159375
20
48.80869375
30
0
0
VERTEX
8
0
10
15.504159375
20
49.39786875
30
0
0
VERTEX
8
0
10
15.087546875000001
20
49.81448125
30
0
0
VERTEX
8
0
10
14.498371875
20
49.81448125
30
0
0
VERTEX
8
0
10
14.081759375
20
49.39786875
30
0
0
VERTEX
8
0
10
14.081759375
20
48.80869375
30
0
0
VERTEX
8
0
10
14.498371875
20
48.392081250000004
30
0
0
VERTEX
8
0
10
15.087546875000001
20
48.392081250000004
30
0
0
SEQEND
0
POLYLINE
66
1
8
16_copper
10
0.0
20
0.0
30
0.0
70
1
0
VERTEX
8
0
10
18.044159375
20
48.80869375
30
0
0
VERTEX
8
0
10
18.044159375
20
49.39786875
30
0
0
VERTEX
8
0
10
17.627546875
20
49.81448125
30
0
0
VERTEX
8
0
10
17.038371875
20
49.81448125
30
0
0
VERTEX
8
0
10
16.621759375
20
49.39786875
30
0
0
VERTEX
8
0
10
16.621759375
20
48.80869375
30
0
0
VERTEX
8
0
10
17.038371875
20
48.392081250000004
30
0
0
VERTEX
8
0
10
17.627546875
20
48.392081250000004
30
0
0
SEQEND
0
POLYLINE
66
1
8
16_copper
10
0.0
20
0.0
30
0.0
70
1
0
VERTEX
8
0
10
20.584159375000002
20
48.80869375
30
0
0
VERTEX
8
0
10
20.584159375000002
20
49.39786875
30
0
0
VERTEX
8
0
10
20.167546875
20
49.81448125
30
0
0
VERTEX
8
0
10
19.578371875000002
20
49.81448125
30
0
0
VERTEX
8
0
10
19.161759375000003
20
49.39786875
30
0
0
VERTEX
8
0
10
19.161759375000003
20
48.80869375
30
0
0
VERTEX
8
0
10
19.578371875000002
20
48.392081250000004
30
0
0
VERTEX
8
0
10
20.167546875
20
48.392081250000004
30
0
0
SEQEND
0
POLYLINE
66
1
8
16_copper
10
0.0
20
0.0
30
0.0
70
1
0
VERTEX
8
0
10
23.124159375
20
48.80869375
30
0
0
VERTEX
8
0
10
23.124159375
20
49.39786875
30
0
0
VERTEX
8
0
10
22.707546875000002
20
49.81448125
30
0
0
VERTEX
8
0
10
22.118371875
20
49.81448125
30
0
0
VERTEX
8
0
10
21.701759375
20
49.39786875
30
0
0
VERTEX
8
0
10
21.701759375
20
48.80869375
30
0
0
VERTEX
8
0
10
22.118371875
20
48.392081250000004
30
0
0
VERTEX
8
0
10
22.707546875000002
20
48.392081250000004
30
0
0
SEQEND
0
POLYLINE
66
1
8
16_copper
10
0.0
20
0.0
30
0.0
70
1
0
VERTEX
8
0
10
-9.895840625
20
46.268693750000004
30
0
0
VERTEX
8
0
10
-9.895840625
20
46.85786875
30
0
0
VERTEX
8
0
10
-10.312453125000001
20
47.27448125
30
0
0
VERTEX
8
0
10
-10.901628125
20
47.27448125
30
0
0
VERTEX
8
0
10
-11.318240625000001
20
46.85786875
30
0
0
VERTEX
8
0
10
-11.318240625000001
20
46.268693750000004
30
0
0
VERTEX
8
0
10
-10.901628125
20
45.852081250000005
30
0
0
VERTEX
8
0
10
-10.312453125000001
20
45.852081250000005
30
0
0
SEQEND
0
POLYLINE
66
1
8
16_copper
10
0.0
20
0.0
30
0.0
70
1
0
VERTEX
8
0
10
-7.355840625
20
46.268693750000004
30
0
0
VERTEX
8
0
10
-7.355840625
20
46.85786875
30
0
0
VERTEX
8
0
10
-7.772453125
20
47.27448125
30
0
0
VERTEX
8
0
10
-8.361628125000001
20
47.27448125
30
0
0
VERTEX
8
0
10
-8.778240625
20
46.85786875
30
0
0
VERTEX
8
0
10
-8.778240625
20
46.268693750000004
30
0
0
VERTEX
8
0
10
-8.361628125000001
20
45.852081250000005
30
0
0
VERTEX
8
0
10
-7.772453125
20
45.852081250000005
30
0
0
SEQEND
0
POLYLINE
66
1
8
16_copper
10
0.0
20
0.0
30
0.0
70
1
0
VERTEX
8
0
10
-4.815840625
20
46.268693750000004
30
0
0
VERTEX
8
0
10
-4.815840625
20
46.85786875
30
0
0
VERTEX
8
0
10
-5.232453125
20
47.27448125
30
0
0
VERTEX
8
0
10
-5.821628125
20
47.27448125
30
0
0
VERTEX
8
0
10
-6.238240625
20
46.85786875
30
0
0
VERTEX
8
0
10
-6.238240625
20
46.268693750000004
30
0
0
VERTEX
8
0
10
-5.821628125
20
45.852081250000005
30
0
0
VERTEX
8
0
10
-5.232453125
20
45.852081250000005
30
0
0
SEQEND
0
POLYLINE
66
1
8
16_copper
10
0.0
20
0.0
30
0.0
70
1
0
VERTEX
8
0
10
-2.2758406250000003
20
46.268693750000004
30
0
0
VERTEX
8
0
10
-2.2758406250000003
20
46.85786875
30
0
0
VERTEX
8
0
10
-2.692453125
20
47.27448125
30
0
0
VERTEX
8
0
10
-3.281628125
20
47.27448125
30
0
0
VERTEX
8
0
10
-3.6982406250000004
20
46.85786875
30
0
0
VERTEX
8
0
10
-3.6982406250000004
20
46.268693750000004
30
0
0
VERTEX
8
0
10
-3.281628125
20
45.852081250000005
30
0
0
VERTEX
8
0
10
-2.692453125
20
45.852081250000005
30
0
0
SEQEND
0
POLYLINE
66
1
8
16_copper
10
0.0
20
0.0
30
0.0
70
1
0
VERTEX
8
0
10
23.124159375
20
46.268693750000004
30
0
0
VERTEX
8
0
10
23.124159375
20
46.85786875
30
0
0
VERTEX
8
0
10
22.707546875000002
20
47.27448125
30
0
0
VERTEX
8
0
10
22.118371875
20
47.27448125
30
0
0
VERTEX
8
0
10
21.701759375
20
46.85786875
30
0
0
VERTEX
8
0
10
21.701759375
20
46.268693750000004
30
0
0
VERTEX
8
0
10
22.118371875
20
45.852081250000005
30
0
0
VERTEX
8
0
10
22.707546875000002
20
45.852081250000005
30
0
0
SEQEND
0
POLYLINE
66
1
8
16_copper
10
0.0
20
0.0
30
0.0
70
1
0
VERTEX
8
0
10
2.8041593750000002
20
46.268693750000004
30
0
0
VERTEX
8
0
10
2.8041593750000002
20
46.85786875
30
0
0
VERTEX
8
0
10
2.387546875
20
47.27448125
30
0
0
VERTEX
8
0
10
1.7983718750000002
20
47.27448125
30
0
0
VERTEX
8
0
10
1.3817593750000001
20
46.85786875
30
0
0
VERTEX
8
0
10
1.3817593750000001
20
46.268693750000004
30
0
0
VERTEX
8
0
10
1.7983718750000002
20
45.852081250000005
30
0
0
VERTEX
8
0
10
2.387546875
20
45.852081250000005
30
0
0
SEQEND
0
POLYLINE
66
1
8
16_copper
10
0.0
20
0.0
30
0.0
70
1
0
VERTEX
8
0
10
5.344159375
20
46.268693750000004
30
0
0
VERTEX
8
0
10
5.344159375
20
46.85786875
30
0
0
VERTEX
8
0
10
4.927546875
20
47.27448125
30
0
0
VERTEX
8
0
10
4.338371875
20
47.27448125
30
0
0
VERTEX
8
0
10
3.921759375
20
46.85786875
30
0
0
VERTEX
8
0
10
3.921759375
20
46.268693750000004
30
0
0
VERTEX
8
0
10
4.338371875
20
45.852081250000005
30
0
0
VERTEX
8
0
10
4.927546875
20
45.852081250000005
30
0
0
SEQEND
0
POLYLINE
66
1
8
16_copper
10
0.0
20
0.0
30
0.0
70
1
0
VERTEX
8
0
10
7.884159375
20
46.268693750000004
30
0
0
VERTEX
8
0
10
7.884159375
20
46.85786875
30
0
0
VERTEX
8
0
10
7.467546875
20
47.27448125
30
0
0
VERTEX
8
0
10
6.878371875
20
47.27448125
30
0
0
VERTEX
8
0
10
6.461759375000001
20
46.85786875
30
0
0
VERTEX
8
0
10
6.461759375000001
20
46.268693750000004
30
0
0
VERTEX
8
0
10
6.878371875
20
45.852081250000005
30
0
0
VERTEX
8
0
10
7.467546875
20
45.852081250000005
30
0
0
SEQEND
0
POLYLINE
66
1
8
16_copper
10
0.0
20
0.0
30
0.0
70
1
0
VERTEX
8
0
10
10.424159375
20
46.268693750000004
30
0
0
VERTEX
8
0
10
10.424159375
20
46.85786875
30
0
0
VERTEX
8
0
10
10.007546875000001
20
47.27448125
30
0
0
VERTEX
8
0
10
9.418371875
20
47.27448125
30
0
0
VERTEX
8
0
10
9.001759375
20
46.85786875
30
0
0
VERTEX
8
0
10
9.001759375
20
46.268693750000004
30
0
0
VERTEX
8
0
10
9.418371875
20
45.852081250000005
30
0
0
VERTEX
8
0
10
10.007546875000001
20
45.852081250000005
30
0
0
SEQEND
0
POLYLINE
66
1
8
16_copper
10
0.0
20
0.0
30
0.0
70
1
0
VERTEX
8
0
10
0.26415937500000003
20
46.268693750000004
30
0
0
VERTEX
8
0
10
0.26415937500000003
20
46.85786875
30
0
0
VERTEX
8
0
10
-0.152453125
20
47.27448125
30
0
0
VERTEX
8
0
10
-0.7416281250000001
20
47.27448125
30
0
0
VERTEX
8
0
10
-1.1582406250000001
20
46.85786875
30
0
0
VERTEX
8
0
10
-1.1582406250000001
20
46.268693750000004
30
0
0
VERTEX
8
0
10
-0.7416281250000001
20
45.852081250000005
30
0
0
VERTEX
8
0
10
-0.152453125
20
45.852081250000005
30
0
0
SEQEND
0
POLYLINE
66
1
8
16_copper
10
0.0
20
0.0
30
0.0
70
1
0
VERTEX
8
0
10
12.964159375000001
20
46.268693750000004
30
0
0
VERTEX
8
0
10
12.964159375000001
20
46.85786875
30
0
0
VERTEX
8
0
10
12.547546875
20
47.27448125
30
0
0
VERTEX
8
0
10
11.958371875000001
20
47.27448125
30
0
0
VERTEX
8
0
10
11.541759375
20
46.85786875
30
0
0
VERTEX
8
0
10
11.541759375
20
46.268693750000004
30
0
0
VERTEX
8
0
10
11.958371875000001
20
45.852081250000005
30
0
0
VERTEX
8
0
10
12.547546875
20
45.852081250000005
30
0
0
SEQEND
0
POLYLINE
66
1
8
16_copper
10
0.0
20
0.0
30
0.0
70
1
0
VERTEX
8
0
10
-22.595840625
20
46.268693750000004
30
0
0
VERTEX
8
0
10
-22.595840625
20
46.85786875
30
0
0
VERTEX
8
0
10
-23.012453125
20
47.27448125
30
0
0
VERTEX
8
0
10
-23.601628125
20
47.27448125
30
0
0
VERTEX
8
0
10
-24.018240625
20
46.85786875
30
0
0
VERTEX
8
0
10
-24.018240625
20
46.268693750000004
30
0
0
VERTEX
8
0
10
-23.601628125
20
45.852081250000005
30
0
0
VERTEX
8
0
10
-23.012453125
20
45.852081250000005
30
0
0
SEQEND
0
POLYLINE
66
1
8
16_copper
10
0.0
20
0.0
30
0.0
70
1
0
VERTEX
8
0
10
15.504159375
20
46.268693750000004
30
0
0
VERTEX
8
0
10
15.504159375
20
46.85786875
30
0
0
VERTEX
8
0
10
15.087546875000001
20
47.27448125
30
0
0
VERTEX
8
0
10
14.498371875
20
47.27448125
30
0
0
VERTEX
8
0
10
14.081759375
20
46.85786875
30
0
0
VERTEX
8
0
10
14.081759375
20
46.268693750000004
30
0
0
VERTEX
8
0
10
14.498371875
20
45.852081250000005
30
0
0
VERTEX
8
0
10
15.087546875000001
20
45.852081250000005
30
0
0
SEQEND
0
POLYLINE
66
1
8
16_copper
10
0.0
20
0.0
30
0.0
70
1
0
VERTEX
8
0
10
-20.055840625000002
20
46.268693750000004
30
0
0
VERTEX
8
0
10
-20.055840625000002
20
46.85786875
30
0
0
VERTEX
8
0
10
-20.472453125
20
47.27448125
30
0
0
VERTEX
8
0
10
-21.061628125000002
20
47.27448125
30
0
0
VERTEX
8
0
10
-21.478240625
20
46.85786875
30
0
0
VERTEX
8
0
10
-21.478240625
20
46.268693750000004
30
0
0
VERTEX
8
0
10
-21.061628125000002
20
45.852081250000005
30
0
0
VERTEX
8
0
10
-20.472453125
20
45.852081250000005
30
0
0
SEQEND
0
POLYLINE
66
1
8
16_copper
10
0.0
20
0.0
30
0.0
70
1
0
VERTEX
8
0
10
18.044159375
20
46.268693750000004
30
0
0
VERTEX
8
0
10
18.044159375
20
46.85786875
30
0
0
VERTEX
8
0
10
17.627546875
20
47.27448125
30
0
0
VERTEX
8
0
10
17.038371875
20
47.27448125
30
0
0
VERTEX
8
0
10
16.621759375
20
46.85786875
30
0
0
VERTEX
8
0
10
16.621759375
20
46.268693750000004
30
0
0
VERTEX
8
0
10
17.038371875
20
45.852081250000005
30
0
0
VERTEX
8
0
10
17.627546875
20
45.852081250000005
30
0
0
SEQEND
0
POLYLINE
66
1
8
16_copper
10
0.0
20
0.0
30
0.0
70
1
0
VERTEX
8
0
10
-17.515840625
20
46.268693750000004
30
0
0
VERTEX
8
0
10
-17.515840625
20
46.85786875
30
0
0
VERTEX
8
0
10
-17.932453125000002
20
47.27448125
30
0
0
VERTEX
8
0
10
-18.521628125
20
47.27448125
30
0
0
VERTEX
8
0
10
-18.938240625000002
20
46.85786875
30
0
0
VERTEX
8
0
10
-18.938240625000002
20
46.268693750000004
30
0
0
VERTEX
8
0
10
-18.521628125
20
45.852081250000005
30
0
0
VERTEX
8
0
10
-17.932453125000002
20
45.852081250000005
30
0
0
SEQEND
0
POLYLINE
66
1
8
16_copper
10
0.0
20
0.0
30
0.0
70
1
0
VERTEX
8
0
10
20.584159375000002
20
46.268693750000004
30
0
0
VERTEX
8
0
10
20.584159375000002
20
46.85786875
30
0
0
VERTEX
8
0
10
20.167546875
20
47.27448125
30
0
0
VERTEX
8
0
10
19.578371875000002
20
47.27448125
30
0
0
VERTEX
8
0
10
19.161759375000003
20
46.85786875
30
0
0
VERTEX
8
0
10
19.161759375000003
20
46.268693750000004
30
0
0
VERTEX
8
0
10
19.578371875000002
20
45.852081250000005
30
0
0
VERTEX
8
0
10
20.167546875
20
45.852081250000005
30
0
0
SEQEND
0
POLYLINE
66
1
8
16_copper
10
0.0
20
0.0
30
0.0
70
1
0
VERTEX
8
0
10
-12.435840625
20
46.268693750000004
30
0
0
VERTEX
8
0
10
-12.435840625
20
46.85786875
30
0
0
VERTEX
8
0
10
-12.852453125
20
47.27448125
30
0
0
VERTEX
8
0
10
-13.441628125000001
20
47.27448125
30
0
0
VERTEX
8
0
10
-13.858240625
20
46.85786875
30
0
0
VERTEX
8
0
10
-13.858240625
20
46.268693750000004
30
0
0
VERTEX
8
0
10
-13.441628125000001
20
45.852081250000005
30
0
0
VERTEX
8
0
10
-12.852453125
20
45.852081250000005
30
0
0
SEQEND
0
POLYLINE
66
1
8
16_copper
10
0.0
20
0.0
30
0.0
70
1
0
VERTEX
8
0
10
15.438303125000001
20
31.20361875
30
0
0
VERTEX
8
0
10
15.511734375000001
20
31.218225
30
0
0
VERTEX
8
0
10
15.583378125000001
20
31.239959375
30
0
0
VERTEX
8
0
10
15.652550000000002
20
31.268609375
30
0
0
VERTEX
8
0
10
15.718578125
20
31.303903125
30
0
0
VERTEX
8
0
10
15.780828125000001
20
31.3455
30
0
0
VERTEX
8
0
10
15.838703125
20
31.392996875
30
0
0
VERTEX
8
0
10
15.89164375
20
31.445937500000003
30
0
0
VERTEX
8
0
10
15.939140625
20
31.503812500000002
30
0
0
VERTEX
8
0
10
15.9807375
20
31.5660625
30
0
0
VERTEX
8
0
10
16.01603125
20
31.632090625
30
0
0
VERTEX
8
0
10
16.04468125
20
31.701262500000002
30
0
0
VERTEX
8
0
10
16.066415625
20
31.772906250000002
30
0
0
VERTEX
8
0
10
16.081021875
20
31.8463375
30
0
0
VERTEX
8
0
10
16.088359375
20
31.920846875000002
30
0
0
VERTEX
8
0
10
16.088359375
20
33.519715625
30
0
0
VERTEX
8
0
10
16.081021875
20
33.594225
30
0
0
VERTEX
8
0
10
16.066415625
20
33.66765625
30
0
0
VERTEX
8
0
10
16.04468125
20
33.7393
30
0
0
VERTEX
8
0
10
16.01603125
20
33.808471875
30
0
0
VERTEX
8
0
10
15.9807375
20
33.874500000000005
30
0
0
VERTEX
8
0
10
15.939140625
20
33.93675
30
0
0
VERTEX
8
0
10
15.89164375
20
33.994625
30
0
0
VERTEX
8
0
10
15.838703125
20
34.047565625000004
30
0
0
VERTEX
8
0
10
15.780828125000001
20
34.095062500000004
30
0
0
VERTEX
8
0
10
15.718578125
20
34.136659375
30
0
0
VERTEX
8
0
10
15.652550000000002
20
34.171953125
30
0
0
VERTEX
8
0
10
15.583378125000001
20
34.200603125
30
0
0
VERTEX
8
0
10
15.511734375000001
20
34.2223375
30
0
0
VERTEX
8
0
10
15.438303125000001
20
34.23694375
30
0
0
VERTEX
8
0
10
15.363793750000001
20
34.24428125
30
0
0
VERTEX
8
0
10
15.288925
20
34.24428125
30
0
0
VERTEX
8
0
10
15.214415625
20
34.23694375
30
0
0
VERTEX
8
0
10
15.140984375
20
34.2223375
30
0
0
VERTEX
8
0
10
15.069340625
20
34.200603125
30
0
0
VERTEX
8
0
10
15.00016875
20
34.171953125
30
0
0
VERTEX
8
0
10
14.934140625000001
20
34.136659375
30
0
0
VERTEX
8
0
10
14.871890625
20
34.095062500000004
30
0
0
VERTEX
8
0
10
14.814015625000001
20
34.047565625000004
30
0
0
VERTEX
8
0
10
14.761075
20
33.994625
30
0
0
VERTEX
8
0
10
14.713578125000002
20
33.93675
30
0
0
VERTEX
8
0
10
14.67198125
20
33.874500000000005
30
0
0
VERTEX
8
0
10
14.6366875
20
33.808471875
30
0
0
VERTEX
8
0
10
14.6080375
20
33.7393
30
0
0
VERTEX
8
0
10
14.586303125
20
33.66765625
30
0
0
VERTEX
8
0
10
14.571696875
20
33.594225
30
0
0
VERTEX
8
0
10
14.564359375
20
33.519715625
30
0
0
VERTEX
8
0
10
14.564359375
20
31.920846875000002
30
0
0
VERTEX
8
0
10
14.571696875
20
31.8463375
30
0
0
VERTEX
8
0
10
14.586303125
20
31.772906250000002
30
0
0
VERTEX
8
0
10
14.6080375
20
31.701262500000002
30
0
0
VERTEX
8
0
10
14.6366875
20
31.632090625
30
0
0
VERTEX
8
0
10
14.67198125
20
31.5660625
30
0
0
VERTEX
8
0
10
14.713578125000002
20
31.503812500000002
30
0
0
VERTEX
8
0
10
14.761075
20
31.445937500000003
30
0
0
VERTEX
8
0
10
14.814015625000001
20
31.392996875
30
0
0
VERTEX
8
0
10
14.871890625
20
31.3455
30
0
0
VERTEX
8
0
10
14.934140625000001
20
31.303903125
30
0
0
VERTEX
8
0
10
15.00016875
20
31.268609375
30
0
0
VERTEX
8
0
10
15.069340625
20
31.239959375
30
0
0
VERTEX
8
0
10
15.140984375
20
31.218225
30
0
0
VERTEX
8
0
10
15.214415625
20
31.20361875
30
0
0
VERTEX
8
0
10
15.288925
20
31.196281250000002
30
0
0
VERTEX
8
0
10
15.363793750000001
20
31.196281250000002
30
0
0
SEQEND
0
POLYLINE
66
1
8
16_copper
10
0.0
20
0.0
30
0.0
70
1
0
VERTEX
8
0
10
-11.780021875000001
20
31.278840625
30
0
0
VERTEX
8
0
10
-11.716384375
20
31.291500000000003
30
0
0
VERTEX
8
0
10
-11.654290625
20
31.310334375
30
0
0
VERTEX
8
0
10
-11.59434375
20
31.335165625000002
30
0
0
VERTEX
8
0
10
-11.537118750000001
20
31.365753125
30
0
0
VERTEX
8
0
10
-11.483165625
20
31.401803125
30
0
0
VERTEX
8
0
10
-11.433009375000001
20
31.442965625000003
30
0
0
VERTEX
8
0
10
-11.387125000000001
20
31.488850000000003
30
0
0
VERTEX
8
0
10
-11.3459625
20
31.53900625
30
0
0
VERTEX
8
0
10
-11.309912500000001
20
31.592959375000003
30
0
0
VERTEX
8
0
10
-11.279325
20
31.650184375000002
30
0
0
VERTEX
8
0
10
-11.25449375
20
31.71013125
30
0
0
VERTEX
8
0
10
-11.235659375000001
20
31.772225000000002
30
0
0
VERTEX
8
0
10
-11.223
20
31.8358625
30
0
0
VERTEX
8
0
10
-11.216640625
20
31.900437500000002
30
0
0
VERTEX
8
0
10
-11.216640625
20
33.286125
30
0
0
VERTEX
8
0
10
-11.223
20
33.3507
30
0
0
VERTEX
8
0
10
-11.235659375000001
20
33.4143375
30
0
0
VERTEX
8
0
10
-11.25449375
20
33.476431250000005
30
0
0
VERTEX
8
0
10
-11.279325
20
33.536378125
30
0
0
VERTEX
8
0
10
-11.309912500000001
20
33.593603125
30
0
0
VERTEX
8
0
10
-11.3459625
20
33.64755625
30
0
0
VERTEX
8
0
10
-11.387125000000001
20
33.6977125
30
0
0
VERTEX
8
0
10
-11.433009375000001
20
33.743596875
30
0
0
VERTEX
8
0
10
-11.483165625
20
33.784759375
30
0
0
VERTEX
8
0
10
-11.537118750000001
20
33.820809375
30
0
0
VERTEX
8
0
10
-11.59434375
20
33.851396875
30
0
0
VERTEX
8
0
10
-11.654290625
20
33.876228125000004
30
0
0
VERTEX
8
0
10
-11.716384375
20
33.8950625
30
0
0
VERTEX
8
0
10
-11.780021875000001
20
33.907721875
30
0
0
VERTEX
8
0
10
-11.844596875
20
33.91408125
30
0
0
VERTEX
8
0
10
-11.909484375
20
33.91408125
30
0
0
VERTEX
8
0
10
-11.974059375000001
20
33.907721875
30
0
0
VERTEX
8
0
10
-12.037696875
20
33.8950625
30
0
0
VERTEX
8
0
10
-12.099790625
20
33.876228125000004
30
0
0
VERTEX
8
0
10
-12.1597375
20
33.851396875
30
0
0
VERTEX
8
0
10
-12.216962500000001
20
33.820809375
30
0
0
VERTEX
8
0
10
-12.270915625
20
33.784759375
30
0
0
VERTEX
8
0
10
-12.321071875000001
20
33.743596875
30
0
0
VERTEX
8
0
10
-12.366956250000001
20
33.6977125
30
0
0
VERTEX
8
0
10
-12.40811875
20
33.64755625
30
0
0
VERTEX
8
0
10
-12.444168750000001
20
33.593603125
30
0
0
VERTEX
8
0
10
-12.47475625
20
33.536378125
30
0
0
VERTEX
8
0
10
-12.4995875
20
33.476431250000005
30
0
0
VERTEX
8
0
10
-12.518421875000001
20
33.4143375
30
0
0
VERTEX
8
0
10
-12.53108125
20
33.3507
30
0
0
VERTEX
8
0
10
-12.537440625
20
33.286125
30
0
0
VERTEX
8
0
10
-12.537440625
20
31.900437500000002
30
0
0
VERTEX
8
0
10
-12.53108125
20
31.8358625
30
0
0
VERTEX
8
0
10
-12.518421875000001
20
31.772225000000002
30
0
0
VERTEX
8
0
10
-12.4995875
20
31.71013125
30
0
0
VERTEX
8
0
10
-12.47475625
20
31.650184375000002
30
0
0
VERTEX
8
0
10
-12.444168750000001
20
31.592959375000003
30
0
0
VERTEX
8
0
10
-12.40811875
20
31.53900625
30
0
0
VERTEX
8
0
10
-12.366956250000001
20
31.488850000000003
30
0
0
VERTEX
8
0
10
-12.321071875000001
20
31.442965625000003
30
0
0
VERTEX
8
0
10
-12.270915625
20
31.401803125
30
0
0
VERTEX
8
0
10
-12.216962500000001
20
31.365753125
30
0
0
VERTEX
8
0
10
-12.1597375
20
31.335165625000002
30
0
0
VERTEX
8
0
10
-12.099790625
20
31.310334375
30
0
0
VERTEX
8
0
10
-12.037696875
20
31.291500000000003
30
0
0
VERTEX
8
0
10
-11.974059375000001
20
31.278840625
30
0
0
VERTEX
8
0
10
-11.909484375
20
31.272481250000002
30
0
0
VERTEX
8
0
10
-11.844596875
20
31.272481250000002
30
0
0
SEQEND
0
POLYLINE
66
1
8
16_copper
10
0.0
20
0.0
30
0.0
70
1
0
VERTEX
8
0
10
-16.860021875
20
31.278840625
30
0
0
VERTEX
8
0
10
-16.796384375000002
20
31.291500000000003
30
0
0
VERTEX
8
0
10
-16.734290625
20
31.310334375
30
0
0
VERTEX
8
0
10
-16.674343750000002
20
31.335165625000002
30
0
0
VERTEX
8
0
10
-16.61711875
20
31.365753125
30
0
0
VERTEX
8
0
10
-16.563165625
20
31.401803125
30
0
0
VERTEX
8
0
10
-16.513009375
20
31.442965625000003
30
0
0
VERTEX
8
0
10
-16.467125
20
31.488850000000003
30
0
0
VERTEX
8
0
10
-16.4259625
20
31.53900625
30
0
0
VERTEX
8
0
10
-16.3899125
20
31.592959375000003
30
0
0
VERTEX
8
0
10
-16.359325000000002
20
31.650184375000002
30
0
0
VERTEX
8
0
10
-16.33449375
20
31.71013125
30
0
0
VERTEX
8
0
10
-16.315659375
20
31.772225000000002
30
0
0
VERTEX
8
0
10
-16.303
20
31.8358625
30
0
0
VERTEX
8
0
10
-16.296640625000002
20
31.900437500000002
30
0
0
VERTEX
8
0
10
-16.296640625000002
20
33.286125
30
0
0
VERTEX
8
0
10
-16.303
20
33.3507
30
0
0
VERTEX
8
0
10
-16.315659375
20
33.4143375
30
0
0
VERTEX
8
0
10
-16.33449375
20
33.476431250000005
30
0
0
VERTEX
8
0
10
-16.359325000000002
20
33.536378125
30
0
0
VERTEX
8
0
10
-16.3899125
20
33.593603125
30
0
0
VERTEX
8
0
10
-16.4259625
20
33.64755625
30
0
0
VERTEX
8
0
10
-16.467125
20
33.6977125
30
0
0
VERTEX
8
0
10
-16.513009375
20
33.743596875
30
0
0
VERTEX
8
0
10
-16.563165625
20
33.784759375
30
0
0
VERTEX
8
0
10
-16.61711875
20
33.820809375
30
0
0
VERTEX
8
0
10
-16.674343750000002
20
33.851396875
30
0
0
VERTEX
8
0
10
-16.734290625
20
33.876228125000004
30
0
0
VERTEX
8
0
10
-16.796384375000002
20
33.8950625
30
0
0
VERTEX
8
0
10
-16.860021875
20
33.907721875
30
0
0
VERTEX
8
0
10
-16.924596875000002
20
33.91408125
30
0
0
VERTEX
8
0
10
-16.989484375
20
33.91408125
30
0
0
VERTEX
8
0
10
-17.054059375
20
33.907721875
30
0
0
VERTEX
8
0
10
-17.117696875
20
33.8950625
30
0
0
VERTEX
8
0
10
-17.179790625000003
20
33.876228125000004
30
0
0
VERTEX
8
0
10
-17.2397375
20
33.851396875
30
0
0
VERTEX
8
0
10
-17.2969625
20
33.820809375
30
0
0
VERTEX
8
0
10
-17.350915625000003
20
33.784759375
30
0
0
VERTEX
8
0
10
-17.401071875
20
33.743596875
30
0
0
VERTEX
8
0
10
-17.44695625
20
33.6977125
30
0
0
VERTEX
8
0
10
-17.48811875
20
33.64755625
30
0
0
VERTEX
8
0
10
-17.52416875
20
33.593603125
30
0
0
VERTEX
8
0
10
-17.55475625
20
33.536378125
30
0
0
VERTEX
8
0
10
-17.579587500000002
20
33.476431250000005
30
0
0
VERTEX
8
0
10
-17.598421875
20
33.4143375
30
0
0
VERTEX
8
0
10
-17.61108125
20
33.3507
30
0
0
VERTEX
8
0
10
-17.617440625
20
33.286125
30
0
0
VERTEX
8
0
10
-17.617440625
20
31.900437500000002
30
0
0
VERTEX
8
0
10
-17.61108125
20
31.8358625
30
0
0
VERTEX
8
0
10
-17.598421875
20
31.772225000000002
30
0
0
VERTEX
8
0
10
-17.579587500000002
20
31.71013125
30
0
0
VERTEX
8
0
10
-17.55475625
20
31.650184375000002
30
0
0
VERTEX
8
0
10
-17.52416875
20
31.592959375000003
30
0
0
VERTEX
8
0
10
-17.48811875
20
31.53900625
30
0
0
VERTEX
8
0
10
-17.44695625
20
31.488850000000003
30
0
0
VERTEX
8
0
10
-17.401071875
20
31.442965625000003
30
0
0
VERTEX
8
0
10
-17.350915625000003
20
31.401803125
30
0
0
VERTEX
8
0
10
-17.2969625
20
31.365753125
30
0
0
VERTEX
8
0
10
-17.2397375
20
31.335165625000002
30
0
0
VERTEX
8
0
10
-17.179790625000003
20
31.310334375
30
0
0
VERTEX
8
0
10
-17.117696875
20
31.291500000000003
30
0
0
VERTEX
8
0
10
-17.054059375
20
31.278840625
30
0
0
VERTEX
8
0
10
-16.989484375
20
31.272481250000002
30
0
0
VERTEX
8
0
10
-16.924596875000002
20
31.272481250000002
30
0
0
SEQEND
0
POLYLINE
66
1
8
16_copper
10
0.0
20
0.0
30
0.0
70
1
0
VERTEX
8
0
10
-14.320021875
20
31.278840625
30
0
0
VERTEX
8
0
10
-14.256384375000001
20
31.291500000000003
30
0
0
VERTEX
8
0
10
-14.194290625
20
31.310334375
30
0
0
VERTEX
8
0
10
-14.134343750000001
20
31.335165625000002
30
0
0
VERTEX
8
0
10
-14.07711875
20
31.365753125
30
0
0
VERTEX
8
0
10
-14.023165625
20
31.401803125
30
0
0
VERTEX
8
0
10
-13.973009375
20
31.442965625000003
30
0
0
VERTEX
8
0
10
-13.927125
20
31.488850000000003
30
0
0
VERTEX
8
0
10
-13.885962500000002
20
31.53900625
30
0
0
VERTEX
8
0
10
-13.8499125
20
31.592959375000003
30
0
0
VERTEX
8
0
10
-13.819325000000001
20
31.650184375000002
30
0
0
VERTEX
8
0
10
-13.79449375
20
31.71013125
30
0
0
VERTEX
8
0
10
-13.775659375
20
31.772225000000002
30
0
0
VERTEX
8
0
10
-13.763
20
31.8358625
30
0
0
VERTEX
8
0
10
-13.756640625000001
20
31.900437500000002
30
0
0
VERTEX
8
0
10
-13.756640625000001
20
33.286125
30
0
0
VERTEX
8
0
10
-13.763
20
33.3507
30
0
0
VERTEX
8
0
10
-13.775659375
20
33.4143375
30
0
0
VERTEX
8
0
10
-13.79449375
20
33.476431250000005
30
0
0
VERTEX
8
0
10
-13.819325000000001
20
33.536378125
30
0
0
VERTEX
8
0
10
-13.8499125
20
33.593603125
30
0
0
VERTEX
8
0
10
-13.885962500000002
20
33.64755625
30
0
0
VERTEX
8
0
10
-13.927125
20
33.6977125
30
0
0
VERTEX
8
0
10
-13.973009375
20
33.743596875
30
0
0
VERTEX
8
0
10
-14.023165625
20
33.784759375
30
0
0
VERTEX
8
0
10
-14.07711875
20
33.820809375
30
0
0
VERTEX
8
0
10
-14.134343750000001
20
33.851396875
30
0
0
VERTEX
8
0
10
-14.194290625
20
33.876228125000004
30
0
0
VERTEX
8
0
10
-14.256384375000001
20
33.8950625
30
0
0
VERTEX
8
0
10
-14.320021875
20
33.907721875
30
0
0
VERTEX
8
0
10
-14.384596875000002
20
33.91408125
30
0
0
VERTEX
8
0
10
-14.449484375
20
33.91408125
30
0
0
VERTEX
8
0
10
-14.514059375
20
33.907721875
30
0
0
VERTEX
8
0
10
-14.577696875
20
33.8950625
30
0
0
VERTEX
8
0
10
-14.639790625
20
33.876228125000004
30
0
0
VERTEX
8
0
10
-14.699737500000001
20
33.851396875
30
0
0
VERTEX
8
0
10
-14.7569625
20
33.820809375
30
0
0
VERTEX
8
0
10
-14.810915625000002
20
33.784759375
30
0
0
VERTEX
8
0
10
-14.861071875
20
33.743596875
30
0
0
VERTEX
8
0
10
-14.90695625
20
33.6977125
30
0
0
VERTEX
8
0
10
-14.94811875
20
33.64755625
30
0
0
VERTEX
8
0
10
-14.98416875
20
33.593603125
30
0
0
VERTEX
8
0
10
-15.014756250000001
20
33.536378125
30
0
0
VERTEX
8
0
10
-15.039587500000001
20
33.476431250000005
30
0
0
VERTEX
8
0
10
-15.058421875
20
33.4143375
30
0
0
VERTEX
8
0
10
-15.07108125
20
33.3507
30
0
0
VERTEX
8
0
10
-15.077440625000001
20
33.286125
30
0
0
VERTEX
8
0
10
-15.077440625000001
20
31.900437500000002
30
0
0
VERTEX
8
0
10
-15.07108125
20
31.8358625
30
0
0
VERTEX
8
0
10
-15.058421875
20
31.772225000000002
30
0
0
VERTEX
8
0
10
-15.039587500000001
20
31.71013125
30
0
0
VERTEX
8
0
10
-15.014756250000001
20
31.650184375000002
30
0
0
VERTEX
8
0
10
-14.98416875
20
31.592959375000003
30
0
0
VERTEX
8
0
10
-14.94811875
20
31.53900625
30
0
0
VERTEX
8
0
10
-14.90695625
20
31.488850000000003
30
0
0
VERTEX
8
0
10
-14.861071875
20
31.442965625000003
30
0
0
VERTEX
8
0
10
-14.810915625000002
20
31.401803125
30
0
0
VERTEX
8
0
10
-14.7569625
20
31.365753125
30
0
0
VERTEX
8
0
10
-14.699737500000001
20
31.335165625000002
30
0
0
VERTEX
8
0
10
-14.639790625
20
31.310334375
30
0
0
VERTEX
8
0
10
-14.577696875
20
31.291500000000003
30
0
0
VERTEX
8
0
10
-14.514059375
20
31.278840625
30
0
0
VERTEX
8
0
10
-14.449484375
20
31.272481250000002
30
0
0
VERTEX
8
0
10
-14.384596875000002
20
31.272481250000002
30
0
0
SEQEND
0
POLYLINE
66
1
8
16_copper
10
0.0
20
0.0
30
0.0
70
1
0
VERTEX
8
0
10
-19.400021875
20
31.278840625
30
0
0
VERTEX
8
0
10
-19.336384375
20
31.291500000000003
30
0
0
VERTEX
8
0
10
-19.274290625000003
20
31.310334375
30
0
0
VERTEX
8
0
10
-19.21434375
20
31.335165625000002
30
0
0
VERTEX
8
0
10
-19.157118750000002
20
31.365753125
30
0
0
VERTEX
8
0
10
-19.103165625000003
20
31.401803125
30
0
0
VERTEX
8
0
10
-19.053009375000002
20
31.442965625000003
30
0
0
VERTEX
8
0
10
-19.007125000000002
20
31.488850000000003
30
0
0
VERTEX
8
0
10
-18.9659625
20
31.53900625
30
0
0
VERTEX
8
0
10
-18.9299125
20
31.592959375000003
30
0
0
VERTEX
8
0
10
-18.899325
20
31.650184375000002
30
0
0
VERTEX
8
0
10
-18.87449375
20
31.71013125
30
0
0
VERTEX
8
0
10
-18.855659375000002
20
31.772225000000002
30
0
0
VERTEX
8
0
10
-18.843
20
31.8358625
30
0
0
VERTEX
8
0
10
-18.836640625
20
31.900437500000002
30
0
0
VERTEX
8
0
10
-18.836640625
20
33.286125
30
0
0
VERTEX
8
0
10
-18.843
20
33.3507
30
0
0
VERTEX
8
0
10
-18.855659375000002
20
33.4143375
30
0
0
VERTEX
8
0
10
-18.87449375
20
33.476431250000005
30
0
0
VERTEX
8
0
10
-18.899325
20
33.536378125
30
0
0
VERTEX
8
0
10
-18.9299125
20
33.593603125
30
0
0
VERTEX
8
0
10
-18.9659625
20
33.64755625
30
0
0
VERTEX
8
0
10
-19.007125000000002
20
33.6977125
30
0
0
VERTEX
8
0
10
-19.053009375000002
20
33.743596875
30
0
0
VERTEX
8
0
10
-19.103165625000003
20
33.784759375
30
0
0
VERTEX
8
0
10
-19.157118750000002
20
33.820809375
30
0
0
VERTEX
8
0
10
-19.21434375
20
33.851396875
30
0
0
VERTEX
8
0
10
-19.274290625000003
20
33.876228125000004
30
0
0
VERTEX
8
0
10
-19.336384375
20
33.8950625
30
0
0
VERTEX
8
0
10
-19.400021875
20
33.907721875
30
0
0
VERTEX
8
0
10
-19.464596875
20
33.91408125
30
0
0
VERTEX
8
0
10
-19.529484375000003
20
33.91408125
30
0
0
VERTEX
8
0
10
-19.594059375
20
33.907721875
30
0
0
VERTEX
8
0
10
-19.657696875
20
33.8950625
30
0
0
VERTEX
8
0
10
-19.719790625
20
33.876228125000004
30
0
0
VERTEX
8
0
10
-19.7797375
20
33.851396875
30
0
0
VERTEX
8
0
10
-19.836962500000002
20
33.820809375
30
0
0
VERTEX
8
0
10
-19.890915625
20
33.784759375
30
0
0
VERTEX
8
0
10
-19.941071875000002
20
33.743596875
30
0
0
VERTEX
8
0
10
-19.986956250000002
20
33.6977125
30
0
0
VERTEX
8
0
10
-20.02811875
20
33.64755625
30
0
0
VERTEX
8
0
10
-20.06416875
20
33.593603125
30
0
0
VERTEX
8
0
10
-20.09475625
20
33.536378125
30
0
0
VERTEX
8
0
10
-20.1195875
20
33.476431250000005
30
0
0
VERTEX
8
0
10
-20.138421875000002
20
33.4143375
30
0
0
VERTEX
8
0
10
-20.15108125
20
33.3507
30
0
0
VERTEX
8
0
10
-20.157440625
20
33.286125
30
0
0
VERTEX
8
0
10
-20.157440625
20
31.900437500000002
30
0
0
VERTEX
8
0
10
-20.15108125
20
31.8358625
30
0
0
VERTEX
8
0
10
-20.138421875000002
20
31.772225000000002
30
0
0
VERTEX
8
0
10
-20.1195875
20
31.71013125
30
0
0
VERTEX
8
0
10
-20.09475625
20
31.650184375000002
30
0
0
VERTEX
8
0
10
-20.06416875
20
31.592959375000003
30
0
0
VERTEX
8
0
10
-20.02811875
20
31.53900625
30
0
0
VERTEX
8
0
10
-19.986956250000002
20
31.488850000000003
30
0
0
VERTEX
8
0
10
-19.941071875000002
20
31.442965625000003
30
0
0
VERTEX
8
0
10
-19.890915625
20
31.401803125
30
0
0
VERTEX
8
0
10
-19.836962500000002
20
31.365753125
30
0
0
VERTEX
8
0
10
-19.7797375
20
31.335165625000002
30
0
0
VERTEX
8
0
10
-19.719790625
20
31.310334375
30
0
0
VERTEX
8
0
10
-19.657696875
20
31.291500000000003
30
0
0
VERTEX
8
0
10
-19.594059375
20
31.278840625
30
0
0
VERTEX
8
0
10
-19.529484375000003
20
31.272481250000002
30
0
0
VERTEX
8
0
10
-19.464596875
20
31.272481250000002
30
0
0
SEQEND
0
POLYLINE
66
1
8
1_copper
10
0.0
20
0.0
30
0.0
70
1
0
VERTEX
8
0
10
10.368165625000001
20
30.277868750000003
30
0
0
VERTEX
8
0
10
10.373359375
20
30.297250000000002
30
0
0
VERTEX
8
0
10
10.373359375
20
31.206612500000002
30
0
0
VERTEX
8
0
10
10.431734375000001
20
31.218225
30
0
0
VERTEX
8
0
10
10.503378125000001
20
31.239959375
30
0
0
VERTEX
8
0
10
10.57255
20
31.268609375
30
0
0
VERTEX
8
0
10
10.638578125
20
31.303903125
30
0
0
VERTEX
8
0
10
10.700828125000001
20
31.3455
30
0
0
VERTEX
8
0
10
10.758703125
20
31.392996875
30
0
0
VERTEX
8
0
10
10.81164375
20
31.445937500000003
30
0
0
VERTEX
8
0
10
10.859140625
20
31.503812500000002
30
0
0
VERTEX
8
0
10
10.9007375
20
31.5660625
30
0
0
VERTEX
8
0
10
10.936031250000001
20
31.632090625
30
0
0
VERTEX
8
0
10
10.96468125
20
31.701262500000002
30
0
0
VERTEX
8
0
10
10.986415625000001
20
31.772906250000002
30
0
0
VERTEX
8
0
10
11.001021875000001
20
31.8463375
30
0
0
VERTEX
8
0
10
11.008359375000001
20
31.920846875000002
30
0
0
VERTEX
8
0
10
11.008359375000001
20
33.519715625
30
0
0
VERTEX
8
0
10
11.001021875000001
20
33.594225
30
0
0
VERTEX
8
0
10
10.986415625000001
20
33.66765625
30
0
0
VERTEX
8
0
10
10.96468125
20
33.7393
30
0
0
VERTEX
8
0
10
10.936031250000001
20
33.808471875
30
0
0
VERTEX
8
0
10
10.9007375
20
33.874500000000005
30
0
0
VERTEX
8
0
10
10.859140625
20
33.93675
30
0
0
VERTEX
8
0
10
10.81164375
20
33.994625
30
0
0
VERTEX
8
0
10
10.758703125
20
34.047565625000004
30
0
0
VERTEX
8
0
10
10.700828125000001
20
34.095062500000004
30
0
0
VERTEX
8
0
10
10.638578125
20
34.136659375
30
0
0
VERTEX
8
0
10
10.57255
20
34.171953125
30
0
0
VERTEX
8
0
10
10.503378125000001
20
34.200603125
30
0
0
VERTEX
8
0
10
10.431734375000001
20
34.2223375
30
0
0
VERTEX
8
0
10
10.358303125
20
34.23694375
30
0
0
VERTEX
8
0
10
10.283793750000001
20
34.24428125
30
0
0
VERTEX
8
0
10
10.208925
20
34.24428125
30
0
0
VERTEX
8
0
10
10.134415625
20
34.23694375
30
0
0
VERTEX
8
0
10
10.060984375
20
34.2223375
30
0
0
VERTEX
8
0
10
9.989340625
20
34.200603125
30
0
0
VERTEX
8
0
10
9.92016875
20
34.171953125
30
0
0
VERTEX
8
0
10
9.854140625000001
20
34.136659375
30
0
0
VERTEX
8
0
10
9.791890625
20
34.095062500000004
30
0
0
VERTEX
8
0
10
9.734015625
20
34.047565625000004
30
0
0
VERTEX
8
0
10
9.681075
20
33.994625
30
0
0
VERTEX
8
0
10
9.633578125
20
33.93675
30
0
0
VERTEX
8
0
10
9.59198125
20
33.874500000000005
30
0
0
VERTEX
8
0
10
9.5566875
20
33.808471875
30
0
0
VERTEX
8
0
10
9.5280375
20
33.7393
30
0
0
VERTEX
8
0
10
9.506303125
20
33.66765625
30
0
0
VERTEX
8
0
10
9.491696875
20
33.594225
30
0
0
VERTEX
8
0
10
9.484359375
20
33.519715625
30
0
0
VERTEX
8
0
10
9.484359375
20
31.920846875000002
30
0
0
VERTEX
8
0
10
9.491696875
20
31.8463375
30
0
0
VERTEX
8
0
10
9.506303125
20
31.772906250000002
30
0
0
VERTEX
8
0
10
9.5280375
20
31.701262500000002
30
0
0
VERTEX
8
0
10
9.5566875
20
31.632090625
30
0
0
VERTEX
8
0
10
9.59198125
20
31.5660625
30
0
0
VERTEX
8
0
10
9.633578125
20
31.503812500000002
30
0
0
VERTEX
8
0
10
9.681075
20
31.445937500000003
30
0
0
VERTEX
8
0
10
9.734015625
20
31.392996875
30
0
0
VERTEX
8
0
10
9.791890625
20
31.3455
30
0
0
VERTEX
8
0
10
9.854140625000001
20
31.303903125
30
0
0
VERTEX
8
0
10
9.92016875
20
31.268609375
30
0
0
VERTEX
8
0
10
9.989340625
20
31.239959375
30
0
0
VERTEX
8
0
10
10.060984375
20
31.218225
30
0
0
VERTEX
8
0
10
10.134415625
20
31.20361875
30
0
0
VERTEX
8
0
10
10.208925
20
31.196281250000002
30
0
0
VERTEX
8
0
10
10.220959375
20
31.196281250000002
30
0
0
VERTEX
8
0
10
10.220959375
20
30.338843750000002
30
0
0
VERTEX
8
0
10
9.351196875000001
20
29.469081250000002
30
0
0
VERTEX
8
0
10
-2.142678125
20
29.469081250000002
30
0
0
VERTEX
8
0
10
-3.012440625
20
30.338843750000002
30
0
0
VERTEX
8
0
10
-3.012440625
20
30.971500000000002
30
0
0
VERTEX
8
0
10
-2.976696875
20
30.97501875
30
0
0
VERTEX
8
0
10
-2.903265625
20
30.989625
30
0
0
VERTEX
8
0
10
-2.831621875
20
31.011359375
30
0
0
VERTEX
8
0
10
-2.7624500000000003
20
31.040009375
30
0
0
VERTEX
8
0
10
-2.696421875
20
31.075303125
30
0
0
VERTEX
8
0
10
-2.6341718750000003
20
31.1169
30
0
0
VERTEX
8
0
10
-2.576296875
20
31.164396875
30
0
0
VERTEX
8
0
10
-2.52335625
20
31.217337500000003
30
0
0
VERTEX
8
0
10
-2.475859375
20
31.275212500000002
30
0
0
VERTEX
8
0
10
-2.4342625
20
31.3374625
30
0
0
VERTEX
8
0
10
-2.3989687500000003
20
31.403490625
30
0
0
VERTEX
8
0
10
-2.37031875
20
31.472662500000002
30
0
0
VERTEX
8
0
10
-2.348584375
20
31.54430625
30
0
0
VERTEX
8
0
10
-2.3339781250000002
20
31.6177375
30
0
0
VERTEX
8
0
10
-2.326640625
20
31.692246875000002
30
0
0
VERTEX
8
0
10
-2.326640625
20
33.291115625
30
0
0
VERTEX
8
0
10
-2.3339781250000002
20
33.365625
30
0
0
VERTEX
8
0
10
-2.348584375
20
33.43905625
30
0
0
VERTEX
8
0
10
-2.37031875
20
33.5107
30
0
0
VERTEX
8
0
10
-2.3989687500000003
20
33.579871875
30
0
0
VERTEX
8
0
10
-2.4342625
20
33.645900000000005
30
0
0
VERTEX
8
0
10
-2.475859375
20
33.70815
30
0
0
VERTEX
8
0
10
-2.52335625
20
33.766025
30
0
0
VERTEX
8
0
10
-2.576296875
20
33.818965625000004
30
0
0
VERTEX
8
0
10
-2.6341718750000003
20
33.866462500000004
30
0
0
VERTEX
8
0
10
-2.696421875
20
33.908059375
30
0
0
VERTEX
8
0
10
-2.7624500000000003
20
33.943353125
30
0
0
VERTEX
8
0
10
-2.831621875
20
33.972003125
30
0
0
VERTEX
8
0
10
-2.903265625
20
33.9937375
30
0
0
VERTEX
8
0
10
-2.976696875
20
34.00834375
30
0
0
VERTEX
8
0
10
-3.0512062500000003
20
34.01568125
30
0
0
VERTEX
8
0
10
-3.126075
20
34.01568125
30
0
0
VERTEX
8
0
10
-3.200584375
20
34.00834375
30
0
0
VERTEX
8
0
10
-3.274015625
20
33.9937375
30
0
0
VERTEX
8
0
10
-3.3456593750000003
20
33.972003125
30
0
0
VERTEX
8
0
10
-3.41483125
20
33.943353125
30
0
0
VERTEX
8
0
10
-3.480859375
20
33.908059375
30
0
0
VERTEX
8
0
10
-3.5431093750000002
20
33.866462500000004
30
0
0
VERTEX
8
0
10
-3.6009843750000003
20
33.818965625000004
30
0
0
VERTEX
8
0
10
-3.653925
20
33.766025
30
0
0
VERTEX
8
0
10
-3.7014218750000003
20
33.70815
30
0
0
VERTEX
8
0
10
-3.74301875
20
33.645900000000005
30
0
0
VERTEX
8
0
10
-3.7783125
20
33.579871875
30
0
0
VERTEX
8
0
10
-3.8069625
20
33.5107
30
0
0
VERTEX
8
0
10
-3.8286968750000003
20
33.43905625
30
0
0
VERTEX
8
0
10
-3.8433031250000003
20
33.365625
30
0
0
VERTEX
8
0
10
-3.850640625
20
33.291115625
30
0
0
VERTEX
8
0
10
-3.850640625
20
31.692246875000002
30
0
0
VERTEX
8
0
10
-3.8433031250000003
20
31.6177375
30
0
0
VERTEX
8
0
10
-3.8286968750000003
20
31.54430625
30
0
0
VERTEX
8
0
10
-3.8069625
20
31.472662500000002
30
0
0
VERTEX
8
0
10
-3.7783125
20
31.403490625
30
0
0
VERTEX
8
0
10
-3.74301875
20
31.3374625
30
0
0
VERTEX
8
0
10
-3.7014218750000003
20
31.275212500000002
30
0
0
VERTEX
8
0
10
-3.653925
20
31.217337500000003
30
0
0
VERTEX
8
0
10
-3.6009843750000003
20
31.164396875
30
0
0
VERTEX
8
0
10
-3.5431093750000002
20
31.1169
30
0
0
VERTEX
8
0
10
-3.480859375
20
31.075303125
30
0
0
VERTEX
8
0
10
-3.41483125
20
31.040009375
30
0
0
VERTEX
8
0
10
-3.3456593750000003
20
31.011359375
30
0
0
VERTEX
8
0
10
-3.274015625
20
30.989625
30
0
0
VERTEX
8
0
10
-3.200584375
20
30.97501875
30
0
0
VERTEX
8
0
10
-3.164840625
20
30.971500000000002
30
0
0
VERTEX
8
0
10
-3.164840625
20
30.23724375
30
0
0
VERTEX
8
0
10
-3.8568031250000003
20
29.545281250000002
30
0
0
VERTEX
8
0
10
-25.866278125
20
29.545281250000002
30
0
0
VERTEX
8
0
10
-27.034678125000003
20
30.71368125
30
0
0
VERTEX
8
0
10
-27.030665625
20
30.717693750000002
30
0
0
VERTEX
8
0
10
-27.020634375
20
30.73506875
30
0
0
VERTEX
8
0
10
-27.015440625
20
30.754450000000002
30
0
0
VERTEX
8
0
10
-27.015440625
20
31.279753125000003
30
0
0
VERTEX
8
0
10
-26.956384375000003
20
31.291500000000003
30
0
0
VERTEX
8
0
10
-26.894290625
20
31.310334375
30
0
0
VERTEX
8
0
10
-26.834343750000002
20
31.335165625000002
30
0
0
VERTEX
8
0
10
-26.77711875
20
31.365753125
30
0
0
VERTEX
8
0
10
-26.723165625
20
31.401803125
30
0
0
VERTEX
8
0
10
-26.673009375000003
20
31.442965625000003
30
0
0
VERTEX
8
0
10
-26.627125000000003
20
31.488850000000003
30
0
0
VERTEX
8
0
10
-26.5859625
20
31.53900625
30
0
0
VERTEX
8
0
10
-26.5499125
20
31.592959375000003
30
0
0
VERTEX
8
0
10
-26.519325000000002
20
31.650184375000002
30
0
0
VERTEX
8
0
10
-26.49449375
20
31.71013125
30
0
0
VERTEX
8
0
10
-26.475659375000003
20
31.772225000000002
30
0
0
VERTEX
8
0
10
-26.463
20
31.8358625
30
0
0
VERTEX
8
0
10
-26.456640625000002
20
31.900437500000002
30
0
0
VERTEX
8
0
10
-26.456640625000002
20
33.286125
30
0
0
VERTEX
8
0
10
-26.463
20
33.3507
30
0
0
VERTEX
8
0
10
-26.475659375000003
20
33.4143375
30
0
0
VERTEX
8
0
10
-26.49449375
20
33.476431250000005
30
0
0
VERTEX
8
0
10
-26.519325000000002
20
33.536378125
30
0
0
VERTEX
8
0
10
-26.5499125
20
33.593603125
30
0
0
VERTEX
8
0
10
-26.5859625
20
33.64755625
30
0
0
VERTEX
8
0
10
-26.627125000000003
20
33.6977125
30
0
0
VERTEX
8
0
10
-26.673009375000003
20
33.743596875
30
0
0
VERTEX
8
0
10
-26.723165625
20
33.784759375
30
0
0
VERTEX
8
0
10
-26.77711875
20
33.820809375
30
0
0
VERTEX
8
0
10
-26.834343750000002
20
33.851396875
30
0
0
VERTEX
8
0
10
-26.894290625
20
33.876228125000004
30
0
0
VERTEX
8
0
10
-26.956384375000003
20
33.8950625
30
0
0
VERTEX
8
0
10
-27.020021875
20
33.907721875
30
0
0
VERTEX
8
0
10
-27.084596875000003
20
33.91408125
30
0
0
VERTEX
8
0
10
-27.149484375
20
33.91408125
30
0
0
VERTEX
8
0
10
-27.214059375
20
33.907721875
30
0
0
VERTEX
8
0
10
-27.277696875
20
33.8950625
30
0
0
VERTEX
8
0
10
-27.339790625000003
20
33.876228125000004
30
0
0
VERTEX
8
0
10
-27.3997375
20
33.851396875
30
0
0
VERTEX
8
0
10
-27.456962500000003
20
33.820809375
30
0
0
VERTEX
8
0
10
-27.510915625000003
20
33.784759375
30
0
0
VERTEX
8
0
10
-27.561071875
20
33.743596875
30
0
0
VERTEX
8
0
10
-27.60695625
20
33.6977125
30
0
0
VERTEX
8
0
10
-27.648118750000002
20
33.64755625
30
0
0
VERTEX
8
0
10
-27.68416875
20
33.593603125
30
0
0
VERTEX
8
0
10
-27.71475625
20
33.536378125
30
0
0
VERTEX
8
0
10
-27.739587500000003
20
33.476431250000005
30
0
0
VERTEX
8
0
10
-27.758421875
20
33.4143375
30
0
0
VERTEX
8
0
10
-27.77108125
20
33.3507
30
0
0
VERTEX
8
0
10
-27.777440625
20
33.286125
30
0
0
VERTEX
8
0
10
-27.777440625
20
31.900437500000002
30
0
0
VERTEX
8
0
10
-27.77108125
20
31.8358625
30
0
0
VERTEX
8
0
10
-27.758421875
20
31.772225000000002
30
0
0
VERTEX
8
0
10
-27.739587500000003
20
31.71013125
30
0
0
VERTEX
8
0
10
-27.71475625
20
31.650184375000002
30
0
0
VERTEX
8
0
10
-27.68416875
20
31.592959375000003
30
0
0
VERTEX
8
0
10
-27.648118750000002
20
31.53900625
30
0
0
VERTEX
8
0
10
-27.60695625
20
31.488850000000003
30
0
0
VERTEX
8
0
10
-27.561071875
20
31.442965625000003
30
0
0
VERTEX
8
0
10
-27.510915625000003
20
31.401803125
30
0
0
VERTEX
8
0
10
-27.456962500000003
20
31.365753125
30
0
0
VERTEX
8
0
10
-27.3997375
20
31.335165625000002
30
0
0
VERTEX
8
0
10
-27.339790625000003
20
31.310334375
30
0
0
VERTEX
8
0
10
-27.277696875
20
31.291500000000003
30
0
0
VERTEX
8
0
10
-27.214059375
20
31.278840625
30
0
0
VERTEX
8
0
10
-27.193240625
20
31.276790625
30
0
0
VERTEX
8
0
10
-27.193240625
20
30.77064375
30
0
0
VERTEX
8
0
10
-28.367803125000002
20
29.59608125
30
0
0
VERTEX
8
0
10
-31.022478125000003
20
29.59608125
30
0
0
VERTEX
8
0
10
-32.146240625000004
20
30.719843750000003
30
0
0
VERTEX
8
0
10
-32.146240625000004
20
50.39251875
30
0
0
VERTEX
8
0
10
-30.311278125
20
52.227481250000004
30
0
0
VERTEX
8
0
10
-17.039403125
20
52.227481250000004
30
0
0
VERTEX
8
0
10
-15.737840625
20
50.92591875
30
0
0
VERTEX
8
0
10
-15.737840625
20
49.81448125
30
0
0
VERTEX
8
0
10
-15.981628125
20
49.81448125
30
0
0
VERTEX
8
0
10
-16.398240625
20
49.39786875
30
0
0
VERTEX
8
0
10
-16.398240625
20
48.80869375
30
0
0
VERTEX
8
0
10
-15.981628125
20
48.392081250000004
30
0
0
VERTEX
8
0
10
-15.392453125000001
20
48.392081250000004
30
0
0
VERTEX
8
0
10
-14.975840625
20
48.80869375
30
0
0
VERTEX
8
0
10
-14.975840625
20
49.39786875
30
0
0
VERTEX
8
0
10
-15.392453125000001
20
49.81448125
30
0
0
VERTEX
8
0
10
-15.585440625
20
49.81448125
30
0
0
VERTEX
8
0
10
-15.585440625
20
50.967512500000005
30
0
0
VERTEX
8
0
10
-15.590634375
20
50.98689375
30
0
0
VERTEX
8
0
10
-15.600665625000001
20
51.00426875
30
0
0
VERTEX
8
0
10
-16.961053125
20
52.36465625
30
0
0
VERTEX
8
0
10
-16.978428125
20
52.3746875
30
0
0
VERTEX
8
0
10
-16.997809375
20
52.379881250000004
30
0
0
VERTEX
8
0
10
-30.352871875
20
52.379881250000004
30
0
0
VERTEX
8
0
10
-30.372253125
20
52.3746875
30
0
0
VERTEX
8
0
10
-30.389628125
20
52.36465625
30
0
0
VERTEX
8
0
10
-32.283415625
20
50.47086875
30
0
0
VERTEX
8
0
10
-32.293446875
20
50.45349375
30
0
0
VERTEX
8
0
10
-32.298640625000004
20
50.434112500000005
30
0
0
VERTEX
8
0
10
-32.298640625000004
20
30.678250000000002
30
0
0
VERTEX
8
0
10
-32.293446875
20
30.65886875
30
0
0
VERTEX
8
0
10
-32.283415625
20
30.641493750000002
30
0
0
VERTEX
8
0
10
-31.100828125000003
20
29.458906250000002
30
0
0
VERTEX
8
0
10
-31.083453125000002
20
29.448875
30
0
0
VERTEX
8
0
10
-31.064071875
20
29.44368125
30
0
0
VERTEX
8
0
10
-28.326209375
20
29.44368125
30
0
0
VERTEX
8
0
10
-28.306828125000003
20
29.448875
30
0
0
VERTEX
8
0
10
-28.289453125
20
29.458906250000002
30
0
0
VERTEX
8
0
10
-27.142440625000003
20
30.60591875
30
0
0
VERTEX
8
0
10
-25.944628125
20
29.408106250000003
30
0
0
VERTEX
8
0
10
-25.927253125
20
29.398075000000002
30
0
0
VERTEX
8
0
10
-25.907871875
20
29.392881250000002
30
0
0
VERTEX
8
0
10
-3.8152093750000002
20
29.392881250000002
30
0
0
VERTEX
8
0
10
-3.7958281250000003
20
29.398075000000002
30
0
0
VERTEX
8
0
10
-3.778453125
20
29.408106250000003
30
0
0
VERTEX
8
0
10
-3.0378406250000003
20
30.14871875
30
0
0
VERTEX
8
0
10
-2.221028125
20
29.331906250000003
30
0
0
VERTEX
8
0
10
-2.203653125
20
29.321875000000002
30
0
0
VERTEX
8
0
10
-2.1842718750000003
20
29.316681250000002
30
0
0
VERTEX
8
0
10
9.392790625
20
29.316681250000002
30
0
0
VERTEX
8
0
10
9.412171875
20
29.321875000000002
30
0
0
VERTEX
8
0
10
9.429546875
20
29.331906250000003
30
0
0
VERTEX
8
0
10
10.358134375
20
30.260493750000002
30
0
0
SEQEND
0
POLYLINE
66
1
8
16_copper
10
0.0
20
0.0
30
0.0
70
1
0
VERTEX
8
0
10
-14.975840625
20
48.80869375
30
0
0
VERTEX
8
0
10
-14.975840625
20
49.39786875
30
0
0
VERTEX
8
0
10
-15.392453125000001
20
49.81448125
30
0
0
VERTEX
8
0
10
-15.981628125
20
49.81448125
30
0
0
VERTEX
8
0
10
-16.398240625
20
49.39786875
30
0
0
VERTEX
8
0
10
-16.398240625
20
48.80869375
30
0
0
VERTEX
8
0
10
-15.981628125
20
48.392081250000004
30
0
0
VERTEX
8
0
10
-15.392453125000001
20
48.392081250000004
30
0
0
SEQEND
0
POLYLINE
66
1
8
16_copper
10
0.0
20
0.0
30
0.0
70
1
0
VERTEX
8
0
10
10.358303125
20
31.20361875
30
0
0
VERTEX
8
0
10
10.431734375000001
20
31.218225
30
0
0
VERTEX
8
0
10
10.503378125000001
20
31.239959375
30
0
0
VERTEX
8
0
10
10.57255
20
31.268609375
30
0
0
VERTEX
8
0
10
10.638578125
20
31.303903125
30
0
0
VERTEX
8
0
10
10.700828125000001
20
31.3455
30
0
0
VERTEX
8
0
10
10.758703125
20
31.392996875
30
0
0
VERTEX
8
0
10
10.81164375
20
31.445937500000003
30
0
0
VERTEX
8
0
10
10.859140625
20
31.503812500000002
30
0
0
VERTEX
8
0
10
10.9007375
20
31.5660625
30
0
0
VERTEX
8
0
10
10.936031250000001
20
31.632090625
30
0
0
VERTEX
8
0
10
10.96468125
20
31.701262500000002
30
0
0
VERTEX
8
0
10
10.986415625000001
20
31.772906250000002
30
0
0
VERTEX
8
0
10
11.001021875000001
20
31.8463375
30
0
0
VERTEX
8
0
10
11.008359375000001
20
31.920846875000002
30
0
0
VERTEX
8
0
10
11.008359375000001
20
33.519715625
30
0
0
VERTEX
8
0
10
11.001021875000001
20
33.594225
30
0
0
VERTEX
8
0
10
10.986415625000001
20
33.66765625
30
0
0
VERTEX
8
0
10
10.96468125
20
33.7393
30
0
0
VERTEX
8
0
10
10.936031250000001
20
33.808471875
30
0
0
VERTEX
8
0
10
10.9007375
20
33.874500000000005
30
0
0
VERTEX
8
0
10
10.859140625
20
33.93675
30
0
0
VERTEX
8
0
10
10.81164375
20
33.994625
30
0
0
VERTEX
8
0
10
10.758703125
20
34.047565625000004
30
0
0
VERTEX
8
0
10
10.700828125000001
20
34.095062500000004
30
0
0
VERTEX
8
0
10
10.638578125
20
34.136659375
30
0
0
VERTEX
8
0
10
10.57255
20
34.171953125
30
0
0
VERTEX
8
0
10
10.503378125000001
20
34.200603125
30
0
0
VERTEX
8
0
10
10.431734375000001
20
34.2223375
30
0
0
VERTEX
8
0
10
10.358303125
20
34.23694375
30
0
0
VERTEX
8
0
10
10.283793750000001
20
34.24428125
30
0
0
VERTEX
8
0
10
10.208925
20
34.24428125
30
0
0
VERTEX
8
0
10
10.134415625
20
34.23694375
30
0
0
VERTEX
8
0
10
10.060984375
20
34.2223375
30
0
0
VERTEX
8
0
10
9.989340625
20
34.200603125
30
0
0
VERTEX
8
0
10
9.92016875
20
34.171953125
30
0
0
VERTEX
8
0
10
9.854140625000001
20
34.136659375
30
0
0
VERTEX
8
0
10
9.791890625
20
34.095062500000004
30
0
0
VERTEX
8
0
10
9.734015625
20
34.047565625000004
30
0
0
VERTEX
8
0
10
9.681075
20
33.994625
30
0
0
VERTEX
8
0
10
9.633578125
20
33.93675
30
0
0
VERTEX
8
0
10
9.59198125
20
33.874500000000005
30
0
0
VERTEX
8
0
10
9.5566875
20
33.808471875
30
0
0
VERTEX
8
0
10
9.5280375
20
33.7393
30
0
0
VERTEX
8
0
10
9.506303125
20
33.66765625
30
0
0
VERTEX
8
0
10
9.491696875
20
33.594225
30
0
0
VERTEX
8
0
10
9.484359375
20
33.519715625
30
0
0
VERTEX
8
0
10
9.484359375
20
31.920846875000002
30
0
0
VERTEX
8
0
10
9.491696875
20
31.8463375
30
0
0
VERTEX
8
0
10
9.506303125
20
31.772906250000002
30
0
0
VERTEX
8
0
10
9.5280375
20
31.701262500000002
30
0
0
VERTEX
8
0
10
9.5566875
20
31.632090625
30
0
0
VERTEX
8
0
10
9.59198125
20
31.5660625
30
0
0
VERTEX
8
0
10
9.633578125
20
31.503812500000002
30
0
0
VERTEX
8
0
10
9.681075
20
31.445937500000003
30
0
0
VERTEX
8
0
10
9.734015625
20
31.392996875
30
0
0
VERTEX
8
0
10
9.791890625
20
31.3455
30
0
0
VERTEX
8
0
10
9.854140625000001
20
31.303903125
30
0
0
VERTEX
8
0
10
9.92016875
20
31.268609375
30
0
0
VERTEX
8
0
10
9.989340625
20
31.239959375
30
0
0
VERTEX
8
0
10
10.060984375
20
31.218225
30
0
0
VERTEX
8
0
10
10.134415625
20
31.20361875
30
0
0
VERTEX
8
0
10
10.208925
20
31.196281250000002
30
0
0
VERTEX
8
0
10
10.283793750000001
20
31.196281250000002
30
0
0
SEQEND
0
POLYLINE
66
1
8
16_copper
10
0.0
20
0.0
30
0.0
70
1
0
VERTEX
8
0
10
-2.976696875
20
30.97501875
30
0
0
VERTEX
8
0
10
-2.903265625
20
30.989625
30
0
0
VERTEX
8
0
10
-2.831621875
20
31.011359375
30
0
0
VERTEX
8
0
10
-2.7624500000000003
20
31.040009375
30
0
0
VERTEX
8
0
10
-2.696421875
20
31.075303125
30
0
0
VERTEX
8
0
10
-2.6341718750000003
20
31.1169
30
0
0
VERTEX
8
0
10
-2.576296875
20
31.164396875
30
0
0
VERTEX
8
0
10
-2.52335625
20
31.217337500000003
30
0
0
VERTEX
8
0
10
-2.475859375
20
31.275212500000002
30
0
0
VERTEX
8
0
10
-2.4342625
20
31.3374625
30
0
0
VERTEX
8
0
10
-2.3989687500000003
20
31.403490625
30
0
0
VERTEX
8
0
10
-2.37031875
20
31.472662500000002
30
0
0
VERTEX
8
0
10
-2.348584375
20
31.54430625
30
0
0
VERTEX
8
0
10
-2.3339781250000002
20
31.6177375
30
0
0
VERTEX
8
0
10
-2.326640625
20
31.692246875000002
30
0
0
VERTEX
8
0
10
-2.326640625
20
33.291115625
30
0
0
VERTEX
8
0
10
-2.3339781250000002
20
33.365625
30
0
0
VERTEX
8
0
10
-2.348584375
20
33.43905625
30
0
0
VERTEX
8
0
10
-2.37031875
20
33.5107
30
0
0
VERTEX
8
0
10
-2.3989687500000003
20
33.579871875
30
0
0
VERTEX
8
0
10
-2.4342625
20
33.645900000000005
30
0
0
VERTEX
8
0
10
-2.475859375
20
33.70815
30
0
0
VERTEX
8
0
10
-2.52335625
20
33.766025
30
0
0
VERTEX
8
0
10
-2.576296875
20
33.818965625000004
30
0
0
VERTEX
8
0
10
-2.6341718750000003
20
33.866462500000004
30
0
0
VERTEX
8
0
10
-2.696421875
20
33.908059375
30
0
0
VERTEX
8
0
10
-2.7624500000000003
20
33.943353125
30
0
0
VERTEX
8
0
10
-2.831621875
20
33.972003125
30
0
0
VERTEX
8
0
10
-2.903265625
20
33.9937375
30
0
0
VERTEX
8
0
10
-2.976696875
20
34.00834375
30
0
0
VERTEX
8
0
10
-3.0512062500000003
20
34.01568125
30
0
0
VERTEX
8
0
10
-3.126075
20
34.01568125
30
0
0
VERTEX
8
0
10
-3.200584375
20
34.00834375
30
0
0
VERTEX
8
0
10
-3.274015625
20
33.9937375
30
0
0
VERTEX
8
0
10
-3.3456593750000003
20
33.972003125
30
0
0
VERTEX
8
0
10
-3.41483125
20
33.943353125
30
0
0
VERTEX
8
0
10
-3.480859375
20
33.908059375
30
0
0
VERTEX
8
0
10
-3.5431093750000002
20
33.866462500000004
30
0
0
VERTEX
8
0
10
-3.6009843750000003
20
33.818965625000004
30
0
0
VERTEX
8
0
10
-3.653925
20
33.766025
30
0
0
VERTEX
8
0
10
-3.7014218750000003
20
33.70815
30
0
0
VERTEX
8
0
10
-3.74301875
20
33.645900000000005
30
0
0
VERTEX
8
0
10
-3.7783125
20
33.579871875
30
0
0
VERTEX
8
0
10
-3.8069625
20
33.5107
30
0
0
VERTEX
8
0
10
-3.8286968750000003
20
33.43905625
30
0
0
VERTEX
8
0
10
-3.8433031250000003
20
33.365625
30
0
0
VERTEX
8
0
10
-3.850640625
20
33.291115625
30
0
0
VERTEX
8
0
10
-3.850640625
20
31.692246875000002
30
0
0
VERTEX
8
0
10
-3.8433031250000003
20
31.6177375
30
0
0
VERTEX
8
0
10
-3.8286968750000003
20
31.54430625
30
0
0
VERTEX
8
0
10
-3.8069625
20
31.472662500000002
30
0
0
VERTEX
8
0
10
-3.7783125
20
31.403490625
30
0
0
VERTEX
8
0
10
-3.74301875
20
31.3374625
30
0
0
VERTEX
8
0
10
-3.7014218750000003
20
31.275212500000002
30
0
0
VERTEX
8
0
10
-3.653925
20
31.217337500000003
30
0
0
VERTEX
8
0
10
-3.6009843750000003
20
31.164396875
30
0
0
VERTEX
8
0
10
-3.5431093750000002
20
31.1169
30
0
0
VERTEX
8
0
10
-3.480859375
20
31.075303125
30
0
0
VERTEX
8
0
10
-3.41483125
20
31.040009375
30
0
0
VERTEX
8
0
10
-3.3456593750000003
20
31.011359375
30
0
0
VERTEX
8
0
10
-3.274015625
20
30.989625
30
0
0
VERTEX
8
0
10
-3.200584375
20
30.97501875
30
0
0
VERTEX
8
0
10
-3.126075
20
30.967681250000002
30
0
0
VERTEX
8
0
10
-3.0512062500000003
20
30.967681250000002
30
0
0
SEQEND
0
POLYLINE
66
1
8
16_copper
10
0.0
20
0.0
30
0.0
70
1
0
VERTEX
8
0
10
-27.020021875
20
31.278840625
30
0
0
VERTEX
8
0
10
-26.956384375000003
20
31.291500000000003
30
0
0
VERTEX
8
0
10
-26.894290625
20
31.310334375
30
0
0
VERTEX
8
0
10
-26.834343750000002
20
31.335165625000002
30
0
0
VERTEX
8
0
10
-26.77711875
20
31.365753125
30
0
0
VERTEX
8
0
10
-26.723165625
20
31.401803125
30
0
0
VERTEX
8
0
10
-26.673009375000003
20
31.442965625000003
30
0
0
VERTEX
8
0
10
-26.627125000000003
20
31.488850000000003
30
0
0
VERTEX
8
0
10
-26.5859625
20
31.53900625
30
0
0
VERTEX
8
0
10
-26.5499125
20
31.592959375000003
30
0
0
VERTEX
8
0
10
-26.519325000000002
20
31.650184375000002
30
0
0
VERTEX
8
0
10
-26.49449375
20
31.71013125
30
0
0
VERTEX
8
0
10
-26.475659375000003
20
31.772225000000002
30
0
0
VERTEX
8
0
10
-26.463
20
31.8358625
30
0
0
VERTEX
8
0
10
-26.456640625000002
20
31.900437500000002
30
0
0
VERTEX
8
0
10
-26.456640625000002
20
33.286125
30
0
0
VERTEX
8
0
10
-26.463
20
33.3507
30
0
0
VERTEX
8
0
10
-26.475659375000003
20
33.4143375
30
0
0
VERTEX
8
0
10
-26.49449375
20
33.476431250000005
30
0
0
VERTEX
8
0
10
-26.519325000000002
20
33.536378125
30
0
0
VERTEX
8
0
10
-26.5499125
20
33.593603125
30
0
0
VERTEX
8
0
10
-26.5859625
20
33.64755625
30
0
0
VERTEX
8
0
10
-26.627125000000003
20
33.6977125
30
0
0
VERTEX
8
0
10
-26.673009375000003
20
33.743596875
30
0
0
VERTEX
8
0
10
-26.723165625
20
33.784759375
30
0
0
VERTEX
8
0
10
-26.77711875
20
33.820809375
30
0
0
VERTEX
8
0
10
-26.834343750000002
20
33.851396875
30
0
0
VERTEX
8
0
10
-26.894290625
20
33.876228125000004
30
0
0
VERTEX
8
0
10
-26.956384375000003
20
33.8950625
30
0
0
VERTEX
8
0
10
-27.020021875
20
33.907721875
30
0
0
VERTEX
8
0
10
-27.084596875000003
20
33.91408125
30
0
0
VERTEX
8
0
10
-27.149484375
20
33.91408125
30
0
0
VERTEX
8
0
10
-27.214059375
20
33.907721875
30
0
0
VERTEX
8
0
10
-27.277696875
20
33.8950625
30
0
0
VERTEX
8
0
10
-27.339790625000003
20
33.876228125000004
30
0
0
VERTEX
8
0
10
-27.3997375
20
33.851396875
30
0
0
VERTEX
8
0
10
-27.456962500000003
20
33.820809375
30
0
0
VERTEX
8
0
10
-27.510915625000003
20
33.784759375
30
0
0
VERTEX
8
0
10
-27.561071875
20
33.743596875
30
0
0
VERTEX
8
0
10
-27.60695625
20
33.6977125
30
0
0
VERTEX
8
0
10
-27.648118750000002
20
33.64755625
30
0
0
VERTEX
8
0
10
-27.68416875
20
33.593603125
30
0
0
VERTEX
8
0
10
-27.71475625
20
33.536378125
30
0
0
VERTEX
8
0
10
-27.739587500000003
20
33.476431250000005
30
0
0
VERTEX
8
0
10
-27.758421875
20
33.4143375
30
0
0
VERTEX
8
0
10
-27.77108125
20
33.3507
30
0
0
VERTEX
8
0
10
-27.777440625
20
33.286125
30
0
0
VERTEX
8
0
10
-27.777440625
20
31.900437500000002
30
0
0
VERTEX
8
0
10
-27.77108125
20
31.8358625
30
0
0
VERTEX
8
0
10
-27.758421875
20
31.772225000000002
30
0
0
VERTEX
8
0
10
-27.739587500000003
20
31.71013125
30
0
0
VERTEX
8
0
10
-27.71475625
20
31.650184375000002
30
0
0
VERTEX
8
0
10
-27.68416875
20
31.592959375000003
30
0
0
VERTEX
8
0
10
-27.648118750000002
20
31.53900625
30
0
0
VERTEX
8
0
10
-27.60695625
20
31.488850000000003
30
0
0
VERTEX
8
0
10
-27.561071875
20
31.442965625000003
30
0
0
VERTEX
8
0
10
-27.510915625000003
20
31.401803125
30
0
0
VERTEX
8
0
10
-27.456962500000003
20
31.365753125
30
0
0
VERTEX
8
0
10
-27.3997375
20
31.335165625000002
30
0
0
VERTEX
8
0
10
-27.339790625000003
20
31.310334375
30
0
0
VERTEX
8
0
10
-27.277696875
20
31.291500000000003
30
0
0
VERTEX
8
0
10
-27.214059375
20
31.278840625
30
0
0
VERTEX
8
0
10
-27.149484375
20
31.272481250000002
30
0
0
VERTEX
8
0
10
-27.084596875000003
20
31.272481250000002
30
0
0
SEQEND
0
POLYLINE
66
1
8
1_copper
10
0.0
20
0.0
30
0.0
70
1
0
VERTEX
8
0
10
2.062365625
20
39.353693750000005
30
0
0
VERTEX
8
0
10
2.052334375
20
39.37106875
30
0
0
VERTEX
8
0
10
-0.47645312500000003
20
41.89985625
30
0
0
VERTEX
8
0
10
-0.493828125
20
41.9098875
30
0
0
VERTEX
8
0
10
-0.5132093750000001
20
41.91508125
30
0
0
VERTEX
8
0
10
-24.291478125
20
41.91508125
30
0
0
VERTEX
8
0
10
-25.770840625
20
43.39444375
30
0
0
VERTEX
8
0
10
-25.770840625
20
45.852081250000005
30
0
0
VERTEX
8
0
10
-25.552453125
20
45.852081250000005
30
0
0
VERTEX
8
0
10
-25.135840625
20
46.268693750000004
30
0
0
VERTEX
8
0
10
-25.135840625
20
46.85786875
30
0
0
VERTEX
8
0
10
-25.552453125
20
47.27448125
30
0
0
VERTEX
8
0
10
-26.141628125
20
47.27448125
30
0
0
VERTEX
8
0
10
-26.558240625
20
46.85786875
30
0
0
VERTEX
8
0
10
-26.558240625
20
46.268693750000004
30
0
0
VERTEX
8
0
10
-26.141628125
20
45.852081250000005
30
0
0
VERTEX
8
0
10
-25.923240625000002
20
45.852081250000005
30
0
0
VERTEX
8
0
10
-25.923240625000002
20
38.61924375
30
0
0
VERTEX
8
0
10
-29.718015625000003
20
34.82446875
30
0
0
VERTEX
8
0
10
-29.728046875
20
34.80709375
30
0
0
VERTEX
8
0
10
-29.733240625
20
34.787712500000005
30
0
0
VERTEX
8
0
10
-29.733240625
20
33.909771875000004
30
0
0
VERTEX
8
0
10
-29.754059375
20
33.907721875
30
0
0
VERTEX
8
0
10
-29.817696875000003
20
33.8950625
30
0
0
VERTEX
8
0
10
-29.879790625000002
20
33.876228125000004
30
0
0
VERTEX
8
0
10
-29.9397375
20
33.851396875
30
0
0
VERTEX
8
0
10
-29.996962500000002
20
33.820809375
30
0
0
VERTEX
8
0
10
-30.050915625000002
20
33.784759375
30
0
0
VERTEX
8
0
10
-30.101071875000002
20
33.743596875
30
0
0
VERTEX
8
0
10
-30.146956250000002
20
33.6977125
30
0
0
VERTEX
8
0
10
-30.18811875
20
33.64755625
30
0
0
VERTEX
8
0
10
-30.22416875
20
33.593603125
30
0
0
VERTEX
8
0
10
-30.25475625
20
33.536378125
30
0
0
VERTEX
8
0
10
-30.2795875
20
33.476431250000005
30
0
0
VERTEX
8
0
10
-30.298421875000003
20
33.4143375
30
0
0
VERTEX
8
0
10
-30.31108125
20
33.3507
30
0
0
VERTEX
8
0
10
-30.317440625
20
33.286125
30
0
0
VERTEX
8
0
10
-30.317440625
20
31.900437500000002
30
0
0
VERTEX
8
0
10
-30.31108125
20
31.8358625
30
0
0
VERTEX
8
0
10
-30.298421875000003
20
31.772225000000002
30
0
0
VERTEX
8
0
10
-30.2795875
20
31.71013125
30
0
0
VERTEX
8
0
10
-30.25475625
20
31.650184375000002
30
0
0
VERTEX
8
0
10
-30.22416875
20
31.592959375000003
30
0
0
VERTEX
8
0
10
-30.18811875
20
31.53900625
30
0
0
VERTEX
8
0
10
-30.146956250000002
20
31.488850000000003
30
0
0
VERTEX
8
0
10
-30.101071875000002
20
31.442965625000003
30
0
0
VERTEX
8
0
10
-30.050915625000002
20
31.401803125
30
0
0
VERTEX
8
0
10
-29.996962500000002
20
31.365753125
30
0
0
VERTEX
8
0
10
-29.9397375
20
31.335165625000002
30
0
0
VERTEX
8
0
10
-29.879790625000002
20
31.310334375
30
0
0
VERTEX
8
0
10
-29.817696875000003
20
31.291500000000003
30
0
0
VERTEX
8
0
10
-29.754059375
20
31.278840625
30
0
0
VERTEX
8
0
10
-29.689484375000003
20
31.272481250000002
30
0
0
VERTEX
8
0
10
-29.624596875
20
31.272481250000002
30
0
0
VERTEX
8
0
10
-29.560021875
20
31.278840625
30
0
0
VERTEX
8
0
10
-29.496384375
20
31.291500000000003
30
0
0
VERTEX
8
0
10
-29.434290625000003
20
31.310334375
30
0
0
VERTEX
8
0
10
-29.37434375
20
31.335165625000002
30
0
0
VERTEX
8
0
10
-29.317118750000002
20
31.365753125
30
0
0
VERTEX
8
0
10
-29.263165625000003
20
31.401803125
30
0
0
VERTEX
8
0
10
-29.213009375000002
20
31.442965625000003
30
0
0
VERTEX
8
0
10
-29.167125000000002
20
31.488850000000003
30
0
0
VERTEX
8
0
10
-29.1259625
20
31.53900625
30
0
0
VERTEX
8
0
10
-29.0899125
20
31.592959375000003
30
0
0
VERTEX
8
0
10
-29.059325
20
31.650184375000002
30
0
0
VERTEX
8
0
10
-29.034493750000003
20
31.71013125
30
0
0
VERTEX
8
0
10
-29.015659375000002
20
31.772225000000002
30
0
0
VERTEX
8
0
10
-29.003
20
31.8358625
30
0
0
VERTEX
8
0
10
-28.996640625
20
31.900437500000002
30
0
0
VERTEX
8
0
10
-28.996640625
20
33.286125
30
0
0
VERTEX
8
0
10
-29.003
20
33.3507
30
0
0
VERTEX
8
0
10
-29.015659375000002
20
33.4143375
30
0
0
VERTEX
8
0
10
-29.034493750000003
20
33.476431250000005
30
0
0
VERTEX
8
0
10
-29.059325
20
33.536378125
30
0
0
VERTEX
8
0
10
-29.0899125
20
33.593603125
30
0
0
VERTEX
8
0
10
-29.1259625
20
33.64755625
30
0
0
VERTEX
8
0
10
-29.167125000000002
20
33.6977125
30
0
0
VERTEX
8
0
10
-29.213009375000002
20
33.743596875
30
0
0
VERTEX
8
0
10
-29.263165625000003
20
33.784759375
30
0
0
VERTEX
8
0
10
-29.317118750000002
20
33.820809375
30
0
0
VERTEX
8
0
10
-29.37434375
20
33.851396875
30
0
0
VERTEX
8
0
10
-29.434290625000003
20
33.876228125000004
30
0
0
VERTEX
8
0
10
-29.496384375
20
33.8950625
30
0
0
VERTEX
8
0
10
-29.560021875
20
33.907721875
30
0
0
VERTEX
8
0
10
-29.580840625
20
33.909771875000004
30
0
0
VERTEX
8
0
10
-29.580840625
20
34.74611875
30
0
0
VERTEX
8
0
10
-25.786065625000003
20
38.54089375
30
0
0
VERTEX
8
0
10
-25.776034375000002
20
38.55826875
30
0
0
VERTEX
8
0
10
-25.770840625
20
38.57765
30
0
0
VERTEX
8
0
10
-25.770840625
20
43.17891875
30
0
0
VERTEX
8
0
10
-24.369828125
20
41.77790625
30
0
0
VERTEX
8
0
10
-24.352453125
20
41.767875000000004
30
0
0
VERTEX
8
0
10
-24.333071875
20
41.76268125
30
0
0
VERTEX
8
0
10
-0.5548031250000001
20
41.76268125
30
0
0
VERTEX
8
0
10
1.915159375
20
39.29271875
30
0
0
VERTEX
8
0
10
1.915159375
20
34.0118625
30
0
0
VERTEX
8
0
10
1.879415625
20
34.00834375
30
0
0
VERTEX
8
0
10
1.8059843750000002
20
33.9937375
30
0
0
VERTEX
8
0
10
1.7343406250000002
20
33.972003125
30
0
0
VERTEX
8
0
10
1.66516875
20
33.943353125
30
0
0
VERTEX
8
0
10
1.599140625
20
33.908059375
30
0
0
VERTEX
8
0
10
1.536890625
20
33.866462500000004
30
0
0
VERTEX
8
0
10
1.4790156250000002
20
33.818965625000004
30
0
0
VERTEX
8
0
10
1.426075
20
33.766025
30
0
0
VERTEX
8
0
10
1.378578125
20
33.70815
30
0
0
VERTEX
8
0
10
1.33698125
20
33.645900000000005
30
0
0
VERTEX
8
0
10
1.3016875
20
33.579871875
30
0
0
VERTEX
8
0
10
1.2730375
20
33.5107
30
0
0
VERTEX
8
0
10
1.251303125
20
33.43905625
30
0
0
VERTEX
8
0
10
1.236696875
20
33.365625
30
0
0
VERTEX
8
0
10
1.229359375
20
33.291115625
30
0
0
VERTEX
8
0
10
1.229359375
20
31.692246875000002
30
0
0
VERTEX
8
0
10
1.236696875
20
31.6177375
30
0
0
VERTEX
8
0
10
1.251303125
20
31.54430625
30
0
0
VERTEX
8
0
10
1.2730375
20
31.472662500000002
30
0
0
VERTEX
8
0
10
1.3016875
20
31.403490625
30
0
0
VERTEX
8
0
10
1.33698125
20
31.3374625
30
0
0
VERTEX
8
0
10
1.378578125
20
31.275212500000002
30
0
0
VERTEX
8
0
10
1.426075
20
31.217337500000003
30
0
0
VERTEX
8
0
10
1.4790156250000002
20
31.164396875
30
0
0
VERTEX
8
0
10
1.536890625
20
31.1169
30
0
0
VERTEX
8
0
10
1.599140625
20
31.075303125
30
0
0
VERTEX
8
0
10
1.66516875
20
31.040009375
30
0
0
VERTEX
8
0
10
1.7343406250000002
20
31.011359375
30
0
0
VERTEX
8
0
10
1.8059843750000002
20
30.989625
30
0
0
VERTEX
8
0
10
1.879415625
20
30.97501875
30
0
0
VERTEX
8
0
10
1.9539250000000001
20
30.967681250000002
30
0
0
VERTEX
8
0
10
2.02879375
20
30.967681250000002
30
0
0
VERTEX
8
0
10
2.103303125
20
30.97501875
30
0
0
VERTEX
8
0
10
2.176734375
20
30.989625
30
0
0
VERTEX
8
0
10
2.248378125
20
31.011359375
30
0
0
VERTEX
8
0
10
2.31755
20
31.040009375
30
0
0
VERTEX
8
0
10
2.383578125
20
31.075303125
30
0
0
VERTEX
8
0
10
2.4458281250000002
20
31.1169
30
0
0
VERTEX
8
0
10
2.503703125
20
31.164396875
30
0
0
VERTEX
8
0
10
2.55664375
20
31.217337500000003
30
0
0
VERTEX
8
0
10
2.6041406250000003
20
31.275212500000002
30
0
0
VERTEX
8
0
10
2.6457375
20
31.3374625
30
0
0
VERTEX
8
0
10
2.68103125
20
31.403490625
30
0
0
VERTEX
8
0
10
2.70968125
20
31.472662500000002
30
0
0
VERTEX
8
0
10
2.7314156250000003
20
31.54430625
30
0
0
VERTEX
8
0
10
2.7460218750000003
20
31.6177375
30
0
0
VERTEX
8
0
10
2.753359375
20
31.692246875000002
30
0
0
VERTEX
8
0
10
2.753359375
20
33.291115625
30
0
0
VERTEX
8
0
10
2.7460218750000003
20
33.365625
30
0
0
VERTEX
8
0
10
2.7314156250000003
20
33.43905625
30
0
0
VERTEX
8
0
10
2.70968125
20
33.5107
30
0
0
VERTEX
8
0
10
2.68103125
20
33.579871875
30
0
0
VERTEX
8
0
10
2.6457375
20
33.645900000000005
30
0
0
VERTEX
8
0
10
2.6041406250000003
20
33.70815
30
0
0
VERTEX
8
0
10
2.55664375
20
33.766025
30
0
0
VERTEX
8
0
10
2.503703125
20
33.818965625000004
30
0
0
VERTEX
8
0
10
2.4458281250000002
20
33.866462500000004
30
0
0
VERTEX
8
0
10
2.383578125
20
33.908059375
30
0
0
VERTEX
8
0
10
2.31755
20
33.943353125
30
0
0
VERTEX
8
0
10
2.248378125
20
33.972003125
30
0
0
VERTEX
8
0
10
2.176734375
20
33.9937375
30
0
0
VERTEX
8
0
10
2.103303125
20
34.00834375
30
0
0
VERTEX
8
0
10
2.067559375
20
34.0118625
30
0
0
VERTEX
8
0
10
2.067559375
20
39.3343125
30
0
0
SEQEND
0
POLYLINE
66
1
8
16_copper
10
0.0
20
0.0
30
0.0
70
1
0
VERTEX
8
0
10
-25.135840625
20
46.268693750000004
30
0
0
VERTEX
8
0
10
-25.135840625
20
46.85786875
30
0
0
VERTEX
8
0
10
-25.552453125
20
47.27448125
30
0
0
VERTEX
8
0
10
-26.141628125
20
47.27448125
30
0
0
VERTEX
8
0
10
-26.558240625
20
46.85786875
30
0
0
VERTEX
8
0
10
-26.558240625
20
46.268693750000004
30
0
0
VERTEX
8
0
10
-26.141628125
20
45.852081250000005
30
0
0
VERTEX
8
0
10
-25.552453125
20
45.852081250000005
30
0
0
SEQEND
0
POLYLINE
66
1
8
16_copper
10
0.0
20
0.0
30
0.0
70
1
0
VERTEX
8
0
10
2.103303125
20
30.97501875
30
0
0
VERTEX
8
0
10
2.176734375
20
30.989625
30
0
0
VERTEX
8
0
10
2.248378125
20
31.011359375
30
0
0
VERTEX
8
0
10
2.31755
20
31.040009375
30
0
0
VERTEX
8
0
10
2.383578125
20
31.075303125
30
0
0
VERTEX
8
0
10
2.4458281250000002
20
31.1169
30
0
0
VERTEX
8
0
10
2.503703125
20
31.164396875
30
0
0
VERTEX
8
0
10
2.55664375
20
31.217337500000003
30
0
0
VERTEX
8
0
10
2.6041406250000003
20
31.275212500000002
30
0
0
VERTEX
8
0
10
2.6457375
20
31.3374625
30
0
0
VERTEX
8
0
10
2.68103125
20
31.403490625
30
0
0
VERTEX
8
0
10
2.70968125
20
31.472662500000002
30
0
0
VERTEX
8
0
10
2.7314156250000003
20
31.54430625
30
0
0
VERTEX
8
0
10
2.7460218750000003
20
31.6177375
30
0
0
VERTEX
8
0
10
2.753359375
20
31.692246875000002
30
0
0
VERTEX
8
0
10
2.753359375
20
33.291115625
30
0
0
VERTEX
8
0
10
2.7460218750000003
20
33.365625
30
0
0
VERTEX
8
0
10
2.7314156250000003
20
33.43905625
30
0
0
VERTEX
8
0
10
2.70968125
20
33.5107
30
0
0
VERTEX
8
0
10
2.68103125
20
33.579871875
30
0
0
VERTEX
8
0
10
2.6457375
20
33.645900000000005
30
0
0
VERTEX
8
0
10
2.6041406250000003
20
33.70815
30
0
0
VERTEX
8
0
10
2.55664375
20
33.766025
30
0
0
VERTEX
8
0
10
2.503703125
20
33.818965625000004
30
0
0
VERTEX
8
0
10
2.4458281250000002
20
33.866462500000004
30
0
0
VERTEX
8
0
10
2.383578125
20
33.908059375
30
0
0
VERTEX
8
0
10
2.31755
20
33.943353125
30
0
0
VERTEX
8
0
10
2.248378125
20
33.972003125
30
0
0
VERTEX
8
0
10
2.176734375
20
33.9937375
30
0
0
VERTEX
8
0
10
2.103303125
20
34.00834375
30
0
0
VERTEX
8
0
10
2.02879375
20
34.01568125
30
0
0
VERTEX
8
0
10
1.9539250000000001
20
34.01568125
30
0
0
VERTEX
8
0
10
1.879415625
20
34.00834375
30
0
0
VERTEX
8
0
10
1.8059843750000002
20
33.9937375
30
0
0
VERTEX
8
0
10
1.7343406250000002
20
33.972003125
30
0
0
VERTEX
8
0
10
1.66516875
20
33.943353125
30
0
0
VERTEX
8
0
10
1.599140625
20
33.908059375
30
0
0
VERTEX
8
0
10
1.536890625
20
33.866462500000004
30
0
0
VERTEX
8
0
10
1.4790156250000002
20
33.818965625000004
30
0
0
VERTEX
8
0
10
1.426075
20
33.766025
30
0
0
VERTEX
8
0
10
1.378578125
20
33.70815
30
0
0
VERTEX
8
0
10
1.33698125
20
33.645900000000005
30
0
0
VERTEX
8
0
10
1.3016875
20
33.579871875
30
0
0
VERTEX
8
0
10
1.2730375
20
33.5107
30
0
0
VERTEX
8
0
10
1.251303125
20
33.43905625
30
0
0
VERTEX
8
0
10
1.236696875
20
33.365625
30
0
0
VERTEX
8
0
10
1.229359375
20
33.291115625
30
0
0
VERTEX
8
0
10
1.229359375
20
31.692246875000002
30
0
0
VERTEX
8
0
10
1.236696875
20
31.6177375
30
0
0
VERTEX
8
0
10
1.251303125
20
31.54430625
30
0
0
VERTEX
8
0
10
1.2730375
20
31.472662500000002
30
0
0
VERTEX
8
0
10
1.3016875
20
31.403490625
30
0
0
VERTEX
8
0
10
1.33698125
20
31.3374625
30
0
0
VERTEX
8
0
10
1.378578125
20
31.275212500000002
30
0
0
VERTEX
8
0
10
1.426075
20
31.217337500000003
30
0
0
VERTEX
8
0
10
1.4790156250000002
20
31.164396875
30
0
0
VERTEX
8
0
10
1.536890625
20
31.1169
30
0
0
VERTEX
8
0
10
1.599140625
20
31.075303125
30
0
0
VERTEX
8
0
10
1.66516875
20
31.040009375
30
0
0
VERTEX
8
0
10
1.7343406250000002
20
31.011359375
30
0
0
VERTEX
8
0
10
1.8059843750000002
20
30.989625
30
0
0
VERTEX
8
0
10
1.879415625
20
30.97501875
30
0
0
VERTEX
8
0
10
1.9539250000000001
20
30.967681250000002
30
0
0
VERTEX
8
0
10
2.02879375
20
30.967681250000002
30
0
0
SEQEND
0
POLYLINE
66
1
8
16_copper
10
0.0
20
0.0
30
0.0
70
1
0
VERTEX
8
0
10
-29.560021875
20
31.278840625
30
0
0
VERTEX
8
0
10
-29.496384375
20
31.291500000000003
30
0
0
VERTEX
8
0
10
-29.434290625000003
20
31.310334375
30
0
0
VERTEX
8
0
10
-29.37434375
20
31.335165625000002
30
0
0
VERTEX
8
0
10
-29.317118750000002
20
31.365753125
30
0
0
VERTEX
8
0
10
-29.263165625000003
20
31.401803125
30
0
0
VERTEX
8
0
10
-29.213009375000002
20
31.442965625000003
30
0
0
VERTEX
8
0
10
-29.167125000000002
20
31.488850000000003
30
0
0
VERTEX
8
0
10
-29.1259625
20
31.53900625
30
0
0
VERTEX
8
0
10
-29.0899125
20
31.592959375000003
30
0
0
VERTEX
8
0
10
-29.059325
20
31.650184375000002
30
0
0
VERTEX
8
0
10
-29.034493750000003
20
31.71013125
30
0
0
VERTEX
8
0
10
-29.015659375000002
20
31.772225000000002
30
0
0
VERTEX
8
0
10
-29.003
20
31.8358625
30
0
0
VERTEX
8
0
10
-28.996640625
20
31.900437500000002
30
0
0
VERTEX
8
0
10
-28.996640625
20
33.286125
30
0
0
VERTEX
8
0
10
-29.003
20
33.3507
30
0
0
VERTEX
8
0
10
-29.015659375000002
20
33.4143375
30
0
0
VERTEX
8
0
10
-29.034493750000003
20
33.476431250000005
30
0
0
VERTEX
8
0
10
-29.059325
20
33.536378125
30
0
0
VERTEX
8
0
10
-29.0899125
20
33.593603125
30
0
0
VERTEX
8
0
10
-29.1259625
20
33.64755625
30
0
0
VERTEX
8
0
10
-29.167125000000002
20
33.6977125
30
0
0
VERTEX
8
0
10
-29.213009375000002
20
33.743596875
30
0
0
VERTEX
8
0
10
-29.263165625000003
20
33.784759375
30
0
0
VERTEX
8
0
10
-29.317118750000002
20
33.820809375
30
0
0
VERTEX
8
0
10
-29.37434375
20
33.851396875
30
0
0
VERTEX
8
0
10
-29.434290625000003
20
33.876228125000004
30
0
0
VERTEX
8
0
10
-29.496384375
20
33.8950625
30
0
0
VERTEX
8
0
10
-29.560021875
20
33.907721875
30
0
0
VERTEX
8
0
10
-29.624596875
20
33.91408125
30
0
0
VERTEX
8
0
10
-29.689484375000003
20
33.91408125
30
0
0
VERTEX
8
0
10
-29.754059375
20
33.907721875
30
0
0
VERTEX
8
0
10
-29.817696875000003
20
33.8950625
30
0
0
VERTEX
8
0
10
-29.879790625000002
20
33.876228125000004
30
0
0
VERTEX
8
0
10
-29.9397375
20
33.851396875
30
0
0
VERTEX
8
0
10
-29.996962500000002
20
33.820809375
30
0
0
VERTEX
8
0
10
-30.050915625000002
20
33.784759375
30
0
0
VERTEX
8
0
10
-30.101071875000002
20
33.743596875
30
0
0
VERTEX
8
0
10
-30.146956250000002
20
33.6977125
30
0
0
VERTEX
8
0
10
-30.18811875
20
33.64755625
30
0
0
VERTEX
8
0
10
-30.22416875
20
33.593603125
30
0
0
VERTEX
8
0
10
-30.25475625
20
33.536378125
30
0
0
VERTEX
8
0
10
-30.2795875
20
33.476431250000005
30
0
0
VERTEX
8
0
10
-30.298421875000003
20
33.4143375
30
0
0
VERTEX
8
0
10
-30.31108125
20
33.3507
30
0
0
VERTEX
8
0
10
-30.317440625
20
33.286125
30
0
0
VERTEX
8
0
10
-30.317440625
20
31.900437500000002
30
0
0
VERTEX
8
0
10
-30.31108125
20
31.8358625
30
0
0
VERTEX
8
0
10
-30.298421875000003
20
31.772225000000002
30
0
0
VERTEX
8
0
10
-30.2795875
20
31.71013125
30
0
0
VERTEX
8
0
10
-30.25475625
20
31.650184375000002
30
0
0
VERTEX
8
0
10
-30.22416875
20
31.592959375000003
30
0
0
VERTEX
8
0
10
-30.18811875
20
31.53900625
30
0
0
VERTEX
8
0
10
-30.146956250000002
20
31.488850000000003
30
0
0
VERTEX
8
0
10
-30.101071875000002
20
31.442965625000003
30
0
0
VERTEX
8
0
10
-30.050915625000002
20
31.401803125
30
0
0
VERTEX
8
0
10
-29.996962500000002
20
31.365753125
30
0
0
VERTEX
8
0
10
-29.9397375
20
31.335165625000002
30
0
0
VERTEX
8
0
10
-29.879790625000002
20
31.310334375
30
0
0
VERTEX
8
0
10
-29.817696875000003
20
31.291500000000003
30
0
0
VERTEX
8
0
10
-29.754059375
20
31.278840625
30
0
0
VERTEX
8
0
10
-29.689484375000003
20
31.272481250000002
30
0
0
VERTEX
8
0
10
-29.624596875
20
31.272481250000002
30
0
0
SEQEND
0
POLYLINE
66
1
8
1_copper
10
0.0
20
0.0
30
0.0
70
1
0
VERTEX
8
0
10
-12.435840625
20
48.80869375
30
0
0
VERTEX
8
0
10
-12.435840625
20
49.39786875
30
0
0
VERTEX
8
0
10
-12.852453125
20
49.81448125
30
0
0
VERTEX
8
0
10
-13.441628125000001
20
49.81448125
30
0
0
VERTEX
8
0
10
-13.858240625
20
49.39786875
30
0
0
VERTEX
8
0
10
-13.858240625
20
48.80869375
30
0
0
VERTEX
8
0
10
-13.441628125000001
20
48.392081250000004
30
0
0
VERTEX
8
0
10
-12.852453125
20
48.392081250000004
30
0
0
SEQEND
0
POLYLINE
66
1
8
1_copper
10
0.0
20
0.0
30
0.0
70
1
0
VERTEX
8
0
10
-0.43669687500000004
20
30.97501875
30
0
0
VERTEX
8
0
10
-0.36326562500000004
20
30.989625
30
0
0
VERTEX
8
0
10
-0.29162187500000003
20
31.011359375
30
0
0
VERTEX
8
0
10
-0.22245
20
31.040009375
30
0
0
VERTEX
8
0
10
-0.15642187500000002
20
31.075303125
30
0
0
VERTEX
8
0
10
-0.094171875
20
31.1169
30
0
0
VERTEX
8
0
10
-0.036296875
20
31.164396875
30
0
0
VERTEX
8
0
10
0.016643750000000002
20
31.217337500000003
30
0
0
VERTEX
8
0
10
0.064140625
20
31.275212500000002
30
0
0
VERTEX
8
0
10
0.1057375
20
31.3374625
30
0
0
VERTEX
8
0
10
0.14103125
20
31.403490625
30
0
0
VERTEX
8
0
10
0.16968125
20
31.472662500000002
30
0
0
VERTEX
8
0
10
0.191415625
20
31.54430625
30
0
0
VERTEX
8
0
10
0.20602187500000002
20
31.6177375
30
0
0
VERTEX
8
0
10
0.21335937500000002
20
31.692246875000002
30
0
0
VERTEX
8
0
10
0.21335937500000002
20
33.291115625
30
0
0
VERTEX
8
0
10
0.20602187500000002
20
33.365625
30
0
0
VERTEX
8
0
10
0.191415625
20
33.43905625
30
0
0
VERTEX
8
0
10
0.16968125
20
33.5107
30
0
0
VERTEX
8
0
10
0.14103125
20
33.579871875
30
0
0
VERTEX
8
0
10
0.1057375
20
33.645900000000005
30
0
0
VERTEX
8
0
10
0.064140625
20
33.70815
30
0
0
VERTEX
8
0
10
0.016643750000000002
20
33.766025
30
0
0
VERTEX
8
0
10
-0.036296875
20
33.818965625000004
30
0
0
VERTEX
8
0
10
-0.094171875
20
33.866462500000004
30
0
0
VERTEX
8
0
10
-0.15642187500000002
20
33.908059375
30
0
0
VERTEX
8
0
10
-0.22245
20
33.943353125
30
0
0
VERTEX
8
0
10
-0.29162187500000003
20
33.972003125
30
0
0
VERTEX
8
0
10
-0.36326562500000004
20
33.9937375
30
0
0
VERTEX
8
0
10
-0.43669687500000004
20
34.00834375
30
0
0
VERTEX
8
0
10
-0.51120625
20
34.01568125
30
0
0
VERTEX
8
0
10
-0.586075
20
34.01568125
30
0
0
VERTEX
8
0
10
-0.660584375
20
34.00834375
30
0
0
VERTEX
8
0
10
-0.7340156250000001
20
33.9937375
30
0
0
VERTEX
8
0
10
-0.8056593750000001
20
33.972003125
30
0
0
VERTEX
8
0
10
-0.8748312500000001
20
33.943353125
30
0
0
VERTEX
8
0
10
-0.940859375
20
33.908059375
30
0
0
VERTEX
8
0
10
-1.003109375
20
33.866462500000004
30
0
0
VERTEX
8
0
10
-1.060984375
20
33.818965625000004
30
0
0
VERTEX
8
0
10
-1.113925
20
33.766025
30
0
0
VERTEX
8
0
10
-1.161421875
20
33.70815
30
0
0
VERTEX
8
0
10
-1.20301875
20
33.645900000000005
30
0
0
VERTEX
8
0
10
-1.2383125000000001
20
33.579871875
30
0
0
VERTEX
8
0
10
-1.2669625
20
33.5107
30
0
0
VERTEX
8
0
10
-1.288696875
20
33.43905625
30
0
0
VERTEX
8
0
10
-1.303303125
20
33.365625
30
0
0
VERTEX
8
0
10
-1.310640625
20
33.291115625
30
0
0
VERTEX
8
0
10
-1.310640625
20
31.692246875000002
30
0
0
VERTEX
8
0
10
-1.303303125
20
31.6177375
30
0
0
VERTEX
8
0
10
-1.288696875
20
31.54430625
30
0
0
VERTEX
8
0
10
-1.2669625
20
31.472662500000002
30
0
0
VERTEX
8
0
10
-1.2383125000000001
20
31.403490625
30
0
0
VERTEX
8
0
10
-1.20301875
20
31.3374625
30
0
0
VERTEX
8
0
10
-1.161421875
20
31.275212500000002
30
0
0
VERTEX
8
0
10
-1.113925
20
31.217337500000003
30
0
0
VERTEX
8
0
10
-1.060984375
20
31.164396875
30
0
0
VERTEX
8
0
10
-1.003109375
20
31.1169
30
0
0
VERTEX
8
0
10
-0.940859375
20
31.075303125
30
0
0
VERTEX
8
0
10
-0.8748312500000001
20
31.040009375
30
0
0
VERTEX
8
0
10
-0.8056593750000001
20
31.011359375
30
0
0
VERTEX
8
0
10
-0.7340156250000001
20
30.989625
30
0
0
VERTEX
8
0
10
-0.660584375
20
30.97501875
30
0
0
VERTEX
8
0
10
-0.586075
20
30.967681250000002
30
0
0
VERTEX
8
0
10
-0.51120625
20
30.967681250000002
30
0
0
SEQEND
0
POLYLINE
66
1
8
16_copper
10
0.0
20
0.0
30
0.0
70
1
0
VERTEX
8
0
10
-0.477634375
20
30.60806875
30
0
0
VERTEX
8
0
10
-0.472440625
20
30.627450000000003
30
0
0
VERTEX
8
0
10
-0.472440625
20
30.971500000000002
30
0
0
VERTEX
8
0
10
-0.43669687500000004
20
30.97501875
30
0
0
VERTEX
8
0
10
-0.36326562500000004
20
30.989625
30
0
0
VERTEX
8
0
10
-0.29162187500000003
20
31.011359375
30
0
0
VERTEX
8
0
10
-0.22245
20
31.040009375
30
0
0
VERTEX
8
0
10
-0.15642187500000002
20
31.075303125
30
0
0
VERTEX
8
0
10
-0.094171875
20
31.1169
30
0
0
VERTEX
8
0
10
-0.036296875
20
31.164396875
30
0
0
VERTEX
8
0
10
0.016643750000000002
20
31.217337500000003
30
0
0
VERTEX
8
0
10
0.064140625
20
31.275212500000002
30
0
0
VERTEX
8
0
10
0.1057375
20
31.3374625
30
0
0
VERTEX
8
0
10
0.14103125
20
31.403490625
30
0
0
VERTEX
8
0
10
0.16968125
20
31.472662500000002
30
0
0
VERTEX
8
0
10
0.191415625
20
31.54430625
30
0
0
VERTEX
8
0
10
0.20602187500000002
20
31.6177375
30
0
0
VERTEX
8
0
10
0.21335937500000002
20
31.692246875000002
30
0
0
VERTEX
8
0
10
0.21335937500000002
20
33.291115625
30
0
0
VERTEX
8
0
10
0.20602187500000002
20
33.365625
30
0
0
VERTEX
8
0
10
0.191415625
20
33.43905625
30
0
0
VERTEX
8
0
10
0.16968125
20
33.5107
30
0
0
VERTEX
8
0
10
0.14103125
20
33.579871875
30
0
0
VERTEX
8
0
10
0.1057375
20
33.645900000000005
30
0
0
VERTEX
8
0
10
0.064140625
20
33.70815
30
0
0
VERTEX
8
0
10
0.016643750000000002
20
33.766025
30
0
0
VERTEX
8
0
10
-0.036296875
20
33.818965625000004
30
0
0
VERTEX
8
0
10
-0.094171875
20
33.866462500000004
30
0
0
VERTEX
8
0
10
-0.15642187500000002
20
33.908059375
30
0
0
VERTEX
8
0
10
-0.22245
20
33.943353125
30
0
0
VERTEX
8
0
10
-0.29162187500000003
20
33.972003125
30
0
0
VERTEX
8
0
10
-0.36326562500000004
20
33.9937375
30
0
0
VERTEX
8
0
10
-0.43669687500000004
20
34.00834375
30
0
0
VERTEX
8
0
10
-0.51120625
20
34.01568125
30
0
0
VERTEX
8
0
10
-0.586075
20
34.01568125
30
0
0
VERTEX
8
0
10
-0.660584375
20
34.00834375
30
0
0
VERTEX
8
0
10
-0.7340156250000001
20
33.9937375
30
0
0
VERTEX
8
0
10
-0.8056593750000001
20
33.972003125
30
0
0
VERTEX
8
0
10
-0.8748312500000001
20
33.943353125
30
0
0
VERTEX
8
0
10
-0.940859375
20
33.908059375
30
0
0
VERTEX
8
0
10
-1.003109375
20
33.866462500000004
30
0
0
VERTEX
8
0
10
-1.060984375
20
33.818965625000004
30
0
0
VERTEX
8
0
10
-1.113925
20
33.766025
30
0
0
VERTEX
8
0
10
-1.161421875
20
33.70815
30
0
0
VERTEX
8
0
10
-1.20301875
20
33.645900000000005
30
0
0
VERTEX
8
0
10
-1.2383125000000001
20
33.579871875
30
0
0
VERTEX
8
0
10
-1.2669625
20
33.5107
30
0
0
VERTEX
8
0
10
-1.288696875
20
33.43905625
30
0
0
VERTEX
8
0
10
-1.303303125
20
33.365625
30
0
0
VERTEX
8
0
10
-1.310640625
20
33.291115625
30
0
0
VERTEX
8
0
10
-1.310640625
20
31.692246875000002
30
0
0
VERTEX
8
0
10
-1.303303125
20
31.6177375
30
0
0
VERTEX
8
0
10
-1.288696875
20
31.54430625
30
0
0
VERTEX
8
0
10
-1.2669625
20
31.472662500000002
30
0
0
VERTEX
8
0
10
-1.2383125000000001
20
31.403490625
30
0
0
VERTEX
8
0
10
-1.20301875
20
31.3374625
30
0
0
VERTEX
8
0
10
-1.161421875
20
31.275212500000002
30
0
0
VERTEX
8
0
10
-1.113925
20
31.217337500000003
30
0
0
VERTEX
8
0
10
-1.060984375
20
31.164396875
30
0
0
VERTEX
8
0
10
-1.003109375
20
31.1169
30
0
0
VERTEX
8
0
10
-0.940859375
20
31.075303125
30
0
0
VERTEX
8
0
10
-0.8748312500000001
20
31.040009375
30
0
0
VERTEX
8
0
10
-0.8056593750000001
20
31.011359375
30
0
0
VERTEX
8
0
10
-0.7340156250000001
20
30.989625
30
0
0
VERTEX
8
0
10
-0.660584375
20
30.97501875
30
0
0
VERTEX
8
0
10
-0.624840625
20
30.971500000000002
30
0
0
VERTEX
8
0
10
-0.624840625
20
30.66904375
30
0
0
VERTEX
8
0
10
-1.418403125
20
29.87548125
30
0
0
VERTEX
8
0
10
-30.793878125000003
20
29.87548125
30
0
0
VERTEX
8
0
10
-31.714440625
20
30.796043750000003
30
0
0
VERTEX
8
0
10
-31.714440625
20
50.06231875
30
0
0
VERTEX
8
0
10
-29.803278125000002
20
51.97348125
30
0
0
VERTEX
8
0
10
-14.753403125
20
51.97348125
30
0
0
VERTEX
8
0
10
-13.223240625
20
50.44331875
30
0
0
VERTEX
8
0
10
-13.223240625
20
49.81448125
30
0
0
VERTEX
8
0
10
-13.441628125000001
20
49.81448125
30
0
0
VERTEX
8
0
10
-13.858240625
20
49.39786875
30
0
0
VERTEX
8
0
10
-13.858240625
20
48.80869375
30
0
0
VERTEX
8
0
10
-13.441628125000001
20
48.392081250000004
30
0
0
VERTEX
8
0
10
-12.852453125
20
48.392081250000004
30
0
0
VERTEX
8
0
10
-12.435840625
20
48.80869375
30
0
0
VERTEX
8
0
10
-12.435840625
20
49.39786875
30
0
0
VERTEX
8
0
10
-12.852453125
20
49.81448125
30
0
0
VERTEX
8
0
10
-13.070840625
20
49.81448125
30
0
0
VERTEX
8
0
10
-13.070840625
20
50.4849125
30
0
0
VERTEX
8
0
10
-13.076034375
20
50.50429375
30
0
0
VERTEX
8
0
10
-13.086065625
20
50.52166875
30
0
0
VERTEX
8
0
10
-14.675053125000002
20
52.110656250000005
30
0
0
VERTEX
8
0
10
-14.692428125000001
20
52.1206875
30
0
0
VERTEX
8
0
10
-14.711809375000001
20
52.12588125
30
0
0
VERTEX
8
0
10
-29.844871875000003
20
52.12588125
30
0
0
VERTEX
8
0
10
-29.864253125
20
52.1206875
30
0
0
VERTEX
8
0
10
-29.881628125000002
20
52.110656250000005
30
0
0
VERTEX
8
0
10
-31.851615625
20
50.14066875
30
0
0
VERTEX
8
0
10
-31.861646875
20
50.12329375
30
0
0
VERTEX
8
0
10
-31.866840625000002
20
50.1039125
30
0
0
VERTEX
8
0
10
-31.866840625000002
20
30.754450000000002
30
0
0
VERTEX
8
0
10
-31.861646875
20
30.73506875
30
0
0
VERTEX
8
0
10
-31.851615625
20
30.717693750000002
30
0
0
VERTEX
8
0
10
-30.872228125000003
20
29.73830625
30
0
0
VERTEX
8
0
10
-30.854853125
20
29.728275
30
0
0
VERTEX
8
0
10
-30.835471875000003
20
29.72308125
30
0
0
VERTEX
8
0
10
-1.3768093750000001
20
29.72308125
30
0
0
VERTEX
8
0
10
-1.357428125
20
29.728275
30
0
0
VERTEX
8
0
10
-1.340053125
20
29.73830625
30
0
0
VERTEX
8
0
10
-0.48766562500000005
20
30.59069375
30
0
0
SEQEND
0
POLYLINE
66
1
8
1_copper
10
0.0
20
0.0
30
0.0
70
1
0
VERTEX
8
0
10
-25.742559375000003
20
48.398931250000004
30
0
0
VERTEX
8
0
10
-25.674025
20
48.4125625
30
0
0
VERTEX
8
0
10
-25.607156250000003
20
48.432846875
30
0
0
VERTEX
8
0
10
-25.542596875
20
48.459587500000005
30
0
0
VERTEX
8
0
10
-25.480968750000002
20
48.492528125
30
0
0
VERTEX
8
0
10
-25.422868750000003
20
48.53135
30
0
0
VERTEX
8
0
10
-25.368853125
20
48.57568125
30
0
0
VERTEX
8
0
10
-25.319440625000002
20
48.625093750000005
30
0
0
VERTEX
8
0
10
-25.275109375
20
48.679109375
30
0
0
VERTEX
8
0
10
-25.2362875
20
48.737209375
30
0
0
VERTEX
8
0
10
-25.203346875
20
48.798837500000005
30
0
0
VERTEX
8
0
10
-25.176606250000003
20
48.863396875
30
0
0
VERTEX
8
0
10
-25.156321875
20
48.930265625000004
30
0
0
VERTEX
8
0
10
-25.142690625
20
48.9988
30
0
0
VERTEX
8
0
10
-25.135840625
20
49.068343750000004
30
0
0
VERTEX
8
0
10
-25.135840625
20
49.13821875
30
0
0
VERTEX
8
0
10
-25.142690625
20
49.2077625
30
0
0
VERTEX
8
0
10
-25.156321875
20
49.276296875
30
0
0
VERTEX
8
0
10
-25.176606250000003
20
49.343165625000005
30
0
0
VERTEX
8
0
10
-25.203346875
20
49.407725
30
0
0
VERTEX
8
0
10
-25.2362875
20
49.469353125000005
30
0
0
VERTEX
8
0
10
-25.275109375
20
49.527453125
30
0
0
VERTEX
8
0
10
-25.319440625000002
20
49.58146875
30
0
0
VERTEX
8
0
10
-25.368853125
20
49.63088125
30
0
0
VERTEX
8
0
10
-25.422868750000003
20
49.6752125
30
0
0
VERTEX
8
0
10
-25.480968750000002
20
49.714034375000004
30
0
0
VERTEX
8
0
10
-25.542596875
20
49.746975
30
0
0
VERTEX
8
0
10
-25.607156250000003
20
49.773715625
30
0
0
VERTEX
8
0
10
-25.674025
20
49.794000000000004
30
0
0
VERTEX
8
0
10
-25.742559375000003
20
49.80763125
30
0
0
VERTEX
8
0
10
-25.812103125
20
49.81448125
30
0
0
VERTEX
8
0
10
-25.881978125
20
49.81448125
30
0
0
VERTEX
8
0
10
-25.951521875
20
49.80763125
30
0
0
VERTEX
8
0
10
-26.02005625
20
49.794000000000004
30
0
0
VERTEX
8
0
10
-26.086925
20
49.773715625
30
0
0
VERTEX
8
0
10
-26.151484375000003
20
49.746975
30
0
0
VERTEX
8
0
10
-26.2131125
20
49.714034375000004
30
0
0
VERTEX
8
0
10
-26.2712125
20
49.6752125
30
0
0
VERTEX
8
0
10
-26.325228125000002
20
49.63088125
30
0
0
VERTEX
8
0
10
-26.374640625
20
49.58146875
30
0
0
VERTEX
8
0
10
-26.418971875
20
49.527453125
30
0
0
VERTEX
8
0
10
-26.45779375
20
49.469353125000005
30
0
0
VERTEX
8
0
10
-26.490734375000002
20
49.407725
30
0
0
VERTEX
8
0
10
-26.517475
20
49.343165625000005
30
0
0
VERTEX
8
0
10
-26.537759375
20
49.276296875
30
0
0
VERTEX
8
0
10
-26.551390625
20
49.2077625
30
0
0
VERTEX
8
0
10
-26.558240625
20
49.13821875
30
0
0
VERTEX
8
0
10
-26.558240625
20
49.068343750000004
30
0
0
VERTEX
8
0
10
-26.551390625
20
48.9988
30
0
0
VERTEX
8
0
10
-26.537759375
20
48.930265625000004
30
0
0
VERTEX
8
0
10
-26.517475
20
48.863396875
30
0
0
VERTEX
8
0
10
-26.490734375000002
20
48.798837500000005
30
0
0
VERTEX
8
0
10
-26.45779375
20
48.737209375
30
0
0
VERTEX
8
0
10
-26.418971875
20
48.679109375
30
0
0
VERTEX
8
0
10
-26.374640625
20
48.625093750000005
30
0
0
VERTEX
8
0
10
-26.325228125000002
20
48.57568125
30
0
0
VERTEX
8
0
10
-26.2712125
20
48.53135
30
0
0
VERTEX
8
0
10
-26.2131125
20
48.492528125
30
0
0
VERTEX
8
0
10
-26.151484375000003
20
48.459587500000005
30
0
0
VERTEX
8
0
10
-26.086925
20
48.432846875
30
0
0
VERTEX
8
0
10
-26.02005625
20
48.4125625
30
0
0
VERTEX
8
0
10
-25.951521875
20
48.398931250000004
30
0
0
VERTEX
8
0
10
-25.881978125
20
48.392081250000004
30
0
0
VERTEX
8
0
10
-25.812103125
20
48.392081250000004
30
0
0
SEQEND
0
POLYLINE
66
1
8
1_copper
10
0.0
20
0.0
30
0.0
70
1
0
VERTEX
8
0
10
17.978303125
20
31.20361875
30
0
0
VERTEX
8
0
10
18.051734375000002
20
31.218225
30
0
0
VERTEX
8
0
10
18.123378125000002
20
31.239959375
30
0
0
VERTEX
8
0
10
18.19255
20
31.268609375
30
0
0
VERTEX
8
0
10
18.258578125
20
31.303903125
30
0
0
VERTEX
8
0
10
18.320828125000002
20
31.3455
30
0
0
VERTEX
8
0
10
18.378703125
20
31.392996875
30
0
0
VERTEX
8
0
10
18.43164375
20
31.445937500000003
30
0
0
VERTEX
8
0
10
18.479140625
20
31.503812500000002
30
0
0
VERTEX
8
0
10
18.5207375
20
31.5660625
30
0
0
VERTEX
8
0
10
18.55603125
20
31.632090625
30
0
0
VERTEX
8
0
10
18.58468125
20
31.701262500000002
30
0
0
VERTEX
8
0
10
18.606415625
20
31.772906250000002
30
0
0
VERTEX
8
0
10
18.621021875
20
31.8463375
30
0
0
VERTEX
8
0
10
18.628359375000002
20
31.920846875000002
30
0
0
VERTEX
8
0
10
18.628359375000002
20
33.519715625
30
0
0
VERTEX
8
0
10
18.621021875
20
33.594225
30
0
0
VERTEX
8
0
10
18.606415625
20
33.66765625
30
0
0
VERTEX
8
0
10
18.58468125
20
33.7393
30
0
0
VERTEX
8
0
10
18.55603125
20
33.808471875
30
0
0
VERTEX
8
0
10
18.5207375
20
33.874500000000005
30
0
0
VERTEX
8
0
10
18.479140625
20
33.93675
30
0
0
VERTEX
8
0
10
18.43164375
20
33.994625
30
0
0
VERTEX
8
0
10
18.378703125
20
34.047565625000004
30
0
0
VERTEX
8
0
10
18.320828125000002
20
34.095062500000004
30
0
0
VERTEX
8
0
10
18.258578125
20
34.136659375
30
0
0
VERTEX
8
0
10
18.19255
20
34.171953125
30
0
0
VERTEX
8
0
10
18.123378125000002
20
34.200603125
30
0
0
VERTEX
8
0
10
18.051734375000002
20
34.2223375
30
0
0
VERTEX
8
0
10
17.978303125
20
34.23694375
30
0
0
VERTEX
8
0
10
17.903793750000002
20
34.24428125
30
0
0
VERTEX
8
0
10
17.828925
20
34.24428125
30
0
0
VERTEX
8
0
10
17.754415625
20
34.23694375
30
0
0
VERTEX
8
0
10
17.680984375
20
34.2223375
30
0
0
VERTEX
8
0
10
17.609340625
20
34.200603125
30
0
0
VERTEX
8
0
10
17.54016875
20
34.171953125
30
0
0
VERTEX
8
0
10
17.474140625
20
34.136659375
30
0
0
VERTEX
8
0
10
17.411890625
20
34.095062500000004
30
0
0
VERTEX
8
0
10
17.354015625000002
20
34.047565625000004
30
0
0
VERTEX
8
0
10
17.301075
20
33.994625
30
0
0
VERTEX
8
0
10
17.253578125
20
33.93675
30
0
0
VERTEX
8
0
10
17.21198125
20
33.874500000000005
30
0
0
VERTEX
8
0
10
17.1766875
20
33.808471875
30
0
0
VERTEX
8
0
10
17.1480375
20
33.7393
30
0
0
VERTEX
8
0
10
17.126303125
20
33.66765625
30
0
0
VERTEX
8
0
10
17.111696875
20
33.594225
30
0
0
VERTEX
8
0
10
17.104359375
20
33.519715625
30
0
0
VERTEX
8
0
10
17.104359375
20
31.920846875000002
30
0
0
VERTEX
8
0
10
17.111696875
20
31.8463375
30
0
0
VERTEX
8
0
10
17.126303125
20
31.772906250000002
30
0
0
VERTEX
8
0
10
17.1480375
20
31.701262500000002
30
0
0
VERTEX
8
0
10
17.1766875
20
31.632090625
30
0
0
VERTEX
8
0
10
17.21198125
20
31.5660625
30
0
0
VERTEX
8
0
10
17.253578125
20
31.503812500000002
30
0
0
VERTEX
8
0
10
17.301075
20
31.445937500000003
30
0
0
VERTEX
8
0
10
17.354015625000002
20
31.392996875
30
0
0
VERTEX
8
0
10
17.411890625
20
31.3455
30
0
0
VERTEX
8
0
10
17.474140625
20
31.303903125
30
0
0
VERTEX
8
0
10
17.54016875
20
31.268609375
30
0
0
VERTEX
8
0
10
17.609340625
20
31.239959375
30
0
0
VERTEX
8
0
10
17.680984375
20
31.218225
30
0
0
VERTEX
8
0
10
17.754415625
20
31.20361875
30
0
0
VERTEX
8
0
10
17.828925
20
31.196281250000002
30
0
0
VERTEX
8
0
10
17.903793750000002
20
31.196281250000002
30
0
0
SEQEND
0
POLYLINE
66
1
8
16_copper
10
0.0
20
0.0
30
0.0
70
1
0
VERTEX
8
0
10
17.937365625
20
41.56349375
30
0
0
VERTEX
8
0
10
17.927334375
20
41.58086875
30
0
0
VERTEX
8
0
10
16.008146875
20
43.50005625
30
0
0
VERTEX
8
0
10
15.990771875
20
43.510087500000004
30
0
0
VERTEX
8
0
10
15.971390625000002
20
43.51528125
30
0
0
VERTEX
8
0
10
15.951328125000002
20
43.51528125
30
0
0
VERTEX
8
0
10
15.931946875000001
20
43.510087500000004
30
0
0
VERTEX
8
0
10
15.914571875
20
43.50005625
30
0
0
VERTEX
8
0
10
15.900384375000002
20
43.48586875
30
0
0
VERTEX
8
0
10
15.890353125
20
43.46849375
30
0
0
VERTEX
8
0
10
15.889278125
20
43.46448125
30
0
0
VERTEX
8
0
10
-26.755278125
20
43.46448125
30
0
0
VERTEX
8
0
10
-28.082240625
20
44.79144375
30
0
0
VERTEX
8
0
10
-28.082240625
20
48.30971875
30
0
0
VERTEX
8
0
10
-27.364878125
20
49.02708125
30
0
0
VERTEX
8
0
10
-26.554175
20
49.02708125
30
0
0
VERTEX
8
0
10
-26.551390625
20
48.9988
30
0
0
VERTEX
8
0
10
-26.537759375
20
48.930265625000004
30
0
0
VERTEX
8
0
10
-26.517475
20
48.863396875
30
0
0
VERTEX
8
0
10
-26.490734375000002
20
48.798837500000005
30
0
0
VERTEX
8
0
10
-26.45779375
20
48.737209375
30
0
0
VERTEX
8
0
10
-26.418971875
20
48.679109375
30
0
0
VERTEX
8
0
10
-26.374640625
20
48.625093750000005
30
0
0
VERTEX
8
0
10
-26.325228125000002
20
48.57568125
30
0
0
VERTEX
8
0
10
-26.2712125
20
48.53135
30
0
0
VERTEX
8
0
10
-26.2131125
20
48.492528125
30
0
0
VERTEX
8
0
10
-26.151484375000003
20
48.459587500000005
30
0
0
VERTEX
8
0
10
-26.086925
20
48.432846875
30
0
0
VERTEX
8
0
10
-26.02005625
20
48.4125625
30
0
0
VERTEX
8
0
10
-25.951521875
20
48.398931250000004
30
0
0
VERTEX
8
0
10
-25.881978125
20
48.392081250000004
30
0
0
VERTEX
8
0
10
-25.812103125
20
48.392081250000004
30
0
0
VERTEX
8
0
10
-25.742559375000003
20
48.398931250000004
30
0
0
VERTEX
8
0
10
-25.674025
20
48.4125625
30
0
0
VERTEX
8
0
10
-25.607156250000003
20
48.432846875
30
0
0
VERTEX
8
0
10
-25.542596875
20
48.459587500000005
30
0
0
VERTEX
8
0
10
-25.480968750000002
20
48.492528125
30
0
0
VERTEX
8
0
10
-25.422868750000003
20
48.53135
30
0
0
VERTEX
8
0
10
-25.368853125
20
48.57568125
30
0
0
VERTEX
8
0
10
-25.319440625000002
20
48.625093750000005
30
0
0
VERTEX
8
0
10
-25.275109375
20
48.679109375
30
0
0
VERTEX
8
0
10
-25.2362875
20
48.737209375
30
0
0
VERTEX
8
0
10
-25.203346875
20
48.798837500000005
30
0
0
VERTEX
8
0
10
-25.176606250000003
20
48.863396875
30
0
0
VERTEX
8
0
10
-25.156321875
20
48.930265625000004
30
0
0
VERTEX
8
0
10
-25.142690625
20
48.9988
30
0
0
VERTEX
8
0
10
-25.135840625
20
49.068343750000004
30
0
0
VERTEX
8
0
10
-25.135840625
20
49.13821875
30
0
0
VERTEX
8
0
10
-25.142690625
20
49.2077625
30
0
0
VERTEX
8
0
10
-25.156321875
20
49.276296875
30
0
0
VERTEX
8
0
10
-25.176606250000003
20
49.343165625000005
30
0
0
VERTEX
8
0
10
-25.203346875
20
49.407725
30
0
0
VERTEX
8
0
10
-25.2362875
20
49.469353125000005
30
0
0
VERTEX
8
0
10
-25.275109375
20
49.527453125
30
0
0
VERTEX
8
0
10
-25.319440625000002
20
49.58146875
30
0
0
VERTEX
8
0
10
-25.368853125
20
49.63088125
30
0
0
VERTEX
8
0
10
-25.422868750000003
20
49.6752125
30
0
0
VERTEX
8
0
10
-25.480968750000002
20
49.714034375000004
30
0
0
VERTEX
8
0
10
-25.542596875
20
49.746975
30
0
0
VERTEX
8
0
10
-25.607156250000003
20
49.773715625
30
0
0
VERTEX
8
0
10
-25.674025
20
49.794000000000004
30
0
0
VERTEX
8
0
10
-25.742559375000003
20
49.80763125
30
0
0
VERTEX
8
0
10
-25.812103125
20
49.81448125
30
0
0
VERTEX
8
0
10
-25.881978125
20
49.81448125
30
0
0
VERTEX
8
0
10
-25.951521875
20
49.80763125
30
0
0
VERTEX
8
0
10
-26.02005625
20
49.794000000000004
30
0
0
VERTEX
8
0
10
-26.086925
20
49.773715625
30
0
0
VERTEX
8
0
10
-26.151484375000003
20
49.746975
30
0
0
VERTEX
8
0
10
-26.2131125
20
49.714034375000004
30
0
0
VERTEX
8
0
10
-26.2712125
20
49.6752125
30
0
0
VERTEX
8
0
10
-26.325228125000002
20
49.63088125
30
0
0
VERTEX
8
0
10
-26.374640625
20
49.58146875
30
0
0
VERTEX
8
0
10
-26.418971875
20
49.527453125
30
0
0
VERTEX
8
0
10
-26.45779375
20
49.469353125000005
30
0
0
VERTEX
8
0
10
-26.490734375000002
20
49.407725
30
0
0
VERTEX
8
0
10
-26.517475
20
49.343165625000005
30
0
0
VERTEX
8
0
10
-26.537759375
20
49.276296875
30
0
0
VERTEX
8
0
10
-26.551390625
20
49.2077625
30
0
0
VERTEX
8
0
10
-26.554175
20
49.17948125
30
0
0
VERTEX
8
0
10
-27.406471875
20
49.17948125
30
0
0
VERTEX
8
0
10
-27.425853125
20
49.174287500000005
30
0
0
VERTEX
8
0
10
-27.443228125
20
49.16425625
30
0
0
VERTEX
8
0
10
-28.219415625
20
48.38806875
30
0
0
VERTEX
8
0
10
-28.229446875
20
48.37069375
30
0
0
VERTEX
8
0
10
-28.234640625
20
48.3513125
30
0
0
VERTEX
8
0
10
-28.234640625
20
44.74985
30
0
0
VERTEX
8
0
10
-28.229446875
20
44.73046875
30
0
0
VERTEX
8
0
10
-28.219415625
20
44.71309375
30
0
0
VERTEX
8
0
10
-26.833628125
20
43.32730625
30
0
0
VERTEX
8
0
10
-26.816253125000003
20
43.317275
30
0
0
VERTEX
8
0
10
-26.796871875
20
43.31208125
30
0
0
VERTEX
8
0
10
15.980596875000002
20
43.31208125
30
0
0
VERTEX
8
0
10
17.790159375
20
41.50251875
30
0
0
VERTEX
8
0
10
17.790159375
20
34.2404625
30
0
0
VERTEX
8
0
10
17.754415625
20
34.23694375
30
0
0
VERTEX
8
0
10
17.680984375
20
34.2223375
30
0
0
VERTEX
8
0
10
17.609340625
20
34.200603125
30
0
0
VERTEX
8
0
10
17.54016875
20
34.171953125
30
0
0
VERTEX
8
0
10
17.474140625
20
34.136659375
30
0
0
VERTEX
8
0
10
17.411890625
20
34.095062500000004
30
0
0
VERTEX
8
0
10
17.354015625000002
20
34.047565625000004
30
0
0
VERTEX
8
0
10
17.301075
20
33.994625
30
0
0
VERTEX
8
0
10
17.253578125
20
33.93675
30
0
0
VERTEX
8
0
10
17.21198125
20
33.874500000000005
30
0
0
VERTEX
8
0
10
17.1766875
20
33.808471875
30
0
0
VERTEX
8
0
10
17.1480375
20
33.7393
30
0
0
VERTEX
8
0
10
17.126303125
20
33.66765625
30
0
0
VERTEX
8
0
10
17.111696875
20
33.594225
30
0
0
VERTEX
8
0
10
17.104359375
20
33.519715625
30
0
0
VERTEX
8
0
10
17.104359375
20
31.920846875000002
30
0
0
VERTEX
8
0
10
17.111696875
20
31.8463375
30
0
0
VERTEX
8
0
10
17.126303125
20
31.772906250000002
30
0
0
VERTEX
8
0
10
17.1480375
20
31.701262500000002
30
0
0
VERTEX
8
0
10
17.1766875
20
31.632090625
30
0
0
VERTEX
8
0
10
17.21198125
20
31.5660625
30
0
0
VERTEX
8
0
10
17.253578125
20
31.503812500000002
30
0
0
VERTEX
8
0
10
17.301075
20
31.445937500000003
30
0
0
VERTEX
8
0
10
17.354015625000002
20
31.392996875
30
0
0
VERTEX
8
0
10
17.411890625
20
31.3455
30
0
0
VERTEX
8
0
10
17.474140625
20
31.303903125
30
0
0
VERTEX
8
0
10
17.54016875
20
31.268609375
30
0
0
VERTEX
8
0
10
17.609340625
20
31.239959375
30
0
0
VERTEX
8
0
10
17.680984375
20
31.218225
30
0
0
VERTEX
8
0
10
17.754415625
20
31.20361875
30
0
0
VERTEX
8
0
10
17.828925
20
31.196281250000002
30
0
0
VERTEX
8
0
10
17.903793750000002
20
31.196281250000002
30
0
0
VERTEX
8
0
10
17.978303125
20
31.20361875
30
0
0
VERTEX
8
0
10
18.051734375000002
20
31.218225
30
0
0
VERTEX
8
0
10
18.123378125000002
20
31.239959375
30
0
0
VERTEX
8
0
10
18.19255
20
31.268609375
30
0
0
VERTEX
8
0
10
18.258578125
20
31.303903125
30
0
0
VERTEX
8
0
10
18.320828125000002
20
31.3455
30
0
0
VERTEX
8
0
10
18.378703125
20
31.392996875
30
0
0
VERTEX
8
0
10
18.43164375
20
31.445937500000003
30
0
0
VERTEX
8
0
10
18.479140625
20
31.503812500000002
30
0
0
VERTEX
8
0
10
18.5207375
20
31.5660625
30
0
0
VERTEX
8
0
10
18.55603125
20
31.632090625
30
0
0
VERTEX
8
0
10
18.58468125
20
31.701262500000002
30
0
0
VERTEX
8
0
10
18.606415625
20
31.772906250000002
30
0
0
VERTEX
8
0
10
18.621021875
20
31.8463375
30
0
0
VERTEX
8
0
10
18.628359375000002
20
31.920846875000002
30
0
0
VERTEX
8
0
10
18.628359375000002
20
33.519715625
30
0
0
VERTEX
8
0
10
18.621021875
20
33.594225
30
0
0
VERTEX
8
0
10
18.606415625
20
33.66765625
30
0
0
VERTEX
8
0
10
18.58468125
20
33.7393
30
0
0
VERTEX
8
0
10
18.55603125
20
33.808471875
30
0
0
VERTEX
8
0
10
18.5207375
20
33.874500000000005
30
0
0
VERTEX
8
0
10
18.479140625
20
33.93675
30
0
0
VERTEX
8
0
10
18.43164375
20
33.994625
30
0
0
VERTEX
8
0
10
18.378703125
20
34.047565625000004
30
0
0
VERTEX
8
0
10
18.320828125000002
20
34.095062500000004
30
0
0
VERTEX
8
0
10
18.258578125
20
34.136659375
30
0
0
VERTEX
8
0
10
18.19255
20
34.171953125
30
0
0
VERTEX
8
0
10
18.123378125000002
20
34.200603125
30
0
0
VERTEX
8
0
10
18.051734375000002
20
34.2223375
30
0
0
VERTEX
8
0
10
17.978303125
20
34.23694375
30
0
0
VERTEX
8
0
10
17.942559375000002
20
34.2404625
30
0
0
VERTEX
8
0
10
17.942559375000002
20
41.544112500000004
30
0
0
SEQEND
0
POLYLINE
66
1
8
1_copper
10
0.0
20
0.0
30
0.0
70
1
0
VERTEX
8
0
10
12.857365625
20
40.64909375
30
0
0
VERTEX
8
0
10
12.847334375
20
40.66646875
30
0
0
VERTEX
8
0
10
11.004346875000001
20
42.50945625
30
0
0
VERTEX
8
0
10
10.986971875
20
42.519487500000004
30
0
0
VERTEX
8
0
10
10.967590625
20
42.52468125
30
0
0
VERTEX
8
0
10
-13.877478125000001
20
42.52468125
30
0
0
VERTEX
8
0
10
-15.610840625000002
20
44.25804375
30
0
0
VERTEX
8
0
10
-15.610840625000002
20
45.852081250000005
30
0
0
VERTEX
8
0
10
-15.392453125000001
20
45.852081250000005
30
0
0
VERTEX
8
0
10
-14.975840625
20
46.268693750000004
30
0
0
VERTEX
8
0
10
-14.975840625
20
46.85786875
30
0
0
VERTEX
8
0
10
-15.392453125000001
20
47.27448125
30
0
0
VERTEX
8
0
10
-15.981628125
20
47.27448125
30
0
0
VERTEX
8
0
10
-16.398240625
20
46.85786875
30
0
0
VERTEX
8
0
10
-16.398240625
20
46.268693750000004
30
0
0
VERTEX
8
0
10
-15.981628125
20
45.852081250000005
30
0
0
VERTEX
8
0
10
-15.763240625
20
45.852081250000005
30
0
0
VERTEX
8
0
10
-15.763240625
20
44.21645
30
0
0
VERTEX
8
0
10
-15.758046875000002
20
44.19706875
30
0
0
VERTEX
8
0
10
-15.748015625
20
44.179693750000006
30
0
0
VERTEX
8
0
10
-13.955828125
20
42.38750625
30
0
0
VERTEX
8
0
10
-13.938453125
20
42.377475000000004
30
0
0
VERTEX
8
0
10
-13.919071875
20
42.37228125
30
0
0
VERTEX
8
0
10
10.925996875000001
20
42.37228125
30
0
0
VERTEX
8
0
10
12.710159375
20
40.58811875
30
0
0
VERTEX
8
0
10
12.710159375
20
34.2404625
30
0
0
VERTEX
8
0
10
12.674415625
20
34.23694375
30
0
0
VERTEX
8
0
10
12.600984375000001
20
34.2223375
30
0
0
VERTEX
8
0
10
12.529340625000001
20
34.200603125
30
0
0
VERTEX
8
0
10
12.460168750000001
20
34.171953125
30
0
0
VERTEX
8
0
10
12.394140625
20
34.136659375
30
0
0
VERTEX
8
0
10
12.331890625
20
34.095062500000004
30
0
0
VERTEX
8
0
10
12.274015625
20
34.047565625000004
30
0
0
VERTEX
8
0
10
12.221075
20
33.994625
30
0
0
VERTEX
8
0
10
12.173578125
20
33.93675
30
0
0
VERTEX
8
0
10
12.13198125
20
33.874500000000005
30
0
0
VERTEX
8
0
10
12.0966875
20
33.808471875
30
0
0
VERTEX
8
0
10
12.0680375
20
33.7393
30
0
0
VERTEX
8
0
10
12.046303125000001
20
33.66765625
30
0
0
VERTEX
8
0
10
12.031696875
20
33.594225
30
0
0
VERTEX
8
0
10
12.024359375000001
20
33.519715625
30
0
0
VERTEX
8
0
10
12.024359375000001
20
31.920846875000002
30
0
0
VERTEX
8
0
10
12.031696875
20
31.8463375
30
0
0
VERTEX
8
0
10
12.046303125000001
20
31.772906250000002
30
0
0
VERTEX
8
0
10
12.0680375
20
31.701262500000002
30
0
0
VERTEX
8
0
10
12.0966875
20
31.632090625
30
0
0
VERTEX
8
0
10
12.13198125
20
31.5660625
30
0
0
VERTEX
8
0
10
12.173578125
20
31.503812500000002
30
0
0
VERTEX
8
0
10
12.221075
20
31.445937500000003
30
0
0
VERTEX
8
0
10
12.274015625
20
31.392996875
30
0
0
VERTEX
8
0
10
12.331890625
20
31.3455
30
0
0
VERTEX
8
0
10
12.394140625
20
31.303903125
30
0
0
VERTEX
8
0
10
12.460168750000001
20
31.268609375
30
0
0
VERTEX
8
0
10
12.529340625000001
20
31.239959375
30
0
0
VERTEX
8
0
10
12.600984375000001
20
31.218225
30
0
0
VERTEX
8
0
10
12.674415625
20
31.20361875
30
0
0
VERTEX
8
0
10
12.748925
20
31.196281250000002
30
0
0
VERTEX
8
0
10
12.82379375
20
31.196281250000002
30
0
0
VERTEX
8
0
10
12.898303125
20
31.20361875
30
0
0
VERTEX
8
0
10
12.971734375
20
31.218225
30
0
0
VERTEX
8
0
10
13.043378125
20
31.239959375
30
0
0
VERTEX
8
0
10
13.11255
20
31.268609375
30
0
0
VERTEX
8
0
10
13.178578125000001
20
31.303903125
30
0
0
VERTEX
8
0
10
13.240828125
20
31.3455
30
0
0
VERTEX
8
0
10
13.298703125000001
20
31.392996875
30
0
0
VERTEX
8
0
10
13.351643750000001
20
31.445937500000003
30
0
0
VERTEX
8
0
10
13.399140625000001
20
31.503812500000002
30
0
0
VERTEX
8
0
10
13.440737500000001
20
31.5660625
30
0
0
VERTEX
8
0
10
13.47603125
20
31.632090625
30
0
0
VERTEX
8
0
10
13.50468125
20
31.701262500000002
30
0
0
VERTEX
8
0
10
13.526415625
20
31.772906250000002
30
0
0
VERTEX
8
0
10
13.541021875
20
31.8463375
30
0
0
VERTEX
8
0
10
13.548359375
20
31.920846875000002
30
0
0
VERTEX
8
0
10
13.548359375
20
33.519715625
30
0
0
VERTEX
8
0
10
13.541021875
20
33.594225
30
0
0
VERTEX
8
0
10
13.526415625
20
33.66765625
30
0
0
VERTEX
8
0
10
13.50468125
20
33.7393
30
0
0
VERTEX
8
0
10
13.47603125
20
33.808471875
30
0
0
VERTEX
8
0
10
13.440737500000001
20
33.874500000000005
30
0
0
VERTEX
8
0
10
13.399140625000001
20
33.93675
30
0
0
VERTEX
8
0
10
13.351643750000001
20
33.994625
30
0
0
VERTEX
8
0
10
13.298703125000001
20
34.047565625000004
30
0
0
VERTEX
8
0
10
13.240828125
20
34.095062500000004
30
0
0
VERTEX
8
0
10
13.178578125000001
20
34.136659375
30
0
0
VERTEX
8
0
10
13.11255
20
34.171953125
30
0
0
VERTEX
8
0
10
13.043378125
20
34.200603125
30
0
0
VERTEX
8
0
10
12.971734375
20
34.2223375
30
0
0
VERTEX
8
0
10
12.898303125
20
34.23694375
30
0
0
VERTEX
8
0
10
12.862559375
20
34.2404625
30
0
0
VERTEX
8
0
10
12.862559375
20
40.629712500000004
30
0
0
SEQEND
0
POLYLINE
66
1
8
16_copper
10
0.0
20
0.0
30
0.0
70
1
0
VERTEX
8
0
10
-14.975840625
20
46.268693750000004
30
0
0
VERTEX
8
0
10
-14.975840625
20
46.85786875
30
0
0
VERTEX
8
0
10
-15.392453125000001
20
47.27448125
30
0
0
VERTEX
8
0
10
-15.981628125
20
47.27448125
30
0
0
VERTEX
8
0
10
-16.398240625
20
46.85786875
30
0
0
VERTEX
8
0
10
-16.398240625
20
46.268693750000004
30
0
0
VERTEX
8
0
10
-15.981628125
20
45.852081250000005
30
0
0
VERTEX
8
0
10
-15.392453125000001
20
45.852081250000005
30
0
0
SEQEND
0
POLYLINE
66
1
8
16_copper
10
0.0
20
0.0
30
0.0
70
1
0
VERTEX
8
0
10
12.898303125
20
31.20361875
30
0
0
VERTEX
8
0
10
12.971734375
20
31.218225
30
0
0
VERTEX
8
0
10
13.043378125
20
31.239959375
30
0
0
VERTEX
8
0
10
13.11255
20
31.268609375
30
0
0
VERTEX
8
0
10
13.178578125000001
20
31.303903125
30
0
0
VERTEX
8
0
10
13.240828125
20
31.3455
30
0
0
VERTEX
8
0
10
13.298703125000001
20
31.392996875
30
0
0
VERTEX
8
0
10
13.351643750000001
20
31.445937500000003
30
0
0
VERTEX
8
0
10
13.399140625000001
20
31.503812500000002
30
0
0
VERTEX
8
0
10
13.440737500000001
20
31.5660625
30
0
0
VERTEX
8
0
10
13.47603125
20
31.632090625
30
0
0
VERTEX
8
0
10
13.50468125
20
31.701262500000002
30
0
0
VERTEX
8
0
10
13.526415625
20
31.772906250000002
30
0
0
VERTEX
8
0
10
13.541021875
20
31.8463375
30
0
0
VERTEX
8
0
10
13.548359375
20
31.920846875000002
30
0
0
VERTEX
8
0
10
13.548359375
20
33.519715625
30
0
0
VERTEX
8
0
10
13.541021875
20
33.594225
30
0
0
VERTEX
8
0
10
13.526415625
20
33.66765625
30
0
0
VERTEX
8
0
10
13.50468125
20
33.7393
30
0
0
VERTEX
8
0
10
13.47603125
20
33.808471875
30
0
0
VERTEX
8
0
10
13.440737500000001
20
33.874500000000005
30
0
0
VERTEX
8
0
10
13.399140625000001
20
33.93675
30
0
0
VERTEX
8
0
10
13.351643750000001
20
33.994625
30
0
0
VERTEX
8
0
10
13.298703125000001
20
34.047565625000004
30
0
0
VERTEX
8
0
10
13.240828125
20
34.095062500000004
30
0
0
VERTEX
8
0
10
13.178578125000001
20
34.136659375
30
0
0
VERTEX
8
0
10
13.11255
20
34.171953125
30
0
0
VERTEX
8
0
10
13.043378125
20
34.200603125
30
0
0
VERTEX
8
0
10
12.971734375
20
34.2223375
30
0
0
VERTEX
8
0
10
12.898303125
20
34.23694375
30
0
0
VERTEX
8
0
10
12.82379375
20
34.24428125
30
0
0
VERTEX
8
0
10
12.748925
20
34.24428125
30
0
0
VERTEX
8
0
10
12.674415625
20
34.23694375
30
0
0
VERTEX
8
0
10
12.600984375000001
20
34.2223375
30
0
0
VERTEX
8
0
10
12.529340625000001
20
34.200603125
30
0
0
VERTEX
8
0
10
12.460168750000001
20
34.171953125
30
0
0
VERTEX
8
0
10
12.394140625
20
34.136659375
30
0
0
VERTEX
8
0
10
12.331890625
20
34.095062500000004
30
0
0
VERTEX
8
0
10
12.274015625
20
34.047565625000004
30
0
0
VERTEX
8
0
10
12.221075
20
33.994625
30
0
0
VERTEX
8
0
10
12.173578125
20
33.93675
30
0
0
VERTEX
8
0
10
12.13198125
20
33.874500000000005
30
0
0
VERTEX
8
0
10
12.0966875
20
33.808471875
30
0
0
VERTEX
8
0
10
12.0680375
20
33.7393
30
0
0
VERTEX
8
0
10
12.046303125000001
20
33.66765625
30
0
0
VERTEX
8
0
10
12.031696875
20
33.594225
30
0
0
VERTEX
8
0
10
12.024359375000001
20
33.519715625
30
0
0
VERTEX
8
0
10
12.024359375000001
20
31.920846875000002
30
0
0
VERTEX
8
0
10
12.031696875
20
31.8463375
30
0
0
VERTEX
8
0
10
12.046303125000001
20
31.772906250000002
30
0
0
VERTEX
8
0
10
12.0680375
20
31.701262500000002
30
0
0
VERTEX
8
0
10
12.0966875
20
31.632090625
30
0
0
VERTEX
8
0
10
12.13198125
20
31.5660625
30
0
0
VERTEX
8
0
10
12.173578125
20
31.503812500000002
30
0
0
VERTEX
8
0
10
12.221075
20
31.445937500000003
30
0
0
VERTEX
8
0
10
12.274015625
20
31.392996875
30
0
0
VERTEX
8
0
10
12.331890625
20
31.3455
30
0
0
VERTEX
8
0
10
12.394140625
20
31.303903125
30
0
0
VERTEX
8
0
10
12.460168750000001
20
31.268609375
30
0
0
VERTEX
8
0
10
12.529340625000001
20
31.239959375
30
0
0
VERTEX
8
0
10
12.600984375000001
20
31.218225
30
0
0
VERTEX
8
0
10
12.674415625
20
31.20361875
30
0
0
VERTEX
8
0
10
12.748925
20
31.196281250000002
30
0
0
VERTEX
8
0
10
12.82379375
20
31.196281250000002
30
0
0
SEQEND
0
POLYLINE
66
1
8
1_copper
10
0.0
20
0.0
30
0.0
70
1
0
VERTEX
8
0
10
-20.055840625000002
20
48.80869375
30
0
0
VERTEX
8
0
10
-20.055840625000002
20
49.39786875
30
0
0
VERTEX
8
0
10
-20.472453125
20
49.81448125
30
0
0
VERTEX
8
0
10
-21.061628125000002
20
49.81448125
30
0
0
VERTEX
8
0
10
-21.478240625
20
49.39786875
30
0
0
VERTEX
8
0
10
-21.478240625
20
48.80869375
30
0
0
VERTEX
8
0
10
-21.061628125000002
20
48.392081250000004
30
0
0
VERTEX
8
0
10
-20.472453125
20
48.392081250000004
30
0
0
SEQEND
0
POLYLINE
66
1
8
1_copper
10
0.0
20
0.0
30
0.0
70
1
0
VERTEX
8
0
10
-24.480021875000002
20
31.278840625
30
0
0
VERTEX
8
0
10
-24.416384375
20
31.291500000000003
30
0
0
VERTEX
8
0
10
-24.354290625
20
31.310334375
30
0
0
VERTEX
8
0
10
-24.29434375
20
31.335165625000002
30
0
0
VERTEX
8
0
10
-24.23711875
20
31.365753125
30
0
0
VERTEX
8
0
10
-24.183165625
20
31.401803125
30
0
0
VERTEX
8
0
10
-24.133009375
20
31.442965625000003
30
0
0
VERTEX
8
0
10
-24.087125
20
31.488850000000003
30
0
0
VERTEX
8
0
10
-24.0459625
20
31.53900625
30
0
0
VERTEX
8
0
10
-24.009912500000002
20
31.592959375000003
30
0
0
VERTEX
8
0
10
-23.979325000000003
20
31.650184375000002
30
0
0
VERTEX
8
0
10
-23.95449375
20
31.71013125
30
0
0
VERTEX
8
0
10
-23.935659375
20
31.772225000000002
30
0
0
VERTEX
8
0
10
-23.923000000000002
20
31.8358625
30
0
0
VERTEX
8
0
10
-23.916640625
20
31.900437500000002
30
0
0
VERTEX
8
0
10
-23.916640625
20
33.286125
30
0
0
VERTEX
8
0
10
-23.923000000000002
20
33.3507
30
0
0
VERTEX
8
0
10
-23.935659375
20
33.4143375
30
0
0
VERTEX
8
0
10
-23.95449375
20
33.476431250000005
30
0
0
VERTEX
8
0
10
-23.979325000000003
20
33.536378125
30
0
0
VERTEX
8
0
10
-24.009912500000002
20
33.593603125
30
0
0
VERTEX
8
0
10
-24.0459625
20
33.64755625
30
0
0
VERTEX
8
0
10
-24.087125
20
33.6977125
30
0
0
VERTEX
8
0
10
-24.133009375
20
33.743596875
30
0
0
VERTEX
8
0
10
-24.183165625
20
33.784759375
30
0
0
VERTEX
8
0
10
-24.23711875
20
33.820809375
30
0
0
VERTEX
8
0
10
-24.29434375
20
33.851396875
30
0
0
VERTEX
8
0
10
-24.354290625
20
33.876228125000004
30
0
0
VERTEX
8
0
10
-24.416384375
20
33.8950625
30
0
0
VERTEX
8
0
10
-24.480021875000002
20
33.907721875
30
0
0
VERTEX
8
0
10
-24.544596875
20
33.91408125
30
0
0
VERTEX
8
0
10
-24.609484375
20
33.91408125
30
0
0
VERTEX
8
0
10
-24.674059375000002
20
33.907721875
30
0
0
VERTEX
8
0
10
-24.737696875
20
33.8950625
30
0
0
VERTEX
8
0
10
-24.799790625
20
33.876228125000004
30
0
0
VERTEX
8
0
10
-24.8597375
20
33.851396875
30
0
0
VERTEX
8
0
10
-24.9169625
20
33.820809375
30
0
0
VERTEX
8
0
10
-24.970915625
20
33.784759375
30
0
0
VERTEX
8
0
10
-25.021071875
20
33.743596875
30
0
0
VERTEX
8
0
10
-25.06695625
20
33.6977125
30
0
0
VERTEX
8
0
10
-25.108118750000003
20
33.64755625
30
0
0
VERTEX
8
0
10
-25.144168750000002
20
33.593603125
30
0
0
VERTEX
8
0
10
-25.17475625
20
33.536378125
30
0
0
VERTEX
8
0
10
-25.1995875
20
33.476431250000005
30
0
0
VERTEX
8
0
10
-25.218421875
20
33.4143375
30
0
0
VERTEX
8
0
10
-25.231081250000003
20
33.3507
30
0
0
VERTEX
8
0
10
-25.237440625
20
33.286125
30
0
0
VERTEX
8
0
10
-25.237440625
20
31.900437500000002
30
0
0
VERTEX
8
0
10
-25.231081250000003
20
31.8358625
30
0
0
VERTEX
8
0
10
-25.218421875
20
31.772225000000002
30
0
0
VERTEX
8
0
10
-25.1995875
20
31.71013125
30
0
0
VERTEX
8
0
10
-25.17475625
20
31.650184375000002
30
0
0
VERTEX
8
0
10
-25.144168750000002
20
31.592959375000003
30
0
0
VERTEX
8
0
10
-25.108118750000003
20
31.53900625
30
0
0
VERTEX
8
0
10
-25.06695625
20
31.488850000000003
30
0
0
VERTEX
8
0
10
-25.021071875
20
31.442965625000003
30
0
0
VERTEX
8
0
10
-24.970915625
20
31.401803125
30
0
0
VERTEX
8
0
10
-24.9169625
20
31.365753125
30
0
0
VERTEX
8
0
10
-24.8597375
20
31.335165625000002
30
0
0
VERTEX
8
0
10
-24.799790625
20
31.310334375
30
0
0
VERTEX
8
0
10
-24.737696875
20
31.291500000000003
30
0
0
VERTEX
8
0
10
-24.674059375000002
20
31.278840625
30
0
0
VERTEX
8
0
10
-24.609484375
20
31.272481250000002
30
0
0
VERTEX
8
0
10
-24.544596875
20
31.272481250000002
30
0
0
SEQEND
0
POLYLINE
66
1
8
16_copper
10
0.0
20
0.0
30
0.0
70
1
0
VERTEX
8
0
10
-24.506034375000002
20
41.284093750000004
30
0
0
VERTEX
8
0
10
-24.516065625
20
41.301468750000005
30
0
0
VERTEX
8
0
10
-25.669240625
20
42.45464375
30
0
0
VERTEX
8
0
10
-25.669240625
20
42.5093125
30
0
0
VERTEX
8
0
10
-25.674434375
20
42.52869375
30
0
0
VERTEX
8
0
10
-25.684465625
20
42.54606875
30
0
0
VERTEX
8
0
10
-25.698653125
20
42.56025625
30
0
0
VERTEX
8
0
10
-25.716028125
20
42.5702875
30
0
0
VERTEX
8
0
10
-25.735409375
20
42.57548125
30
0
0
VERTEX
8
0
10
-27.491878125000003
20
42.57548125
30
0
0
VERTEX
8
0
10
-29.022040625000002
20
44.10564375
30
0
0
VERTEX
8
0
10
-29.022040625000002
20
44.1349125
30
0
0
VERTEX
8
0
10
-29.027234375000003
20
44.15429375
30
0
0
VERTEX
8
0
10
-29.037265625
20
44.17166875
30
0
0
VERTEX
8
0
10
-29.047440625
20
44.18184375
30
0
0
VERTEX
8
0
10
-29.047440625
20
50.570318750000006
30
0
0
VERTEX
8
0
10
-28.050678125
20
51.56708125
30
0
0
VERTEX
8
0
10
-22.195603125
20
51.56708125
30
0
0
VERTEX
8
0
10
-20.843240625
20
50.21471875
30
0
0
VERTEX
8
0
10
-20.843240625
20
49.81448125
30
0
0
VERTEX
8
0
10
-21.061628125000002
20
49.81448125
30
0
0
VERTEX
8
0
10
-21.478240625
20
49.39786875
30
0
0
VERTEX
8
0
10
-21.478240625
20
48.80869375
30
0
0
VERTEX
8
0
10
-21.061628125000002
20
48.392081250000004
30
0
0
VERTEX
8
0
10
-20.472453125
20
48.392081250000004
30
0
0
VERTEX
8
0
10
-20.055840625000002
20
48.80869375
30
0
0
VERTEX
8
0
10
-20.055840625000002
20
49.39786875
30
0
0
VERTEX
8
0
10
-20.472453125
20
49.81448125
30
0
0
VERTEX
8
0
10
-20.690840625
20
49.81448125
30
0
0
VERTEX
8
0
10
-20.690840625
20
50.2563125
30
0
0
VERTEX
8
0
10
-20.696034375
20
50.27569375
30
0
0
VERTEX
8
0
10
-20.706065625
20
50.29306875
30
0
0
VERTEX
8
0
10
-22.117253125
20
51.70425625
30
0
0
VERTEX
8
0
10
-22.134628125000003
20
51.714287500000005
30
0
0
VERTEX
8
0
10
-22.154009375
20
51.71948125
30
0
0
VERTEX
8
0
10
-28.092271875
20
51.71948125
30
0
0
VERTEX
8
0
10
-28.111653125
20
51.714287500000005
30
0
0
VERTEX
8
0
10
-28.129028125
20
51.70425625
30
0
0
VERTEX
8
0
10
-29.184615625000003
20
50.648668750000006
30
0
0
VERTEX
8
0
10
-29.194646875
20
50.631293750000005
30
0
0
VERTEX
8
0
10
-29.199840625
20
50.6119125
30
0
0
VERTEX
8
0
10
-29.199840625
20
44.08945
30
0
0
VERTEX
8
0
10
-29.194646875
20
44.070068750000004
30
0
0
VERTEX
8
0
10
-29.184615625000003
20
44.05269375
30
0
0
VERTEX
8
0
10
-27.570228125
20
42.438306250000004
30
0
0
VERTEX
8
0
10
-27.552853125000002
20
42.428275
30
0
0
VERTEX
8
0
10
-27.533471875
20
42.42308125
30
0
0
VERTEX
8
0
10
-25.821640625
20
42.42308125
30
0
0
VERTEX
8
0
10
-25.821640625
20
42.413050000000005
30
0
0
VERTEX
8
0
10
-25.816446875
20
42.39366875
30
0
0
VERTEX
8
0
10
-25.806415625
20
42.37629375
30
0
0
VERTEX
8
0
10
-24.653240625000002
20
41.223118750000005
30
0
0
VERTEX
8
0
10
-24.653240625000002
20
33.909771875000004
30
0
0
VERTEX
8
0
10
-24.674059375000002
20
33.907721875
30
0
0
VERTEX
8
0
10
-24.737696875
20
33.8950625
30
0
0
VERTEX
8
0
10
-24.799790625
20
33.876228125000004
30
0
0
VERTEX
8
0
10
-24.8597375
20
33.851396875
30
0
0
VERTEX
8
0
10
-24.9169625
20
33.820809375
30
0
0
VERTEX
8
0
10
-24.970915625
20
33.784759375
30
0
0
VERTEX
8
0
10
-25.021071875
20
33.743596875
30
0
0
VERTEX
8
0
10
-25.06695625
20
33.6977125
30
0
0
VERTEX
8
0
10
-25.108118750000003
20
33.64755625
30
0
0
VERTEX
8
0
10
-25.144168750000002
20
33.593603125
30
0
0
VERTEX
8
0
10
-25.17475625
20
33.536378125
30
0
0
VERTEX
8
0
10
-25.1995875
20
33.476431250000005
30
0
0
VERTEX
8
0
10
-25.218421875
20
33.4143375
30
0
0
VERTEX
8
0
10
-25.231081250000003
20
33.3507
30
0
0
VERTEX
8
0
10
-25.237440625
20
33.286125
30
0
0
VERTEX
8
0
10
-25.237440625
20
31.900437500000002
30
0
0
VERTEX
8
0
10
-25.231081250000003
20
31.8358625
30
0
0
VERTEX
8
0
10
-25.218421875
20
31.772225000000002
30
0
0
VERTEX
8
0
10
-25.1995875
20
31.71013125
30
0
0
VERTEX
8
0
10
-25.17475625
20
31.650184375000002
30
0
0
VERTEX
8
0
10
-25.144168750000002
20
31.592959375000003
30
0
0
VERTEX
8
0
10
-25.108118750000003
20
31.53900625
30
0
0
VERTEX
8
0
10
-25.06695625
20
31.488850000000003
30
0
0
VERTEX
8
0
10
-25.021071875
20
31.442965625000003
30
0
0
VERTEX
8
0
10
-24.970915625
20
31.401803125
30
0
0
VERTEX
8
0
10
-24.9169625
20
31.365753125
30
0
0
VERTEX
8
0
10
-24.8597375
20
31.335165625000002
30
0
0
VERTEX
8
0
10
-24.799790625
20
31.310334375
30
0
0
VERTEX
8
0
10
-24.737696875
20
31.291500000000003
30
0
0
VERTEX
8
0
10
-24.674059375000002
20
31.278840625
30
0
0
VERTEX
8
0
10
-24.609484375
20
31.272481250000002
30
0
0
VERTEX
8
0
10
-24.544596875
20
31.272481250000002
30
0
0
VERTEX
8
0
10
-24.480021875000002
20
31.278840625
30
0
0
VERTEX
8
0
10
-24.416384375
20
31.291500000000003
30
0
0
VERTEX
8
0
10
-24.354290625
20
31.310334375
30
0
0
VERTEX
8
0
10
-24.29434375
20
31.335165625000002
30
0
0
VERTEX
8
0
10
-24.23711875
20
31.365753125
30
0
0
VERTEX
8
0
10
-24.183165625
20
31.401803125
30
0
0
VERTEX
8
0
10
-24.133009375
20
31.442965625000003
30
0
0
VERTEX
8
0
10
-24.087125
20
31.488850000000003
30
0
0
VERTEX
8
0
10
-24.0459625
20
31.53900625
30
0
0
VERTEX
8
0
10
-24.009912500000002
20
31.592959375000003
30
0
0
VERTEX
8
0
10
-23.979325000000003
20
31.650184375000002
30
0
0
VERTEX
8
0
10
-23.95449375
20
31.71013125
30
0
0
VERTEX
8
0
10
-23.935659375
20
31.772225000000002
30
0
0
VERTEX
8
0
10
-23.923000000000002
20
31.8358625
30
0
0
VERTEX
8
0
10
-23.916640625
20
31.900437500000002
30
0
0
VERTEX
8
0
10
-23.916640625
20
33.286125
30
0
0
VERTEX
8
0
10
-23.923000000000002
20
33.3507
30
0
0
VERTEX
8
0
10
-23.935659375
20
33.4143375
30
0
0
VERTEX
8
0
10
-23.95449375
20
33.476431250000005
30
0
0
VERTEX
8
0
10
-23.979325000000003
20
33.536378125
30
0
0
VERTEX
8
0
10
-24.009912500000002
20
33.593603125
30
0
0
VERTEX
8
0
10
-24.0459625
20
33.64755625
30
0
0
VERTEX
8
0
10
-24.087125
20
33.6977125
30
0
0
VERTEX
8
0
10
-24.133009375
20
33.743596875
30
0
0
VERTEX
8
0
10
-24.183165625
20
33.784759375
30
0
0
VERTEX
8
0
10
-24.23711875
20
33.820809375
30
0
0
VERTEX
8
0
10
-24.29434375
20
33.851396875
30
0
0
VERTEX
8
0
10
-24.354290625
20
33.876228125000004
30
0
0
VERTEX
8
0
10
-24.416384375
20
33.8950625
30
0
0
VERTEX
8
0
10
-24.480021875000002
20
33.907721875
30
0
0
VERTEX
8
0
10
-24.500840625000002
20
33.909771875000004
30
0
0
VERTEX
8
0
10
-24.500840625000002
20
41.2647125
30
0
0
SEQEND
0
POLYLINE
66
1
8
1_copper
10
0.0
20
0.0
30
0.0
70
1
0
VERTEX
8
0
10
-22.595840625
20
48.80869375
30
0
0
VERTEX
8
0
10
-22.595840625
20
49.39786875
30
0
0
VERTEX
8
0
10
-23.012453125
20
49.81448125
30
0
0
VERTEX
8
0
10
-23.601628125
20
49.81448125
30
0
0
VERTEX
8
0
10
-24.018240625
20
49.39786875
30
0
0
VERTEX
8
0
10
-24.018240625
20
48.80869375
30
0
0
VERTEX
8
0
10
-23.601628125
20
48.392081250000004
30
0
0
VERTEX
8
0
10
-23.012453125
20
48.392081250000004
30
0
0
SEQEND
0
POLYLINE
66
1
8
1_copper
10
0.0
20
0.0
30
0.0
70
1
0
VERTEX
8
0
10
-21.940021875
20
31.278840625
30
0
0
VERTEX
8
0
10
-21.876384375
20
31.291500000000003
30
0
0
VERTEX
8
0
10
-21.814290625
20
31.310334375
30
0
0
VERTEX
8
0
10
-21.75434375
20
31.335165625000002
30
0
0
VERTEX
8
0
10
-21.69711875
20
31.365753125
30
0
0
VERTEX
8
0
10
-21.643165625
20
31.401803125
30
0
0
VERTEX
8
0
10
-21.593009375
20
31.442965625000003
30
0
0
VERTEX
8
0
10
-21.547125
20
31.488850000000003
30
0
0
VERTEX
8
0
10
-21.505962500000003
20
31.53900625
30
0
0
VERTEX
8
0
10
-21.4699125
20
31.592959375000003
30
0
0
VERTEX
8
0
10
-21.439325
20
31.650184375000002
30
0
0
VERTEX
8
0
10
-21.414493750000002
20
31.71013125
30
0
0
VERTEX
8
0
10
-21.395659375
20
31.772225000000002
30
0
0
VERTEX
8
0
10
-21.383000000000003
20
31.8358625
30
0
0
VERTEX
8
0
10
-21.376640625
20
31.900437500000002
30
0
0
VERTEX
8
0
10
-21.376640625
20
33.286125
30
0
0
VERTEX
8
0
10
-21.383000000000003
20
33.3507
30
0
0
VERTEX
8
0
10
-21.395659375
20
33.4143375
30
0
0
VERTEX
8
0
10
-21.414493750000002
20
33.476431250000005
30
0
0
VERTEX
8
0
10
-21.439325
20
33.536378125
30
0
0
VERTEX
8
0
10
-21.4699125
20
33.593603125
30
0
0
VERTEX
8
0
10
-21.505962500000003
20
33.64755625
30
0
0
VERTEX
8
0
10
-21.547125
20
33.6977125
30
0
0
VERTEX
8
0
10
-21.593009375
20
33.743596875
30
0
0
VERTEX
8
0
10
-21.643165625
20
33.784759375
30
0
0
VERTEX
8
0
10
-21.69711875
20
33.820809375
30
0
0
VERTEX
8
0
10
-21.75434375
20
33.851396875
30
0
0
VERTEX
8
0
10
-21.814290625
20
33.876228125000004
30
0
0
VERTEX
8
0
10
-21.876384375
20
33.8950625
30
0
0
VERTEX
8
0
10
-21.940021875
20
33.907721875
30
0
0
VERTEX
8
0
10
-22.004596875
20
33.91408125
30
0
0
VERTEX
8
0
10
-22.069484375000002
20
33.91408125
30
0
0
VERTEX
8
0
10
-22.134059375
20
33.907721875
30
0
0
VERTEX
8
0
10
-22.197696875000002
20
33.8950625
30
0
0
VERTEX
8
0
10
-22.259790625
20
33.876228125000004
30
0
0
VERTEX
8
0
10
-22.319737500000002
20
33.851396875
30
0
0
VERTEX
8
0
10
-22.3769625
20
33.820809375
30
0
0
VERTEX
8
0
10
-22.430915625
20
33.784759375
30
0
0
VERTEX
8
0
10
-22.481071875
20
33.743596875
30
0
0
VERTEX
8
0
10
-22.52695625
20
33.6977125
30
0
0
VERTEX
8
0
10
-22.56811875
20
33.64755625
30
0
0
VERTEX
8
0
10
-22.60416875
20
33.593603125
30
0
0
VERTEX
8
0
10
-22.634756250000002
20
33.536378125
30
0
0
VERTEX
8
0
10
-22.6595875
20
33.476431250000005
30
0
0
VERTEX
8
0
10
-22.678421875
20
33.4143375
30
0
0
VERTEX
8
0
10
-22.69108125
20
33.3507
30
0
0
VERTEX
8
0
10
-22.697440625000002
20
33.286125
30
0
0
VERTEX
8
0
10
-22.697440625000002
20
31.900437500000002
30
0
0
VERTEX
8
0
10
-22.69108125
20
31.8358625
30
0
0
VERTEX
8
0
10
-22.678421875
20
31.772225000000002
30
0
0
VERTEX
8
0
10
-22.6595875
20
31.71013125
30
0
0
VERTEX
8
0
10
-22.634756250000002
20
31.650184375000002
30
0
0
VERTEX
8
0
10
-22.60416875
20
31.592959375000003
30
0
0
VERTEX
8
0
10
-22.56811875
20
31.53900625
30
0
0
VERTEX
8
0
10
-22.52695625
20
31.488850000000003
30
0
0
VERTEX
8
0
10
-22.481071875
20
31.442965625000003
30
0
0
VERTEX
8
0
10
-22.430915625
20
31.401803125
30
0
0
VERTEX
8
0
10
-22.3769625
20
31.365753125
30
0
0
VERTEX
8
0
10
-22.319737500000002
20
31.335165625000002
30
0
0
VERTEX
8
0
10
-22.259790625
20
31.310334375
30
0
0
VERTEX
8
0
10
-22.197696875000002
20
31.291500000000003
30
0
0
VERTEX
8
0
10
-22.134059375
20
31.278840625
30
0
0
VERTEX
8
0
10
-22.069484375000002
20
31.272481250000002
30
0
0
VERTEX
8
0
10
-22.004596875
20
31.272481250000002
30
0
0
SEQEND
0
POLYLINE
66
1
8
16_copper
10
0.0
20
0.0
30
0.0
70
1
0
VERTEX
8
0
10
-21.966034375
20
41.18249375
30
0
0
VERTEX
8
0
10
-21.976065625
20
41.19986875
30
0
0
VERTEX
8
0
10
-23.768253125
20
42.992056250000005
30
0
0
VERTEX
8
0
10
-23.785628125000002
20
43.0020875
30
0
0
VERTEX
8
0
10
-23.805009375
20
43.007281250000005
30
0
0
VERTEX
8
0
10
-27.136278125
20
43.007281250000005
30
0
0
VERTEX
8
0
10
-28.615640625
20
44.48664375
30
0
0
VERTEX
8
0
10
-28.615640625
20
50.29091875
30
0
0
VERTEX
8
0
10
-27.669678125
20
51.23688125
30
0
0
VERTEX
8
0
10
-24.303803125
20
51.23688125
30
0
0
VERTEX
8
0
10
-23.383240625000003
20
50.31631875
30
0
0
VERTEX
8
0
10
-23.383240625000003
20
49.81448125
30
0
0
VERTEX
8
0
10
-23.601628125
20
49.81448125
30
0
0
VERTEX
8
0
10
-24.018240625
20
49.39786875
30
0
0
VERTEX
8
0
10
-24.018240625
20
48.80869375
30
0
0
VERTEX
8
0
10
-23.601628125
20
48.392081250000004
30
0
0
VERTEX
8
0
10
-23.012453125
20
48.392081250000004
30
0
0
VERTEX
8
0
10
-22.595840625
20
48.80869375
30
0
0
VERTEX
8
0
10
-22.595840625
20
49.39786875
30
0
0
VERTEX
8
0
10
-23.012453125
20
49.81448125
30
0
0
VERTEX
8
0
10
-23.230840625000003
20
49.81448125
30
0
0
VERTEX
8
0
10
-23.230840625000003
20
50.357912500000005
30
0
0
VERTEX
8
0
10
-23.236034375000003
20
50.37729375
30
0
0
VERTEX
8
0
10
-23.246065625
20
50.39466875
30
0
0
VERTEX
8
0
10
-24.225453125
20
51.37405625
30
0
0
VERTEX
8
0
10
-24.242828125000003
20
51.3840875
30
0
0
VERTEX
8
0
10
-24.262209375
20
51.38928125
30
0
0
VERTEX
8
0
10
-27.711271875
20
51.38928125
30
0
0
VERTEX
8
0
10
-27.730653125
20
51.3840875
30
0
0
VERTEX
8
0
10
-27.748028125
20
51.37405625
30
0
0
VERTEX
8
0
10
-28.752815625
20
50.36926875
30
0
0
VERTEX
8
0
10
-28.762846875
20
50.35189375
30
0
0
VERTEX
8
0
10
-28.768040625
20
50.3325125
30
0
0
VERTEX
8
0
10
-28.768040625
20
44.44505
30
0
0
VERTEX
8
0
10
-28.762846875
20
44.42566875
30
0
0
VERTEX
8
0
10
-28.752815625
20
44.408293750000006
30
0
0
VERTEX
8
0
10
-27.214628125
20
42.87010625
30
0
0
VERTEX
8
0
10
-27.197253125
20
42.860075
30
0
0
VERTEX
8
0
10
-27.177871875
20
42.854881250000005
30
0
0
VERTEX
8
0
10
-23.846603125
20
42.854881250000005
30
0
0
VERTEX
8
0
10
-22.113240625
20
41.12151875
30
0
0
VERTEX
8
0
10
-22.113240625
20
33.909771875000004
30
0
0
VERTEX
8
0
10
-22.134059375
20
33.907721875
30
0
0
VERTEX
8
0
10
-22.197696875000002
20
33.8950625
30
0
0
VERTEX
8
0
10
-22.259790625
20
33.876228125000004
30
0
0
VERTEX
8
0
10
-22.319737500000002
20
33.851396875
30
0
0
VERTEX
8
0
10
-22.3769625
20
33.820809375
30
0
0
VERTEX
8
0
10
-22.430915625
20
33.784759375
30
0
0
VERTEX
8
0
10
-22.481071875
20
33.743596875
30
0
0
VERTEX
8
0
10
-22.52695625
20
33.6977125
30
0
0
VERTEX
8
0
10
-22.56811875
20
33.64755625
30
0
0
VERTEX
8
0
10
-22.60416875
20
33.593603125
30
0
0
VERTEX
8
0
10
-22.634756250000002
20
33.536378125
30
0
0
VERTEX
8
0
10
-22.6595875
20
33.476431250000005
30
0
0
VERTEX
8
0
10
-22.678421875
20
33.4143375
30
0
0
VERTEX
8
0
10
-22.69108125
20
33.3507
30
0
0
VERTEX
8
0
10
-22.697440625000002
20
33.286125
30
0
0
VERTEX
8
0
10
-22.697440625000002
20
31.900437500000002
30
0
0
VERTEX
8
0
10
-22.69108125
20
31.8358625
30
0
0
VERTEX
8
0
10
-22.678421875
20
31.772225000000002
30
0
0
VERTEX
8
0
10
-22.6595875
20
31.71013125
30
0
0
VERTEX
8
0
10
-22.634756250000002
20
31.650184375000002
30
0
0
VERTEX
8
0
10
-22.60416875
20
31.592959375000003
30
0
0
VERTEX
8
0
10
-22.56811875
20
31.53900625
30
0
0
VERTEX
8
0
10
-22.52695625
20
31.488850000000003
30
0
0
VERTEX
8
0
10
-22.481071875
20
31.442965625000003
30
0
0
VERTEX
8
0
10
-22.430915625
20
31.401803125
30
0
0
VERTEX
8
0
10
-22.3769625
20
31.365753125
30
0
0
VERTEX
8
0
10
-22.319737500000002
20
31.335165625000002
30
0
0
VERTEX
8
0
10
-22.259790625
20
31.310334375
30
0
0
VERTEX
8
0
10
-22.197696875000002
20
31.291500000000003
30
0
0
VERTEX
8
0
10
-22.134059375
20
31.278840625
30
0
0
VERTEX
8
0
10
-22.069484375000002
20
31.272481250000002
30
0
0
VERTEX
8
0
10
-22.004596875
20
31.272481250000002
30
0
0
VERTEX
8
0
10
-21.940021875
20
31.278840625
30
0
0
VERTEX
8
0
10
-21.876384375
20
31.291500000000003
30
0
0
VERTEX
8
0
10
-21.814290625
20
31.310334375
30
0
0
VERTEX
8
0
10
-21.75434375
20
31.335165625000002
30
0
0
VERTEX
8
0
10
-21.69711875
20
31.365753125
30
0
0
VERTEX
8
0
10
-21.643165625
20
31.401803125
30
0
0
VERTEX
8
0
10
-21.593009375
20
31.442965625000003
30
0
0
VERTEX
8
0
10
-21.547125
20
31.488850000000003
30
0
0
VERTEX
8
0
10
-21.505962500000003
20
31.53900625
30
0
0
VERTEX
8
0
10
-21.4699125
20
31.592959375000003
30
0
0
VERTEX
8
0
10
-21.439325
20
31.650184375000002
30
0
0
VERTEX
8
0
10
-21.414493750000002
20
31.71013125
30
0
0
VERTEX
8
0
10
-21.395659375
20
31.772225000000002
30
0
0
VERTEX
8
0
10
-21.383000000000003
20
31.8358625
30
0
0
VERTEX
8
0
10
-21.376640625
20
31.900437500000002
30
0
0
VERTEX
8
0
10
-21.376640625
20
33.286125
30
0
0
VERTEX
8
0
10
-21.383000000000003
20
33.3507
30
0
0
VERTEX
8
0
10
-21.395659375
20
33.4143375
30
0
0
VERTEX
8
0
10
-21.414493750000002
20
33.476431250000005
30
0
0
VERTEX
8
0
10
-21.439325
20
33.536378125
30
0
0
VERTEX
8
0
10
-21.4699125
20
33.593603125
30
0
0
VERTEX
8
0
10
-21.505962500000003
20
33.64755625
30
0
0
VERTEX
8
0
10
-21.547125
20
33.6977125
30
0
0
VERTEX
8
0
10
-21.593009375
20
33.743596875
30
0
0
VERTEX
8
0
10
-21.643165625
20
33.784759375
30
0
0
VERTEX
8
0
10
-21.69711875
20
33.820809375
30
0
0
VERTEX
8
0
10
-21.75434375
20
33.851396875
30
0
0
VERTEX
8
0
10
-21.814290625
20
33.876228125000004
30
0
0
VERTEX
8
0
10
-21.876384375
20
33.8950625
30
0
0
VERTEX
8
0
10
-21.940021875
20
33.907721875
30
0
0
VERTEX
8
0
10
-21.960840625
20
33.909771875000004
30
0
0
VERTEX
8
0
10
-21.960840625
20
41.163112500000004
30
0
0
SEQEND
0
CIRCLE
8
drills_PTH
10
-3.088640625
20
32.49168125
30
0
40
0.508
0
CIRCLE
8
drills_PTH
10
-0.548640625
20
32.49168125
30
0
40
0.508
0
CIRCLE
8
drills_PTH
10
1.991359375
20
32.49168125
30
0
40
0.508
0
CIRCLE
8
drills_PTH
10
15.326359375000001
20
32.72028125
30
0
40
0.508
0
CIRCLE
8
drills_PTH
10
10.246359375
20
32.72028125
30
0
40
0.508
0
CIRCLE
8
drills_PTH
10
17.866359375000002
20
32.72028125
30
0
40
0.508
0
CIRCLE
8
drills_PTH
10
12.786359375
20
32.72028125
30
0
40
0.508
0
CIRCLE
8
drills_PTH
10
14.792959375
20
49.10328125
30
0
40
0.4572
0
CIRCLE
8
drills_PTH
10
14.792959375
20
46.56328125
30
0
40
0.4572
0
CIRCLE
8
drills_PTH
10
17.332959375
20
49.10328125
30
0
40
0.4572
0
CIRCLE
8
drills_PTH
10
17.332959375
20
46.56328125
30
0
40
0.4572
0
CIRCLE
8
drills_PTH
10
19.872959375
20
49.10328125
30
0
40
0.4572
0
CIRCLE
8
drills_PTH
10
19.872959375
20
46.56328125
30
0
40
0.4572
0
CIRCLE
8
drills_PTH
10
22.412959375
20
49.10328125
30
0
40
0.4572
0
CIRCLE
8
drills_PTH
10
22.412959375
20
46.56328125
30
0
40
0.4572
0
CIRCLE
8
drills_PTH
10
-25.847040625
20
49.10328125
30
0
40
0.4572
0
CIRCLE
8
drills_PTH
10
-25.847040625
20
46.56328125
30
0
40
0.4572
0
CIRCLE
8
drills_PTH
10
-23.307040625000003
20
49.10328125
30
0
40
0.4572
0
CIRCLE
8
drills_PTH
10
-23.307040625000003
20
46.56328125
30
0
40
0.4572
0
CIRCLE
8
drills_PTH
10
-20.767040625
20
49.10328125
30
0
40
0.4572
0
CIRCLE
8
drills_PTH
10
-20.767040625
20
46.56328125
30
0
40
0.4572
0
CIRCLE
8
drills_PTH
10
-18.227040625
20
49.10328125
30
0
40
0.4572
0
CIRCLE
8
drills_PTH
10
-18.227040625
20
46.56328125
30
0
40
0.4572
0
CIRCLE
8
drills_PTH
10
-15.687040625000002
20
49.10328125
30
0
40
0.4572
0
CIRCLE
8
drills_PTH
10
-15.687040625000002
20
46.56328125
30
0
40
0.4572
0
CIRCLE
8
drills_PTH
10
-13.147040625
20
49.10328125
30
0
40
0.4572
0
CIRCLE
8
drills_PTH
10
-13.147040625
20
46.56328125
30
0
40
0.4572
0
CIRCLE
8
drills_PTH
10
-10.607040625
20
49.10328125
30
0
40
0.4572
0
CIRCLE
8
drills_PTH
10
-10.607040625
20
46.56328125
30
0
40
0.4572
0
CIRCLE
8
drills_PTH
10
-8.067040625
20
49.10328125
30
0
40
0.4572
0
CIRCLE
8
drills_PTH
10
-8.067040625
20
46.56328125
30
0
40
0.4572
0
CIRCLE
8
drills_PTH
10
-5.527040625000001
20
49.10328125
30
0
40
0.4572
0
CIRCLE
8
drills_PTH
10
-5.527040625000001
20
46.56328125
30
0
40
0.4572
0
CIRCLE
8
drills_PTH
10
-2.987040625
20
49.10328125
30
0
40
0.4572
0
CIRCLE
8
drills_PTH
10
-2.987040625
20
46.56328125
30
0
40
0.4572
0
CIRCLE
8
drills_PTH
10
-0.447040625
20
49.10328125
30
0
40
0.4572
0
CIRCLE
8
drills_PTH
10
-0.447040625
20
46.56328125
30
0
40
0.4572
0
CIRCLE
8
drills_PTH
10
2.092959375
20
49.10328125
30
0
40
0.4572
0
CIRCLE
8
drills_PTH
10
2.092959375
20
46.56328125
30
0
40
0.4572
0
CIRCLE
8
drills_PTH
10
4.632959375
20
49.10328125
30
0
40
0.4572
0
CIRCLE
8
drills_PTH
10
4.632959375
20
46.56328125
30
0
40
0.4572
0
CIRCLE
8
drills_PTH
10
7.1729593750000005
20
49.10328125
30
0
40
0.4572
0
CIRCLE
8
drills_PTH
10
7.1729593750000005
20
46.56328125
30
0
40
0.4572
0
CIRCLE
8
drills_PTH
10
9.712959375
20
49.10328125
30
0
40
0.4572
0
CIRCLE
8
drills_PTH
10
9.712959375
20
46.56328125
30
0
40
0.4572
0
CIRCLE
8
drills_PTH
10
12.252959375000001
20
49.10328125
30
0
40
0.4572
0
CIRCLE
8
drills_PTH
10
12.252959375000001
20
46.56328125
30
0
40
0.4572
0
CIRCLE
8
drills_PTH
10
-29.657040625
20
32.593281250000004
30
0
40
0.40640000000000004
0
CIRCLE
8
drills_PTH
10
-27.117040625
20
32.593281250000004
30
0
40
0.40640000000000004
0
CIRCLE
8
drills_PTH
10
-24.577040625000002
20
32.593281250000004
30
0
40
0.40640000000000004
0
CIRCLE
8
drills_PTH
10
-19.497040625
20
32.593281250000004
30
0
40
0.40640000000000004
0
CIRCLE
8
drills_PTH
10
-16.957040625
20
32.593281250000004
30
0
40
0.40640000000000004
0
CIRCLE
8
drills_PTH
10
-14.417040625
20
32.593281250000004
30
0
40
0.40640000000000004
0
CIRCLE
8
drills_PTH
10
-11.877040625000001
20
32.593281250000004
30
0
40
0.40640000000000004
0
CIRCLE
8
drills_PTH
10
-22.037040625
20
32.593281250000004
30
0
40
0.40640000000000004
0
ENDSEC
0
EOF